<?xml version="1.0" encoding="utf-8"?>
<!-- Generator: Adobe Illustrator 26.0.0, SVG Export Plug-In . SVG Version: 6.00 Build 0)  -->
<svg version="1.1" id="Camada_1" xmlns="http://www.w3.org/2000/svg" xmlns:xlink="http://www.w3.org/1999/xlink" x="0px" y="0px"
	 viewBox="0 0 1080 1080" style="enable-background:new 0 0 1080 1080;" xml:space="preserve">
<style type="text/css">
	.st0{fill:url(#SVGID_1_);}
	.st1{fill:url(#SVGID_00000019668997774158933850000001055593110300784806_);}
	.st2{fill:url(#SVGID_00000088100632157882899180000010743928213316232839_);}
	.st3{fill:url(#SVGID_00000170970240628227148910000006166305717736910222_);}
	.st4{fill:url(#SVGID_00000093156107739585424540000017884637278946176670_);}
	.st5{fill:url(#SVGID_00000112606908969756391820000013358397257731296914_);}
	.st6{fill:url(#SVGID_00000042017975938801410580000002781510696228391855_);}
	.st7{fill:url(#SVGID_00000110436606472363054090000017109816347717605789_);}
	.st8{fill:url(#SVGID_00000011748762805401665350000011287662761073274768_);}
	.st9{fill:url(#SVGID_00000165931984341539952280000004486056846128558500_);}
	.st10{fill:url(#SVGID_00000073707589328219758050000004073356981726220446_);}
	.st11{fill:url(#SVGID_00000132793721141254540790000013083955815495035016_);}
	.st12{fill:url(#SVGID_00000028291821181732905020000004936345397111748255_);}
	.st13{fill:url(#SVGID_00000072273090483096622700000005126044908921962156_);}
	.st14{fill:url(#SVGID_00000115489197956600784840000018386832871702687640_);}
	.st15{fill:url(#SVGID_00000048469768587963740060000013837257590218826407_);}
	.st16{fill:url(#SVGID_00000075847768521367013200000008244954783221072798_);}
	.st17{fill:url(#SVGID_00000074430120994622476000000012892546680000614320_);}
	.st18{fill:url(#SVGID_00000096761567909742646950000005913310526342094771_);}
	.st19{fill:url(#SVGID_00000011723020833576512670000007520359137146619788_);}
	.st20{fill:url(#SVGID_00000070085185743453316820000015800620776734342330_);}
	.st21{fill:url(#SVGID_00000150076178908576129490000011102915103892859313_);}
	.st22{fill:url(#SVGID_00000021116061660947910880000012750428551618172582_);}
	.st23{fill:url(#SVGID_00000010302591222432546490000003761615197679355281_);}
	.st24{fill:url(#SVGID_00000048483887384544709480000002221266832357299104_);}
	.st25{fill:url(#SVGID_00000059989730762211274830000006223292249525795228_);}
	.st26{fill:url(#SVGID_00000025433877344250730840000017793745207189484964_);}
	.st27{fill:url(#SVGID_00000051374144489969572630000016773593599621690029_);}
	.st28{fill:url(#SVGID_00000098907563436097389640000013227010836162842254_);}
	.st29{fill:url(#SVGID_00000078741109274313506850000008011895154265505720_);}
	.st30{fill:url(#SVGID_00000176755335139811925700000003852051454324220579_);}
	.st31{fill:url(#SVGID_00000080886374170834116020000007358333780412987046_);}
	.st32{fill:url(#SVGID_00000070833453942385224260000013826566784895886766_);}
	.st33{fill:url(#SVGID_00000168830805422692660180000003013569387085790122_);}
	.st34{fill:url(#SVGID_00000050626689348630667000000013521340604970163616_);}
	.st35{fill:url(#SVGID_00000058565001427575278350000009300231292597942962_);}
	.st36{fill:url(#SVGID_00000086666180232400402080000000913183561567901598_);}
	.st37{fill:url(#SVGID_00000158014222622554955930000012365615740380735652_);}
	.st38{fill:url(#SVGID_00000105422049305945864220000004906457981006422154_);}
	.st39{fill:url(#SVGID_00000087405498470078777530000013623995409344770234_);}
	.st40{fill:url(#SVGID_00000118387040427729594780000009333499029269123491_);}
	.st41{fill:url(#SVGID_00000061467868856467812190000013948875421468337841_);}
	.st42{fill:url(#SVGID_00000029024218200963869120000000081597394495879042_);}
	.st43{fill:url(#SVGID_00000007421456965021294360000013839911635068579476_);}
	.st44{fill:url(#SVGID_00000140731853467483382660000009315356127923414925_);}
	.st45{fill:url(#SVGID_00000044897949675121020660000000419992463804412845_);}
	.st46{fill:url(#SVGID_00000170258316180207500380000013502287907472586638_);}
	.st47{fill:url(#SVGID_00000127028371245113317700000001675421942117661878_);}
	.st48{fill:url(#SVGID_00000070110241850833235280000002688845851602268813_);}
	.st49{fill:url(#SVGID_00000042717982746476473810000008265621737867564968_);}
	.st50{fill:url(#SVGID_00000132780508319787699360000013255067092431102143_);}
	.st51{fill:url(#SVGID_00000177481953449671191270000015639649063139310511_);}
	.st52{fill:url(#SVGID_00000033342789019330653390000017680902811304689303_);}
	.st53{fill:url(#SVGID_00000065042340987629373970000005595735870234100110_);}
	.st54{fill:url(#SVGID_00000096060257842781122640000013721822141614861450_);}
	.st55{fill:url(#SVGID_00000135692905499979339390000004972663164627909806_);}
	.st56{fill:url(#SVGID_00000118364739883740108580000005827276393147259543_);}
	.st57{fill:url(#SVGID_00000038401624051820252350000008745331827714668934_);}
	.st58{fill:url(#SVGID_00000080897943162821284670000009035232533786128003_);}
	.st59{fill:url(#SVGID_00000001635419370535845850000018430717104181696908_);}
	.st60{fill:url(#SVGID_00000073689593273715768010000010169500074211761816_);}
	.st61{fill:url(#SVGID_00000062884137999793554700000012893592400535192479_);}
	.st62{fill:url(#SVGID_00000077322803926740658160000015927888576006865041_);}
	.st63{fill:url(#SVGID_00000035501568284423786320000010913625463913419421_);}
	.st64{fill:url(#SVGID_00000124154725912380978160000006209666028612501434_);}
	.st65{fill:url(#SVGID_00000180327033936090838560000013024103267449937583_);}
	.st66{fill:url(#SVGID_00000046301869458541793690000003561740240851609743_);}
	.st67{fill:url(#SVGID_00000144338541751415930540000007400303642188599189_);}
	.st68{fill:url(#SVGID_00000073702841882186431980000002506542533820644769_);}
	.st69{fill:url(#SVGID_00000027567542477248601280000003098794222806246830_);}
	.st70{fill:url(#SVGID_00000054244528292563122500000005374407801220251797_);}
	.st71{fill:url(#SVGID_00000011003798247534874360000006416035687686616992_);}
	.st72{fill:url(#SVGID_00000167367299289995319150000013695348022163116683_);}
	.st73{fill:url(#SVGID_00000029035087506877509740000004953704069950202021_);}
	.st74{fill:url(#SVGID_00000160905324336975690660000013617974707816202641_);}
	.st75{fill:url(#SVGID_00000165941660393210591740000003804348023582923161_);}
	.st76{fill:url(#SVGID_00000158013885391467008000000014104502067733748868_);}
	.st77{fill:url(#SVGID_00000144333428141223762050000015723317879337858481_);}
	.st78{fill:url(#SVGID_00000140728605627317020050000001615694060444085922_);}
	.st79{fill:url(#SVGID_00000157995542338249664220000012220230436661827988_);}
	.st80{fill:url(#SVGID_00000039103715943718777930000017893816121135482557_);}
	.st81{fill:url(#SVGID_00000131326749330498700020000009113552640691779004_);}
	.st82{fill:url(#SVGID_00000096768686990058130880000000671962550537095611_);}
	.st83{fill:url(#SVGID_00000005259461872584761520000011745184199968998548_);}
	.st84{fill:url(#SVGID_00000011015151003980445990000010695639877832017815_);}
	.st85{fill:url(#SVGID_00000058589079042640052870000010396961865255653545_);}
	.st86{fill:url(#SVGID_00000096771478308178044060000015449949958666717869_);}
	.st87{fill:url(#SVGID_00000029746090143373198760000008981656292360877204_);}
	.st88{fill:url(#SVGID_00000041988934304321585540000015357096478645313694_);}
	.st89{fill:url(#SVGID_00000021820378764710072010000012397378254308379538_);}
	.st90{fill:url(#SVGID_00000011719930530813472190000010043920733355242629_);}
	.st91{fill:url(#SVGID_00000049907491935974136270000005169443994067004037_);}
	.st92{fill:url(#SVGID_00000012445176568372348470000015705334675115928461_);}
	.st93{fill:url(#SVGID_00000068660048234509794360000006589456843174377637_);}
	.st94{fill:url(#SVGID_00000176042758336280991120000002392346772506711690_);}
	.st95{fill:url(#SVGID_00000127738175897479349450000013797738168580853655_);}
	.st96{fill:url(#SVGID_00000065045251142357364230000012701338605570434216_);}
	.st97{fill:url(#SVGID_00000165207004922766468800000014905456910687189895_);}
	.st98{fill:url(#SVGID_00000077291564926054990060000018242484174707933081_);}
	.st99{fill:url(#SVGID_00000034078428713671186880000006137911171126889128_);}
	.st100{fill:url(#SVGID_00000096766382040173116250000012226366993747770521_);}
	.st101{fill:url(#SVGID_00000137845059294264618060000005185402702642432923_);}
	.st102{fill:url(#SVGID_00000040534041706447278380000017889745975438987920_);}
	.st103{fill:url(#SVGID_00000111913260759833806300000017085101349019158966_);}
	.st104{fill:url(#SVGID_00000096045987477223421620000012593231129289876888_);}
	.st105{fill:url(#SVGID_00000042726716191771370550000001287540932597885845_);}
	.st106{fill:url(#SVGID_00000134249636315598145370000003918563622479766952_);}
	.st107{fill:url(#SVGID_00000111192879174900860210000014484622266782000782_);}
	.st108{fill:url(#SVGID_00000137835481161231413620000016902291328209425285_);}
	.st109{fill:url(#SVGID_00000030446333443361936970000012913801777284416171_);}
	.st110{fill:url(#SVGID_00000060714705541407788050000012969561906705203877_);}
	.st111{fill:url(#SVGID_00000088113373351034265930000002586701931494340501_);}
	.st112{fill:url(#SVGID_00000047749165023970015960000014972529486632118669_);}
	.st113{fill:url(#SVGID_00000022542488503340786860000005850977211689392062_);}
	.st114{fill:url(#SVGID_00000065785440325658124460000005776567414729868722_);}
	.st115{fill:url(#SVGID_00000070081352852252338470000008574091214446676669_);}
	.st116{fill:url(#SVGID_00000034064861346736768010000011482853469993826465_);}
	.st117{fill:url(#SVGID_00000157282906516088020490000013135375460122247048_);}
	.st118{fill:url(#SVGID_00000131358862684388136930000007618409854204827295_);}
	.st119{fill:url(#SVGID_00000113338624244453750620000005582112310915261611_);}
	.st120{fill:url(#SVGID_00000036964280428494621850000001609729755948088221_);}
	.st121{fill:url(#SVGID_00000034079575520792923030000012265143758522770068_);}
	.st122{fill:url(#SVGID_00000008145158106174073280000011060153657426639509_);}
	.st123{fill:url(#SVGID_00000151518657524769031890000005492474590545501102_);}
	.st124{fill:url(#SVGID_00000036232296400365756910000003695102274529522322_);}
	.st125{fill:url(#SVGID_00000101075347783716679780000014667220431355847357_);}
	.st126{fill:url(#SVGID_00000157282894943210506930000009446809246965816469_);}
	.st127{fill:url(#SVGID_00000171705776730107179900000004756811398181611704_);}
	.st128{fill:url(#SVGID_00000111903377390813342810000008627453191054948754_);}
	.st129{fill:url(#SVGID_00000135654161305133072320000010215946151568384393_);}
	.st130{fill:url(#SVGID_00000119101251537025113590000001563099323751686785_);}
	.st131{fill:url(#SVGID_00000110436506043413219690000008173973962381866646_);}
	.st132{fill:url(#SVGID_00000175288366479578822700000010775426099198266811_);}
	.st133{fill:url(#SVGID_00000096037754737294143760000009568079209257165959_);}
	.st134{fill:url(#SVGID_00000163754130121013014050000002852942810931333771_);}
	.st135{fill:url(#SVGID_00000157280038290962625420000013560016940315346324_);}
	.st136{fill:url(#SVGID_00000035497002963897225380000015491103208914166437_);}
	.st137{fill:url(#SVGID_00000157282840737455445520000005712459036417113500_);}
	.st138{fill:url(#SVGID_00000109752203772686106730000003480990284980151194_);}
	.st139{fill:url(#SVGID_00000023967015688993580840000013718975105063348883_);}
	.st140{fill:url(#SVGID_00000109028489071202922850000014214824548437462403_);}
	.st141{fill:url(#SVGID_00000051371341472904480560000014928884113569266365_);}
	.st142{fill:url(#SVGID_00000170978820480494109540000009531035866351622809_);}
	.st143{fill:url(#SVGID_00000058547551791877187150000014729176727186395811_);}
	.st144{fill:url(#SVGID_00000090268290745176754350000015737685297222406836_);}
	.st145{fill:url(#SVGID_00000029032561860271975480000006572594713252132537_);}
	.st146{fill:url(#SVGID_00000044144825171961595560000000264019268764722355_);}
	.st147{fill:url(#SVGID_00000002383136756482267600000012267984578346672519_);}
	.st148{fill:url(#SVGID_00000057828508335380206910000012189544541491773840_);}
	.st149{fill:url(#SVGID_00000004547450919455271280000009996241512083035535_);}
	.st150{fill:url(#SVGID_00000140715224037043490440000004730744749482176937_);}
	.st151{fill:url(#SVGID_00000046306413402513790190000016862479788030513594_);}
	.st152{fill:url(#SVGID_00000005950589690317556320000007227810126023339671_);}
	.st153{fill:url(#SVGID_00000010298170767706983300000013515265524648762528_);}
	.st154{fill:url(#SVGID_00000004542569990701021010000018219253675400299939_);}
	.st155{fill:url(#SVGID_00000094595102761766250710000013054053070040347022_);}
	.st156{fill:url(#SVGID_00000087412531994187034950000016376024291559634067_);}
	.st157{fill:url(#SVGID_00000039848842008215983180000017456730650893671814_);}
	.st158{fill:url(#SVGID_00000140012991968732147070000008971710368152396982_);}
	.st159{fill:url(#SVGID_00000066493160276762291300000009313635614339273116_);}
	.st160{fill:url(#SVGID_00000104680284852870844750000016096958983739619515_);}
	.st161{fill:url(#SVGID_00000072259071726233785760000018281356625258220691_);}
	.st162{fill:url(#SVGID_00000120560397732290830210000005934845641087986836_);}
	.st163{fill:url(#SVGID_00000163765664883560558590000013997568168397735071_);}
	.st164{fill:url(#SVGID_00000146499949875889981140000003777182189121173406_);}
	.st165{fill:url(#SVGID_00000153672906251299590610000006437388118997618103_);}
	.st166{fill:url(#SVGID_00000133519803904255285290000000113356164271283607_);}
	.st167{fill:url(#SVGID_00000021093393073646608110000002407806798911868297_);}
	.st168{fill:url(#SVGID_00000160159563027885967330000017354520842253181359_);}
	.st169{fill:url(#SVGID_00000129175010655880370530000009107776174234680505_);}
	.st170{fill:url(#SVGID_00000161611006060453004810000009887747505490986897_);}
	.st171{fill:url(#SVGID_00000034052242705669539540000010781553891058143628_);}
	.st172{fill:url(#SVGID_00000134251529050756473920000011723464532583918010_);}
	.st173{fill:url(#SVGID_00000083791077966007084410000011254857242209473678_);}
	.st174{fill:url(#SVGID_00000070110399983273512790000001306549367879418800_);}
	.st175{fill:url(#SVGID_00000030473400906853493570000014983598009332538296_);}
	.st176{fill:url(#SVGID_00000036237959847605600900000013462239002047329211_);}
	.st177{fill:url(#SVGID_00000154393246995426268330000005099569913532458630_);}
	.st178{fill:url(#SVGID_00000091728906381895311190000002875668185220896682_);}
	.st179{fill:url(#SVGID_00000134237129326594373100000007895636981132409773_);}
	.st180{fill:url(#SVGID_00000008116883166939206110000008136508567782358954_);}
	.st181{fill:url(#SVGID_00000011019166919129746320000018095715197946744508_);}
	.st182{fill:url(#SVGID_00000034795131373377222120000015332214431549934736_);}
	.st183{fill:url(#SVGID_00000127724537524797078420000013541362307504130455_);}
	.st184{fill:url(#SVGID_00000072992076857239973030000018266133545933618613_);}
	.st185{fill:url(#SVGID_00000100347875387693691310000008242783400127389350_);}
	.st186{fill:url(#SVGID_00000140697421440840403830000010021264702672133802_);}
	.st187{fill:#F2F2F2;}
</style>
<g>
	<g>
		<path d="M548.62,878.77c0-88.36-71.88-160.24-160.24-160.24c-88.36,0-160.24,71.89-160.24,160.24
			c0,88.36,71.88,160.24,160.24,160.24S548.62,967.12,548.62,878.77z M510.12,978.64l-2.69-2.21L510.12,978.64
			c-3.26,3.97-6.76,7.83-10.39,11.46l-2.13,2.13l-2.61-1.96l-8.66-8.65c-2.37,2.28-4.42,4.07-6.93,6.16
			c-21.98,18.37-48.63,29.54-77.07,32.31l-0.67-6.92c27.04-2.63,52.38-13.26,73.28-30.73c2.92-2.44,5.2-4.44,8.15-7.39l3.27-3.25
			l10.88,10.89c2.61-2.73,5.12-5.57,7.51-8.47l0,0c18.97-23.1,30.53-50.99,33.42-80.67l6.92,0.68
			C542.06,925.29,529.97,954.47,510.12,978.64z M388.38,1011.32c-73.2,0-132.55-59.34-132.55-132.55
			c0-73.2,59.34-132.55,132.55-132.55c73.2,0,132.55,59.34,132.55,132.55C520.93,951.97,461.59,1011.32,388.38,1011.32z
			 M510.19,778.98c22.99,28.03,35.65,63.47,35.65,99.78v3.48h-15.49c-0.78,31.57-12.13,62.2-32.18,86.6l-5.38-4.42
			c19.76-24.05,30.64-54.48,30.64-85.66v-3.48h15.41c-0.78-33.49-12.79-66-34.03-91.89L510.19,778.98z M402.32,721.93
			c36.69,3.22,71.28,19.38,97.4,45.5l2.46,2.46l-10.65,10.65c21.41,22.41,34.91,52,38.13,83.71l-6.92,0.7
			c-3.18-31.3-16.87-60.41-38.56-81.97l-2.48-2.46l10.61-10.61c-24.65-23.54-56.69-38.08-90.6-41.05L402.32,721.93z M372.79,722.08
			c5.18-0.51,10.42-0.77,15.59-0.77h2.72l0.76,3.05l0,12.44c2.86,0.07,5.74,0.23,8.61,0.47c28.7,2.42,55.66,13.37,77.96,31.68
			l-4.41,5.38c-21.2-17.41-46.84-27.82-74.13-30.12c-3.84-0.32-7.71-0.49-11.5-0.49h-3.48v-15.41c-3.81,0.09-7.64,0.32-11.44,0.69
			c-34.45,3.39-66.95,18.79-91.52,43.36l-4.92-4.92C302.74,741.74,336.74,725.62,372.79,722.08z M256.98,792
			c2.99-4.52,6.24-8.93,9.68-13.11l2.2-2.68l11.99,9.79c2.05-2.37,4.03-4.5,6.4-6.88l0.71-0.77c23.17-23.18,53.84-37.7,86.34-40.9
			l0.68,6.92c-30.88,3.04-60.01,16.83-82.04,38.84l-0.71,0.77c-3.07,3.08-5.46,5.71-8.23,9.09l-2.2,2.68l-11.93-9.74
			c-2.49,3.18-4.86,6.47-7.08,9.83c-13.42,20.28-21.77,43.77-24.16,67.93l-6.92-0.68C234.2,837.8,242.94,813.22,256.98,792z
			 M266.04,977.9c-11.13-13.73-19.81-29.08-25.79-45.63c-6.19-17.13-9.32-35.13-9.32-53.5v-0.82l1.33-2.66l2.15,0l12.01,0
			c0.65-26.83,8.78-52.69,23.62-75.02l5.8,3.85c-14.72,22.15-22.5,47.96-22.5,74.65v3.48l-15.41,0
			c0.77,33.2,12.61,65.49,33.52,91.27L266.04,977.9z M372.93,1035.48c-31.06-3.03-60.25-15.12-84.42-34.98l0,0
			c-3.97-3.26-7.83-6.76-11.46-10.39l-0.88-0.88l-0.29-2.88l9.66-9.66c-21.8-22.9-35.43-52.59-38.49-83.99l6.92-0.68
			c3.02,30.95,16.84,60.16,38.91,82.23l2.46,2.46l-10.89,10.89c2.73,2.61,5.57,5.12,8.47,7.51l-2.21,2.69l2.21-2.69
			c23.1,18.98,51,30.54,80.68,33.43L372.93,1035.48z M384.91,1033.57l0-0.83l0-12.01c-31.57-0.78-62.2-12.14-86.6-32.18l4.42-5.38
			c24.05,19.76,54.48,30.64,85.66,30.64h3.48l0,15.41c33.94-0.79,66.8-13.09,92.87-34.84l4.46,5.34
			c-28.21,23.53-64.01,36.49-100.8,36.49h-2.15L384.91,1033.57z"/>
		<path d="M480.49,786.66c-24.6-24.6-57.31-38.15-92.11-38.15s-67.5,13.55-92.11,38.15c-24.6,24.6-38.15,57.31-38.15,92.11
			c0,34.79,13.55,67.5,38.15,92.11s57.31,38.15,92.11,38.15c34.79,0,67.5-13.55,92.11-38.15c24.6-24.6,38.15-57.31,38.15-92.11
			C518.64,843.97,505.09,811.26,480.49,786.66z M480.43,965.69c-5.38,5.38-11.14,10.24-17.24,14.54l-72.3-145.68l-74.03,148.67
			c-7.73-5-14.99-10.86-21.65-17.53c-1.85-1.85-3.64-3.74-5.36-5.68l79.56-155.6l-4.53-9.26l16.55-30.93h9.46l98.35,191.76
			C486.48,959.33,483.54,962.58,480.43,965.69z"/>
	</g>
	<path d="M508.46,352.87l-75.41-152.14l-76.29,152.14h-88.71l116.66-220l-10.2-20.85l37.26-69.64h21.29l163.23,310.49H508.46z"/>
	<path d="M649.29,350.49V111.71H544.17L577.88,40H834.7v71.71H730.02V260l18.18,18.19v72.3H649.29z"/>
	<path d="M806.15,611.16l-5.97-5.69H683.03V364.61h-98.48v71.87l18.64,18.62V675.1h222.02v-45.32L806.15,611.16z"/>
	<polygon points="456.82,367.95 456.82,484.17 366.11,483.73 366.11,367.95 266.75,367.95 266.75,439.81 285.83,458.44 
		285.83,678.45 366.11,678.45 366.11,553.48 456.82,553.81 456.82,678.45 536.66,678.45 536.66,367.95 	"/>
	<path d="M576.4,991.21l43.47-62.54c22.62,22.18,58.55,40.81,102.02,40.81c27.94,0,44.8-8.87,44.8-24.4
		c0-40.81-179.64-6.65-179.64-126.41c0-51.9,45.24-98.47,126.41-98.47c17.3,0,33.71,1.78,49.23,4.88l22.62-7.54l66.53,33.27
		l-54.56,72.3c-26.61-21.73-61.21-31.94-92.71-31.94c-23.51,0-34.15,7.54-34.15,21.29c0,38.15,179.64,9.76,179.64,124.64
		c0,62.1-47.02,102.91-132.62,102.91C652.7,1040,608.34,1020.48,576.4,991.21z"/>
</g>
</svg>
