<?xml version="1.0" encoding="utf-8"?>
<!-- Generator: Adobe Illustrator 26.0.0, SVG Export Plug-In . SVG Version: 6.00 Build 0)  -->
<svg version="1.1" id="Camada_1" xmlns="http://www.w3.org/2000/svg" xmlns:xlink="http://www.w3.org/1999/xlink" x="0px" y="0px"
	 viewBox="0 0 1080 1080" style="enable-background:new 0 0 1080 1080;" xml:space="preserve">
<style type="text/css">
	.st0{fill:url(#SVGID_1_);}
	.st1{fill:url(#SVGID_00000088822466338940118200000006829463759328545959_);}
	.st2{fill:url(#SVGID_00000141449932172160122250000014070777869470004373_);}
	.st3{fill:url(#SVGID_00000145033731702762060040000012399079890199112855_);}
	.st4{fill:url(#SVGID_00000090973290202057411250000011659110411097785524_);}
	.st5{fill:url(#SVGID_00000138571120260608363760000014355966984273619855_);}
	.st6{fill:url(#SVGID_00000128480119830983947850000007944698227601269122_);}
	.st7{fill:url(#SVGID_00000059989887948286362380000005440399358094060707_);}
	.st8{fill:url(#SVGID_00000150784295650918847020000000765664669306688701_);}
	.st9{fill:url(#SVGID_00000109003662417176637130000009531004190338823608_);}
	.st10{fill:url(#SVGID_00000015324467129866036010000013215790387863038903_);}
	.st11{fill:url(#SVGID_00000111877493755992815360000004773778038063439496_);}
	.st12{fill:url(#SVGID_00000121269325733928598560000010869927889273475001_);}
	.st13{fill:url(#SVGID_00000060725056474085192930000017018701662690326697_);}
	.st14{fill:url(#SVGID_00000149345927139798481560000003752826977846700181_);}
	.st15{fill:url(#SVGID_00000146470156316535772260000018206183459010165943_);}
	.st16{fill:url(#SVGID_00000005960152149862089230000013522329268407376267_);}
	.st17{fill:url(#SVGID_00000176008103794731691420000017334585792009133966_);}
	.st18{fill:url(#SVGID_00000067201901492560266860000015463033806881069476_);}
	.st19{fill:url(#SVGID_00000149373899118226296480000008547644615385638276_);}
	.st20{fill:url(#SVGID_00000024681313587520483240000003276973930386182578_);}
	.st21{fill:url(#SVGID_00000181059989151468352580000016962063657669030818_);}
	.st22{fill:url(#SVGID_00000099643122177775143270000013566597451896780955_);}
	.st23{fill:url(#SVGID_00000132802540988635554180000012012730736325304199_);}
	.st24{fill:url(#SVGID_00000128460916080821755230000003047527666359858846_);}
	.st25{fill:url(#SVGID_00000001659702378446748480000017390781683856752800_);}
	.st26{fill:url(#SVGID_00000168836303896563859350000001744631203972050848_);}
	.st27{fill:url(#SVGID_00000027584017685626067320000015577781993865266050_);}
	.st28{fill:url(#SVGID_00000119821121598883378810000009468214945229511850_);}
	.st29{fill:url(#SVGID_00000028302610450060285480000011725900604120294793_);}
	.st30{fill:url(#SVGID_00000067947431797922834030000013571910925123071158_);}
	.st31{fill:url(#SVGID_00000183217844880525444350000013979715043335743123_);}
	.st32{fill:url(#SVGID_00000085247787720222381160000018256061361529264003_);}
	.st33{fill:url(#SVGID_00000076583276866371756560000015682640597080412310_);}
	.st34{fill:url(#SVGID_00000084496339304430342280000011606004024004744577_);}
	.st35{fill:url(#SVGID_00000084509611378087476510000013750991486301142425_);}
	.st36{fill:url(#SVGID_00000146501212332256215600000006339410539944664485_);}
	.st37{fill:url(#SVGID_00000165193439435200669570000002249377812010358425_);}
	.st38{fill:url(#SVGID_00000003801230699471356330000012833609831571991704_);}
	.st39{fill:url(#SVGID_00000136369107258237294120000015958376134309724092_);}
	.st40{fill:url(#SVGID_00000134961352721809599920000004511439889159669121_);}
	.st41{fill:url(#SVGID_00000150090637580276784860000014238484684521423024_);}
	.st42{fill:url(#SVGID_00000101793001213208234070000016959981191141393853_);}
	.st43{fill:url(#SVGID_00000018957079508046647400000004961347251199180460_);}
	.st44{fill:url(#SVGID_00000153674926926949763220000017508626042123507089_);}
	.st45{fill:url(#SVGID_00000052794830518938449860000010029198247397471138_);}
	.st46{fill:url(#SVGID_00000181047554378160405430000009701095232359483780_);}
	.st47{fill:url(#SVGID_00000178205307492343602350000012934078287375937935_);}
	.st48{fill:url(#SVGID_00000172431937258713578520000015296308615057357987_);}
	.st49{fill:url(#SVGID_00000129885432691172371820000006150826972205620899_);}
	.st50{fill:url(#SVGID_00000011740994832768169480000009355264009109896597_);}
	.st51{fill:url(#SVGID_00000001640357556180271540000011852536855020834476_);}
	.st52{fill:url(#SVGID_00000118360456141673975960000003692157836636987534_);}
	.st53{fill:url(#SVGID_00000017509377772558399170000009690653287557732992_);}
	.st54{fill:url(#SVGID_00000163762480310006436060000010882119087371496624_);}
	.st55{fill:url(#SVGID_00000011740301872178754380000011193346424470403493_);}
	.st56{fill:url(#SVGID_00000060017346508623537380000011715856826389680004_);}
	.st57{fill:url(#SVGID_00000126298645206082701280000007685383747050821292_);}
	.st58{fill:url(#SVGID_00000064330588545020644820000007029716601381594286_);}
	.st59{fill:url(#SVGID_00000160910106126195405140000001111746134756602782_);}
	.st60{fill:url(#SVGID_00000168811486621914417660000008829028150632835468_);}
	.st61{fill:url(#SVGID_00000161622097073678788800000004711121710803927719_);}
	.st62{fill:url(#SVGID_00000170251353669538073770000016495452800653873287_);}
	.st63{fill:url(#SVGID_00000109006029262091558200000018203942627187374747_);}
	.st64{fill:url(#SVGID_00000092457637505174595840000005060915889795688876_);}
	.st65{fill:url(#SVGID_00000157992776520887407180000011941264943897126589_);}
	.st66{fill:url(#SVGID_00000111167647766439601970000003769296063664351415_);}
	.st67{fill:url(#SVGID_00000035513258410518111620000013971947129804108417_);}
	.st68{fill:url(#SVGID_00000065771931296606624240000009133057583435648164_);}
	.st69{fill:url(#SVGID_00000023998767414984177180000016743143237132778120_);}
	.st70{fill:url(#SVGID_00000076588894875955338250000013922709333182786186_);}
	.st71{fill:url(#SVGID_00000119087601221592399930000018106187680328577974_);}
	.st72{fill:url(#SVGID_00000003792344171927344810000003929374341403704705_);}
	.st73{fill:url(#SVGID_00000022543762240096931360000000242520704735304605_);}
	.st74{fill:url(#SVGID_00000138547315382817713100000007040742578034218914_);}
	.st75{fill:url(#SVGID_00000171716723309202112010000009003196485383891338_);}
	.st76{fill:url(#SVGID_00000054229731222567388620000002171193673822399117_);}
	.st77{fill:url(#SVGID_00000066502101427549258210000017765877150422110904_);}
	.st78{fill:url(#SVGID_00000161624044329800242810000000522445308748192924_);}
	.st79{fill:url(#SVGID_00000007407680480592332400000017952258634039199889_);}
	.st80{fill:url(#SVGID_00000175311447921244376760000015100664416578878387_);}
	.st81{fill:url(#SVGID_00000079464891655568302130000004779099947390328465_);}
	.st82{fill:url(#SVGID_00000060752252623208561210000001079622237310044842_);}
	.st83{fill:url(#SVGID_00000134956275549326619960000014342824862251388580_);}
	.st84{fill:url(#SVGID_00000013164494766747798520000004973703497691645097_);}
	.st85{fill:url(#SVGID_00000090994855155215896210000010867574823648699817_);}
	.st86{fill:url(#SVGID_00000114052937887173529510000004003074232639208614_);}
	.st87{fill:url(#SVGID_00000152236149105236757790000014579871145396008633_);}
	.st88{fill:url(#SVGID_00000050655350006564489090000002435897900762731695_);}
	.st89{fill:url(#SVGID_00000118361747426306589720000015600639540903117204_);}
	.st90{fill:url(#SVGID_00000078045346464612408900000001674868063469284262_);}
	.st91{fill:url(#SVGID_00000021089630848915210550000012766628840706747816_);}
	.st92{fill:url(#SVGID_00000167376101914666410500000000313644458624173716_);}
	.st93{fill:url(#SVGID_00000102538292644852092050000017505346652516323514_);}
	.st94{fill:url(#SVGID_00000040560380489998727140000009137061372024945819_);}
	.st95{fill:url(#SVGID_00000096057102427362344870000017543513220525161907_);}
	.st96{fill:url(#SVGID_00000073722645902519819790000007345139066975540391_);}
	.st97{fill:url(#SVGID_00000163776427282912189070000017989181743258582430_);}
	.st98{fill:url(#SVGID_00000036209551532708523280000003021874108447793298_);}
	.st99{fill:url(#SVGID_00000017477921545734894150000008368868608512398249_);}
	.st100{fill:url(#SVGID_00000041980200900722098990000012501557841548734130_);}
	.st101{fill:url(#SVGID_00000145757351304148366090000012009068627276151705_);}
	.st102{fill:url(#SVGID_00000001625767090239061780000000533067337642585786_);}
	.st103{fill:url(#SVGID_00000095301982243741643750000018430474869332582823_);}
	.st104{fill:url(#SVGID_00000053542990036847882800000010865138903209864349_);}
	.st105{fill:url(#SVGID_00000147210018050641953890000007157023791705143707_);}
	.st106{fill:url(#SVGID_00000132080601693871185560000012904646048302560896_);}
	.st107{fill:url(#SVGID_00000085972269942789321020000011384817666974775964_);}
	.st108{fill:url(#SVGID_00000132053882636644044690000000387455639100065182_);}
	.st109{fill:url(#SVGID_00000058549518142665745690000010302350580840917636_);}
	.st110{fill:url(#SVGID_00000182488807944944082410000017244162888032352664_);}
	.st111{fill:url(#SVGID_00000120556490146583259550000008741182654557352127_);}
	.st112{fill:url(#SVGID_00000131335090908250178770000001870805614740541100_);}
	.st113{fill:url(#SVGID_00000074412721197503282220000016936476327519552418_);}
	.st114{fill:url(#SVGID_00000048502460546113697310000001684803822171512718_);}
	.st115{fill:url(#SVGID_00000031890113332829822490000002883471381058372237_);}
	.st116{fill:url(#SVGID_00000104681373388665495220000013785748412163625385_);}
	.st117{fill:url(#SVGID_00000181780235898766447010000012214336649652190363_);}
	.st118{fill:url(#SVGID_00000173135691612386931440000000519323376565382787_);}
	.st119{fill:url(#SVGID_00000007394154013518228050000016309287158642175118_);}
	.st120{fill:url(#SVGID_00000182503851642412427370000001973088483953528511_);}
	.st121{fill:url(#SVGID_00000134929957520895764320000009749787702535532942_);}
	.st122{fill:url(#SVGID_00000131354219893525244670000005496004097223410614_);}
	.st123{fill:url(#SVGID_00000057129777615940928750000010643565858167955123_);}
	.st124{fill:url(#SVGID_00000147933728485662640550000018263578548706082495_);}
	.st125{fill:url(#SVGID_00000080905385953513626120000001632597177417901456_);}
	.st126{fill:url(#SVGID_00000050642335410409981300000007531290929861405624_);}
	.st127{fill:url(#SVGID_00000170983065387009356270000012443644378187889321_);}
	.st128{fill:url(#SVGID_00000008837627495133464630000003352737531052728204_);}
	.st129{fill:url(#SVGID_00000065056734431088706740000001950544388372002952_);}
	.st130{fill:url(#SVGID_00000083060885830460058260000008117985617573727114_);}
	.st131{fill:url(#SVGID_00000169525217962503342520000008731770082177655457_);}
	.st132{fill:url(#SVGID_00000127764329217243793820000000184265195573143184_);}
	.st133{fill:url(#SVGID_00000157274154197754017430000005017163817622312585_);}
	.st134{fill:url(#SVGID_00000096053086453446353400000007399500169273638531_);}
	.st135{fill:url(#SVGID_00000179642274599119640540000005866988506929269895_);}
	.st136{fill:url(#SVGID_00000133519942575371470090000000757870566686157731_);}
	.st137{fill:url(#SVGID_00000042729654845815195220000000357365707809568688_);}
	.st138{fill:url(#SVGID_00000140000190784069425870000008105927740784053926_);}
	.st139{fill:url(#SVGID_00000183213016310388242860000003261471288518901379_);}
	.st140{fill:url(#SVGID_00000172419166359398284080000010076072365403737746_);}
	.st141{fill:url(#SVGID_00000028305726756811838070000012596665177931695529_);}
	.st142{fill:url(#SVGID_00000032609095683228832990000011021823666153441201_);}
	.st143{fill:url(#SVGID_00000137841701539471003330000014206629508787402126_);}
	.st144{fill:url(#SVGID_00000090292704910252698130000012480512981754149281_);}
	.st145{fill:url(#SVGID_00000001653868145780987920000012768388340489016457_);}
	.st146{fill:url(#SVGID_00000157299945584559890540000001504136661128795036_);}
	.st147{fill:url(#SVGID_00000098184443879062391900000008785266889985987239_);}
	.st148{fill:url(#SVGID_00000150103193747513104720000010487580083075968682_);}
	.st149{fill:url(#SVGID_00000025419858371939173660000007226298797217725832_);}
	.st150{fill:url(#SVGID_00000143619425404790536740000017941166612796463030_);}
	.st151{fill:url(#SVGID_00000124124336543405942470000003130652247444054205_);}
	.st152{fill:url(#SVGID_00000008150119021888004330000006003332456378236305_);}
	.st153{fill:url(#SVGID_00000104673553568616066080000000413222214247264641_);}
	.st154{fill:url(#SVGID_00000015349468940069313050000001461610368611468449_);}
	.st155{fill:url(#SVGID_00000067939108000861920360000004845060438892609153_);}
	.st156{fill:url(#SVGID_00000075874280698946281570000010788828080369938062_);}
	.st157{fill:url(#SVGID_00000060028854962895013210000010015301631762434471_);}
	.st158{fill:url(#SVGID_00000145051876009419934830000002000735972528516512_);}
	.st159{fill:url(#SVGID_00000059279236584860107530000015821726108203739790_);}
	.st160{fill:url(#SVGID_00000124842566379497703560000003585172325456494474_);}
	.st161{fill:url(#SVGID_00000170964556353769206930000014231626573472395701_);}
	.st162{fill:url(#SVGID_00000142159550206986452880000000963081928187320989_);}
	.st163{fill:url(#SVGID_00000127725894808244949720000001291877977542129565_);}
	.st164{fill:url(#SVGID_00000053545620116015737130000001377538465291442329_);}
	.st165{fill:url(#SVGID_00000173134750403449970080000013980090798026635409_);}
	.st166{fill:url(#SVGID_00000053511271106264983910000012997561624836128398_);}
	.st167{fill:url(#SVGID_00000037652340311556113140000013766446879657324946_);}
	.st168{fill:url(#SVGID_00000067200494753679511360000010068641046480554936_);}
	.st169{fill:url(#SVGID_00000173131678837753766360000006592126920572786619_);}
	.st170{fill:url(#SVGID_00000161631960622706434770000010733973027260154240_);}
	.st171{fill:url(#SVGID_00000092452160774391105540000001551237789326478489_);}
	.st172{fill:url(#SVGID_00000057858446893115310350000005630093271889280909_);}
	.st173{fill:url(#SVGID_00000106863164851391545690000017715145043798207112_);}
	.st174{fill:url(#SVGID_00000146476017622855710130000012357341654323452341_);}
	.st175{fill:url(#SVGID_00000138561936198670354500000008647489098533767562_);}
	.st176{fill:url(#SVGID_00000065049214983923536280000012609198339515318912_);}
	.st177{fill:url(#SVGID_00000058547308480936834340000003613989404182905255_);}
	.st178{fill:url(#SVGID_00000010279471062204753970000007042458391597948832_);}
	.st179{fill:url(#SVGID_00000162337590443107077890000013433838895157247387_);}
	.st180{fill:url(#SVGID_00000078041142934472996120000010509812137012238266_);}
	.st181{fill:url(#SVGID_00000025424919664342885810000007611039526182755768_);}
	.st182{fill:url(#SVGID_00000179623032965925955690000016877652453637384844_);}
	.st183{fill:url(#SVGID_00000163071547946122143900000014230219391343436726_);}
	.st184{fill:url(#SVGID_00000172429788496940718780000002967047210670163852_);}
	.st185{fill:url(#SVGID_00000165920244583818936000000012805561001141398960_);}
	.st186{fill:url(#SVGID_00000031167927887979597170000001242251814081474698_);}
	.st187{fill:#F2F2F2;}
</style>
<g>
	<path d="M181.25,817.74l-44.3-89.39l-44.82,89.39H40l68.54-129.26l-5.99-12.25l21.89-40.92h12.51l95.91,182.43H181.25z"/>
	<path d="M260.61,816.35V676.05h-61.76l19.81-42.14h150.9v42.14h-61.5v87.13l10.68,10.69v42.48H260.61z"/>
	<path d="M676.59,778.21l-3.51-3.34h-68.83V633.35h-57.86v42.23l10.95,10.94v129.26h130.45v-26.63L676.59,778.21z"/>
	<polygon points="491.29,635.31 491.29,703.59 437.99,703.34 437.99,635.31 379.61,635.31 379.61,677.53 390.82,688.48 
		390.82,817.74 437.99,817.74 437.99,744.32 491.29,744.51 491.29,817.74 538.2,817.74 538.2,635.31 	"/>
	<path d="M878.16,791.68l25.54-36.75c13.29,13.03,34.4,23.98,59.94,23.98c16.42,0,26.32-5.21,26.32-14.33
		c0-23.98-105.55-3.91-105.55-74.27c0-30.49,26.58-57.86,74.27-57.86c10.16,0,19.81,1.04,28.93,2.87l13.29-4.43l39.09,19.55
		l-32.06,42.48c-15.64-12.77-35.96-18.76-54.47-18.76c-13.81,0-20.07,4.43-20.07,12.51c0,22.41,105.55,5.73,105.55,73.23
		c0,36.49-27.62,60.46-77.92,60.46C922.98,820.35,896.92,808.88,878.16,791.68z"/>
	<g>
		<path d="M544.91,259.95c0.49-0.03,0.98-0.08,1.48-0.11C545.89,259.87,545.4,259.92,544.91,259.95z"/>
		<path d="M561.62,259.85c0.49,0.02,0.97,0.08,1.46,0.11C562.59,259.92,562.11,259.87,561.62,259.85z"/>
		<path d="M569.19,260.42c0.38,0.04,0.76,0.1,1.15,0.14C569.95,260.52,569.58,260.46,569.19,260.42z"/>
		<path d="M448.27,303.45c1.72-1.72,3.47-3.38,5.25-5C451.73,300.07,449.98,301.74,448.27,303.45z"/>
		<path d="M458.43,294.2c0.16-0.13,0.32-0.28,0.48-0.41C458.74,293.92,458.59,294.06,458.43,294.2z"/>
		<path d="M537.65,260.56c0.39-0.04,0.77-0.1,1.16-0.14C538.42,260.46,538.04,260.52,537.65,260.56z"/>
		<path d="M530.79,261.45c0.16-0.03,0.33-0.06,0.49-0.08C531.12,261.39,530.96,261.43,530.79,261.45z"/>
		<path d="M703.33,416.78c-0.03,0.56-0.09,1.1-0.12,1.66C703.25,417.89,703.31,417.34,703.33,416.78z"/>
		<path d="M576.72,261.37c0.16,0.02,0.31,0.06,0.47,0.08C577.03,261.43,576.88,261.39,576.72,261.37z"/>
		<path d="M443.27,308.7c1.62-1.78,3.28-3.53,5-5.25C446.56,305.16,444.89,306.91,443.27,308.7z"/>
		<path d="M702.76,424.36c-0.04,0.43-0.11,0.85-0.16,1.28C702.65,425.21,702.72,424.79,702.76,424.36z"/>
		<path d="M701.81,431.89c-0.03,0.19-0.07,0.37-0.1,0.56C701.74,432.26,701.78,432.08,701.81,431.89z"/>
		<path d="M702.61,392.72c0.05,0.43,0.11,0.85,0.16,1.28C702.72,393.57,702.65,393.15,702.61,392.72z"/>
		<path d="M649.1,293.78c0.18,0.15,0.35,0.3,0.52,0.45C649.44,294.09,649.27,293.93,649.1,293.78z"/>
		<path d="M668.91,313.52c0.16,0.19,0.33,0.37,0.49,0.56C669.24,313.89,669.07,313.71,668.91,313.52z"/>
		<path d="M703.21,399.91c0.03,0.55,0.09,1.1,0.12,1.66C703.31,401.02,703.25,400.47,703.21,399.91z"/>
		<path d="M438.6,314.09c0.16-0.19,0.33-0.38,0.49-0.57C438.94,313.71,438.76,313.89,438.6,314.09z"/>
		<path d="M447.97,514.59c-1.61-1.61-3.17-3.26-4.7-4.93C444.8,511.34,446.37,512.98,447.97,514.59z"/>
		<path d="M439,504.73c-0.13-0.15-0.26-0.3-0.39-0.45C438.73,504.43,438.87,504.57,439,504.73z"/>
		<path d="M458.9,524.57c-0.14-0.11-0.27-0.24-0.41-0.35C458.63,524.33,458.76,524.46,458.9,524.57z"/>
		<path d="M546.39,558.51c-0.5-0.02-0.99-0.08-1.49-0.11C545.39,558.43,545.89,558.49,546.39,558.51z"/>
		<path d="M538.81,557.94c-0.39-0.04-0.78-0.1-1.17-0.14C538.04,557.84,538.42,557.9,538.81,557.94z"/>
		<path d="M531.28,556.99c-0.16-0.02-0.32-0.06-0.48-0.08C530.96,556.93,531.12,556.96,531.28,556.99z"/>
		<path d="M453.52,519.91c-1.66-1.51-3.29-3.07-4.89-4.66C450.22,516.83,451.85,518.39,453.52,519.91z"/>
		<path d="M405.24,394c0.04-0.43,0.11-0.86,0.16-1.29C405.35,393.14,405.28,393.57,405.24,394z"/>
		<path d="M406.29,432.45c-0.03-0.19-0.07-0.38-0.1-0.57C406.22,432.08,406.26,432.26,406.29,432.45z"/>
		<path d="M404.67,401.57c0.03-0.56,0.09-1.11,0.12-1.67C404.76,400.46,404.7,401.01,404.67,401.57z"/>
		<path d="M406.19,386.47c0.03-0.19,0.07-0.39,0.1-0.58C406.26,386.08,406.22,386.28,406.19,386.47z"/>
		<path d="M405.4,425.64c-0.05-0.43-0.11-0.86-0.16-1.29C405.28,424.79,405.35,425.21,405.4,425.64z"/>
		<path d="M404.79,418.47c-0.03-0.56-0.1-1.12-0.12-1.69C404.7,417.35,404.76,417.9,404.79,418.47z"/>
		<path d="M701.71,385.91c0.03,0.19,0.07,0.37,0.1,0.56C701.78,386.28,701.74,386.1,701.71,385.91z"/>
		<path d="M577.19,556.91c-0.16,0.02-0.31,0.06-0.47,0.08C576.88,556.96,577.03,556.93,577.19,556.91z"/>
		<path d="M664.73,509.66c-1.45,1.59-2.95,3.16-4.47,4.7C661.77,512.82,663.27,511.26,664.73,509.66z"/>
		<path d="M649.45,524.27c-0.12,0.1-0.23,0.2-0.35,0.3C649.22,524.47,649.33,524.37,649.45,524.27z"/>
		<path d="M570.35,557.8c-0.39,0.04-0.77,0.1-1.16,0.14C569.58,557.9,569.96,557.84,570.35,557.8z"/>
		<path d="M659.16,515.45c-1.53,1.52-3.09,3.01-4.67,4.45C656.08,518.46,657.63,516.97,659.16,515.45z"/>
		<path d="M664.73,308.7c-3.25-3.58-6.67-7-10.25-10.25c1.78,1.62,3.53,3.29,5.25,5C661.45,305.16,663.11,306.92,664.73,308.7z"/>
		<path d="M700.35,409.18c0-80.7-65.65-146.35-146.35-146.35c-80.7,0-146.35,65.65-146.35,146.35c0,80.7,65.65,146.35,146.35,146.35
			S700.35,489.87,700.35,409.18z M665.18,500.4l-2.46-2.02L665.18,500.4c-2.98,3.63-6.17,7.15-9.49,10.47l-1.95,1.95l-2.39-1.79
			l-7.91-7.9c-2.16,2.09-4.04,3.72-6.33,5.63c-20.08,16.78-44.41,26.98-70.39,29.51l-0.62-6.32c24.7-2.41,47.84-12.11,66.93-28.06
			c2.67-2.23,4.74-4.05,7.44-6.75l2.99-2.97l9.94,9.94c2.38-2.49,4.68-5.08,6.86-7.74l0,0c17.33-21.1,27.88-46.57,30.53-73.67
			l6.32,0.62C694.36,451.66,683.31,478.32,665.18,500.4z M554,530.23c-66.86,0-121.06-54.2-121.06-121.06
			c0-66.86,54.2-121.06,121.06-121.06c66.86,0,121.06,54.2,121.06,121.06C675.06,476.04,620.86,530.23,554,530.23z M665.25,318.04
			c21,25.6,32.56,57.97,32.56,91.13v3.18h-14.15c-0.71,28.83-11.08,56.81-29.39,79.09l-4.91-4.03
			c18.04-21.97,27.98-49.75,27.98-78.23V406h14.07c-0.71-30.59-11.68-60.28-31.08-83.93L665.25,318.04z M566.73,265.94
			c33.51,2.94,65.1,17.7,88.96,41.55l2.25,2.25l-9.73,9.73c19.55,20.47,31.88,47.49,34.83,76.45l-6.32,0.64
			c-2.9-28.59-15.41-55.18-35.21-74.86l-2.26-2.25l9.69-9.69c-22.52-21.49-51.78-34.78-82.75-37.5L566.73,265.94z M539.76,266.07
			c4.73-0.47,9.52-0.7,14.24-0.7h2.48l0.7,2.79l0,11.36c2.61,0.07,5.24,0.21,7.86,0.43c26.21,2.21,50.83,12.21,71.2,28.93
			l-4.03,4.91c-19.37-15.9-42.78-25.41-67.7-27.51c-3.51-0.3-7.04-0.45-10.51-0.45h-3.18v-14.07c-3.48,0.08-6.98,0.29-10.44,0.63
			c-31.46,3.09-61.14,17.16-83.58,39.61l-4.49-4.49C475.78,284.03,506.84,269.31,539.76,266.07z M433.99,329.93
			c2.73-4.12,5.7-8.15,8.84-11.97l2.01-2.45l10.95,8.94c1.87-2.17,3.68-4.11,5.85-6.28l0.65-0.7
			c21.17-21.17,49.17-34.43,78.85-37.35l0.62,6.32c-28.2,2.78-54.81,15.38-74.93,35.47l-0.64,0.7c-2.81,2.81-4.98,5.21-7.52,8.3
			l-2.01,2.45l-10.9-8.89c-2.27,2.9-4.44,5.91-6.47,8.97c-12.25,18.52-19.89,39.97-22.07,62.04l-6.32-0.63
			C413.19,371.76,421.17,349.31,433.99,329.93z M442.27,499.71c-10.17-12.54-18.09-26.56-23.55-41.67
			c-5.65-15.64-8.51-32.08-8.51-48.86v-0.75l1.21-2.43l1.96,0l10.97,0c0.59-24.5,8.02-48.13,21.57-68.52l5.29,3.52
			c-13.44,20.23-20.55,43.8-20.55,68.18v3.18l-14.07,0c0.71,30.32,11.51,59.81,30.61,83.35L442.27,499.71z M539.89,552.3
			c-28.36-2.76-55.03-13.81-77.1-31.94l0,0c-3.62-2.98-7.15-6.17-10.47-9.49l-0.8-0.8l-0.26-2.63l8.82-8.82
			c-19.91-20.91-32.36-48.03-35.15-76.71l6.32-0.62c2.76,28.27,15.38,54.94,35.54,75.1l2.25,2.25l-9.95,9.95
			c2.49,2.38,5.09,4.68,7.74,6.86l-2.02,2.46l2.02-2.46c21.1,17.33,46.58,27.89,73.68,30.53L539.89,552.3z M550.83,550.56l0-0.75
			l0-10.96c-28.83-0.71-56.81-11.08-79.09-29.39l4.03-4.91c21.97,18.05,49.75,27.98,78.24,27.98h3.18l0,14.07
			c31-0.72,61-11.95,84.82-31.82l4.07,4.88c-25.76,21.49-58.46,33.33-92.06,33.33h-1.96L550.83,550.56z"/>
		<path d="M669.39,504.28c-0.1,0.12-0.21,0.24-0.31,0.36C669.18,504.52,669.29,504.4,669.39,504.28z"/>
		<path d="M561.62,558.51c0.5-0.02,0.99-0.08,1.49-0.11C562.61,558.43,562.11,558.49,561.62,558.51z"/>
		<path d="M638.12,325.06c-22.47-22.47-52.34-34.84-84.12-34.84c-31.78,0-61.65,12.37-84.12,34.84
			c-22.47,22.47-34.84,52.34-34.84,84.12c0,31.78,12.37,61.65,34.84,84.12c22.47,22.47,52.34,34.84,84.12,34.84
			c31.78,0,61.65-12.37,84.12-34.84c22.47-22.47,34.84-52.34,34.84-84.12C672.97,377.4,660.59,347.53,638.12,325.06z M638.06,488.57
			c-4.92,4.92-10.18,9.35-15.75,13.28L556.29,368.8l-67.61,135.78c-7.06-4.57-13.69-9.92-19.77-16.01
			c-1.69-1.69-3.32-3.42-4.89-5.19l72.67-142.11l-4.14-8.46l15.11-28.25h8.64l89.82,175.13
			C643.59,482.76,640.9,485.72,638.06,488.57z"/>
		<path d="M406.29,385.89c4.22-27.01,15.67-51.63,32.31-71.8C421.46,334.81,410.4,359.48,406.29,385.89z"/>
		<path d="M405.4,392.71c0.23-2.09,0.48-4.17,0.79-6.24C405.88,388.54,405.63,390.62,405.4,392.71z"/>
		<path d="M453.52,298.45c1.6-1.45,3.24-2.87,4.91-4.25C456.77,295.58,455.13,296.99,453.52,298.45z"/>
		<path d="M546.39,558.51c2.53,0.13,5.06,0.19,7.61,0.19c2.55,0,5.09-0.07,7.61-0.19c-2.52,0.13-5.06,0.19-7.61,0.19
			C551.45,558.7,548.91,558.64,546.39,558.51z"/>
		<path d="M561.62,259.85c-2.53-0.13-5.07-0.19-7.62-0.19c-2.55,0-5.09,0.07-7.61,0.19c2.52-0.13,5.06-0.19,7.62-0.19
			C556.56,259.65,559.09,259.72,561.62,259.85z"/>
		<path d="M404.79,399.9c0.12-1.97,0.25-3.95,0.45-5.9C405.04,395.96,404.91,397.93,404.79,399.9z"/>
		<path d="M439.1,313.52c1.36-1.63,2.74-3.24,4.17-4.82C441.84,310.28,440.46,311.89,439.1,313.52z"/>
		<path d="M447.97,514.59c0.1,0.1,0.2,0.21,0.3,0.32c0.12,0.12,0.24,0.22,0.35,0.34C448.41,515.03,448.19,514.81,447.97,514.59z"/>
		<polygon points="448.27,303.45 448.27,303.45 448.27,303.45 		"/>
		<path d="M530.8,556.9c-27.05-4.21-51.7-15.67-71.9-32.33C479.65,541.73,504.35,552.81,530.8,556.9z"/>
		<path d="M443.27,509.66c-1.46-1.61-2.88-3.26-4.27-4.94C440.39,506.39,441.8,508.05,443.27,509.66z"/>
		<path d="M458.5,524.22c-1.69-1.4-3.35-2.84-4.98-4.31C455.15,521.39,456.81,522.82,458.5,524.22z"/>
		<path d="M537.64,557.8c-2.13-0.23-4.26-0.49-6.36-0.81C533.39,557.31,535.51,557.56,537.64,557.8z"/>
		<path d="M544.9,558.4c-2.04-0.12-4.07-0.26-6.08-0.46C540.83,558.14,542.86,558.28,544.9,558.4z"/>
		<path d="M404.48,409.18c0,2.54,0.07,5.08,0.19,7.6C404.54,414.26,404.48,411.73,404.48,409.18
			C404.48,409.18,404.48,409.18,404.48,409.18z"/>
		<path d="M404.48,409.16c0-2.55,0.07-5.08,0.19-7.59C404.54,404.09,404.48,406.62,404.48,409.16z"/>
		<path d="M405.24,424.36c-0.2-1.95-0.33-3.92-0.45-5.89C404.91,420.44,405.04,422.4,405.24,424.36z"/>
		<path d="M406.19,431.89c-0.31-2.06-0.56-4.15-0.79-6.24C405.63,427.73,405.88,429.82,406.19,431.89z"/>
		<path d="M438.61,504.27c-16.65-20.18-28.09-44.8-32.32-71.82C410.4,458.87,421.46,483.54,438.61,504.27z"/>
		<path d="M702.61,425.63c-0.23,2.1-0.48,4.18-0.8,6.25C702.13,429.81,702.38,427.73,702.61,425.63z"/>
		<path d="M654.49,519.9c-1.64,1.49-3.33,2.94-5.04,4.36C651.15,522.85,652.84,521.4,654.49,519.9z"/>
		<path d="M664.73,308.7c1.43,1.57,2.82,3.19,4.18,4.82C667.55,311.89,666.17,310.28,664.73,308.7z"/>
		<path d="M703.21,418.44c-0.12,1.98-0.25,3.96-0.45,5.92C702.96,422.4,703.09,420.42,703.21,418.44z"/>
		<path d="M669.08,504.64c-1.42,1.71-2.86,3.38-4.35,5.03C666.22,508.02,667.67,506.34,669.08,504.64z"/>
		<path d="M649.62,294.23c1.65,1.37,3.27,2.77,4.86,4.21C652.89,297,651.26,295.61,649.62,294.23z"/>
		<path d="M702.76,394c0.2,1.96,0.33,3.94,0.45,5.92C703.09,397.94,702.96,395.96,702.76,394z"/>
		<path d="M577.19,261.45c27.05,4.21,51.71,15.67,71.91,32.33C628.34,276.62,603.64,265.54,577.19,261.45z"/>
		<path d="M701.81,386.47c0.31,2.07,0.57,4.16,0.8,6.25C702.38,390.63,702.13,388.54,701.81,386.47z"/>
		<path d="M458.91,293.78c20.2-16.66,44.84-28.12,71.89-32.33C504.35,265.55,479.65,276.62,458.91,293.78z"/>
		<path d="M669.4,314.09c16.65,20.18,28.09,44.8,32.32,71.82C697.61,359.49,686.54,334.82,669.4,314.09z"/>
		<path d="M569.19,557.94c-2.02,0.2-4.05,0.34-6.09,0.46C565.14,558.28,567.17,558.14,569.19,557.94z"/>
		<path d="M576.72,556.99c-2.11,0.32-4.23,0.58-6.37,0.81C572.48,557.57,574.61,557.31,576.72,556.99z"/>
		<path d="M649.1,524.57c-20.2,16.67-44.86,28.12-71.91,32.34C603.65,552.81,628.35,541.73,649.1,524.57z"/>
		<path d="M538.81,260.42c2.02-0.2,4.05-0.34,6.1-0.46C542.87,260.07,540.83,260.21,538.81,260.42z"/>
		<path d="M531.28,261.37c2.11-0.32,4.23-0.58,6.37-0.81C535.52,260.79,533.39,261.05,531.28,261.37z"/>
		<path d="M659.16,515.45c0.19-0.19,0.39-0.36,0.57-0.55c0.18-0.18,0.34-0.37,0.52-0.55C659.89,514.73,659.53,515.09,659.16,515.45z
			"/>
		<path d="M703.53,409.18c0,2.55-0.07,5.09-0.19,7.6C703.46,414.26,703.53,411.72,703.53,409.18z"/>
		<path d="M570.34,260.56c2.14,0.23,4.27,0.49,6.38,0.81C574.61,261.05,572.48,260.79,570.34,260.56z"/>
		<path d="M563.07,259.95c2.05,0.12,4.09,0.26,6.12,0.47C567.16,260.21,565.12,260.07,563.07,259.95z"/>
		<path d="M701.71,432.45c-4.22,27.02-15.67,51.65-32.32,71.83C686.54,483.55,697.61,458.87,701.71,432.45z"/>
		<path d="M703.33,401.57c0.13,2.52,0.19,5.05,0.19,7.61C703.53,406.63,703.46,404.1,703.33,401.57z"/>
	</g>
	<g>
		<path d="M782.49,631.47c-55.7,0-97.55,38.71-97.55,94.15c0,52.04,37.13,89.43,87.89,93.62l2.61,0.24c2.35,0.28,4.7,0.28,7.05,0.28
			c55.7,0,97.29-38.71,97.29-94.15C879.77,670.18,838.19,631.47,782.49,631.47z M801.23,774.8c-0.14,0.06-0.3,0.14-0.47,0.18
			c-2.04,0.89-4.19,1.62-6.38,2.19c-3.81,1.03-7.82,1.56-11.93,1.56c-3.3,0-6.52-0.34-9.64-0.99c-3.32-0.71-6.54-1.76-9.58-3.12
			c-0.04-0.02-0.08-0.04-0.12-0.06c-17.39-7.11-28.65-23.83-30.15-44.22c-0.04-0.67-0.08-1.32-0.12-1.98
			c-0.04-0.91-0.06-1.82-0.06-2.73c0-0.93,0.02-1.86,0.06-2.77c0.91-22.03,12.7-39.81,31.48-46.71c0.04-0.02,0.08-0.04,0.14-0.04
			c5.57-2.33,11.64-3.6,17.98-3.6c6.28,0,12.29,1.26,17.82,3.52c19.78,7.11,31.89,26.18,31.89,49.61
			C832.17,748.19,820.35,767.37,801.23,774.8z"/>
	</g>
</g>
</svg>
