<?xml version="1.0" encoding="utf-8"?>
<!-- Generator: Adobe Illustrator 26.0.0, SVG Export Plug-In . SVG Version: 6.00 Build 0)  -->
<svg version="1.1" id="Camada_1" xmlns="http://www.w3.org/2000/svg" xmlns:xlink="http://www.w3.org/1999/xlink" x="0px" y="0px"
	 viewBox="0 0 1080 1080" style="enable-background:new 0 0 1080 1080;" xml:space="preserve">
<style type="text/css">
	.st0{fill:url(#SVGID_1_);}
	.st1{fill:url(#SVGID_00000101807462025556018830000011624128416506419128_);}
	.st2{fill:url(#SVGID_00000067942999509446274050000008686865750920310926_);}
	.st3{fill:url(#SVGID_00000134963767261331316800000013161730960991451827_);}
	.st4{fill:url(#SVGID_00000068665860758446535210000006119678412045270164_);}
	.st5{fill:url(#SVGID_00000178188364318100359300000008119661079235662727_);}
	.st6{fill:url(#SVGID_00000160900521985870143030000011089753986324368048_);}
	.st7{fill:url(#SVGID_00000033332304547067739680000002019529513708078221_);}
	.st8{fill:url(#SVGID_00000054950161678751098970000017730573580387435659_);}
	.st9{fill:url(#SVGID_00000119096158969123887140000000806793378833591450_);}
	.st10{fill:url(#SVGID_00000149369252675155947210000006460204817069445810_);}
	.st11{fill:url(#SVGID_00000075848754125465498420000016445830028649139646_);}
	.st12{fill:url(#SVGID_00000029027963933651413010000003419412553622239931_);}
	.st13{fill:url(#SVGID_00000078005385723971197660000013022937629080628114_);}
	.st14{fill:url(#SVGID_00000017502379990475039100000001780277523162963125_);}
	.st15{fill:url(#SVGID_00000085241808028495597680000016408066620695856289_);}
	.st16{fill:url(#SVGID_00000135678490478395382930000004655173085028197786_);}
	.st17{fill:url(#SVGID_00000011728900928949824750000017331505891019813029_);}
	.st18{fill:url(#SVGID_00000120531334142797607110000006666773721092878224_);}
	.st19{fill:url(#SVGID_00000133496478337799074250000005581151306734863003_);}
	.st20{fill:url(#SVGID_00000122685638607797185640000009768966054560176051_);}
	.st21{fill:url(#SVGID_00000047062182367454797310000009426845170449123726_);}
	.st22{fill:url(#SVGID_00000044173770511689340670000016180475033897802132_);}
	.st23{fill:url(#SVGID_00000013165767263611820800000005917983505365280182_);}
	.st24{fill:url(#SVGID_00000022525793363115132480000006790241694255652543_);}
	.st25{fill:url(#SVGID_00000106842578255150347810000011696649844768594616_);}
	.st26{fill:url(#SVGID_00000060751794087214049130000005026345694632428198_);}
	.st27{fill:url(#SVGID_00000061471170474510095610000004157379324566871988_);}
	.st28{fill:url(#SVGID_00000113318277730337865220000008533615019817357218_);}
	.st29{fill:url(#SVGID_00000035521992135198026220000012568780985141732284_);}
	.st30{fill:url(#SVGID_00000042723125431145979410000009944543883912172196_);}
	.st31{fill:url(#SVGID_00000016793724884944216110000012771781032370099646_);}
	.st32{fill:url(#SVGID_00000056426148950538621180000000461483024340534719_);}
	.st33{fill:url(#SVGID_00000076572671057307804190000005125134338747685517_);}
	.st34{fill:url(#SVGID_00000062883421612836891590000009152008106648306573_);}
	.st35{fill:url(#SVGID_00000145774083455780250370000005597032662456097165_);}
	.st36{fill:url(#SVGID_00000152983826364043577110000005770558365423404204_);}
	.st37{fill:url(#SVGID_00000040533445229235052370000004795795823944208556_);}
	.st38{fill:url(#SVGID_00000112621402922653261950000008719794814871096705_);}
	.st39{fill:url(#SVGID_00000024708124165741007670000003140183253965978520_);}
	.st40{fill:url(#SVGID_00000172407222746199350020000010593948156873208471_);}
	.st41{fill:url(#SVGID_00000058584807405812459970000007547652040588700576_);}
	.st42{fill:url(#SVGID_00000164479947377792270960000011885818877498920583_);}
	.st43{fill:url(#SVGID_00000125578015917218828960000014310741290407647113_);}
	.st44{fill:url(#SVGID_00000094580627242728575190000010188860671773968515_);}
	.st45{fill:url(#SVGID_00000139990078240040642320000010478186772178707872_);}
	.st46{fill:url(#SVGID_00000124845404157923737510000009003549385408615344_);}
	.st47{fill:url(#SVGID_00000142163771235503295280000004024957992909504164_);}
	.st48{fill:url(#SVGID_00000134946148609493914950000016434005123669551746_);}
	.st49{fill:url(#SVGID_00000016791695066384711490000005719037064995635389_);}
	.st50{fill:url(#SVGID_00000161613369496488154170000004710450532769334961_);}
	.st51{fill:url(#SVGID_00000041997042906568430630000009513424113992850340_);}
	.st52{fill:url(#SVGID_00000118391380405516551150000013279303773906834872_);}
	.st53{fill:url(#SVGID_00000049188535194167946220000014132552997056665269_);}
	.st54{fill:url(#SVGID_00000080191514221424567420000005772996369592086406_);}
	.st55{fill:url(#SVGID_00000023267251463199154780000011658904677227414689_);}
	.st56{fill:url(#SVGID_00000176741302976717137740000009919308571792152477_);}
	.st57{fill:url(#SVGID_00000067926778718644407040000000736731755501598644_);}
	.st58{fill:url(#SVGID_00000045620900207266140370000015957135152879378560_);}
	.st59{fill:url(#SVGID_00000113313946522281757620000011608524679391531446_);}
	.st60{fill:url(#SVGID_00000012436942004213946040000009577338551708082817_);}
	.st61{fill:url(#SVGID_00000001662444040919733780000010844547040643131544_);}
	.st62{fill:url(#SVGID_00000106847179171050258730000015883872694226043552_);}
	.st63{fill:url(#SVGID_00000181780362823679890850000014186430280766510720_);}
	.st64{fill:url(#SVGID_00000101783477061355014300000000748323005327806859_);}
	.st65{fill:url(#SVGID_00000024722374531362726690000012465923764169682098_);}
	.st66{fill:url(#SVGID_00000057867139681243205580000001995963886721154693_);}
	.st67{fill:url(#SVGID_00000131368918267534616990000006565398078683360169_);}
	.st68{fill:url(#SVGID_00000148656398712554236750000008007843057834418586_);}
	.st69{fill:url(#SVGID_00000000923267308668290060000011068899508339280513_);}
	.st70{fill:url(#SVGID_00000078750185321446414190000010369441832837807282_);}
	.st71{fill:url(#SVGID_00000031175828829180931300000004633199666264373682_);}
	.st72{fill:url(#SVGID_00000093869375305410562490000006109044000835356324_);}
	.st73{fill:url(#SVGID_00000046339555910306629920000016559105513213542278_);}
	.st74{fill:url(#SVGID_00000016048403563634231440000003095413821748703382_);}
	.st75{fill:url(#SVGID_00000096777897229134971200000008744230256037104281_);}
	.st76{fill:url(#SVGID_00000096776729184644238870000009492416868170991774_);}
	.st77{fill:url(#SVGID_00000026856647407154959620000000383320747093655197_);}
	.st78{fill:url(#SVGID_00000085236565631741226900000008329370297249522345_);}
	.st79{fill:url(#SVGID_00000052791083370111615480000011945503168234693774_);}
	.st80{fill:url(#SVGID_00000145033079418930866730000007009923837058492546_);}
	.st81{fill:url(#SVGID_00000044892937180979188300000007716037918387530916_);}
	.st82{fill:url(#SVGID_00000087373877375211067190000010293331728060754598_);}
	.st83{fill:url(#SVGID_00000173868341848212094790000009559141059052693167_);}
	.st84{fill:url(#SVGID_00000144331927302324311040000006152082402074436262_);}
	.st85{fill:url(#SVGID_00000139989189408796340290000014755799506156039572_);}
	.st86{fill:url(#SVGID_00000138553953000012604080000000849432064599608476_);}
	.st87{fill:url(#SVGID_00000008846011813415996100000008513084796899016112_);}
	.st88{fill:url(#SVGID_00000131354870025240318440000007475685077478684814_);}
	.st89{fill:url(#SVGID_00000008118159200914870050000013220591610450873226_);}
	.st90{fill:url(#SVGID_00000137814827605934203020000012845332971731434386_);}
	.st91{fill:url(#SVGID_00000176746618222178958000000006492541869791292597_);}
	.st92{fill:url(#SVGID_00000108300015928209111820000000827815367123586440_);}
	.st93{fill:url(#SVGID_00000163782072851203635660000002231180069511924918_);}
	.st94{fill:url(#SVGID_00000080196211004436446470000002965736005629599112_);}
	.st95{fill:url(#SVGID_00000005251236947759769170000009195180006346033552_);}
	.st96{fill:url(#SVGID_00000147904089337978188820000002424092584025064615_);}
	.st97{fill:url(#SVGID_00000101062474610220112470000007520272360804222893_);}
	.st98{fill:url(#SVGID_00000096761208983474262080000004781637321809607584_);}
	.st99{fill:url(#SVGID_00000182519283252802633620000017776402559429132975_);}
	.st100{fill:url(#SVGID_00000038376167144725318030000008915433056998759094_);}
	.st101{fill:url(#SVGID_00000176036539780137195430000017753606802232548795_);}
	.st102{fill:url(#SVGID_00000149359742823496413810000018221500009423249595_);}
	.st103{fill:url(#SVGID_00000131368918273624948200000011731305188353120436_);}
	.st104{fill:url(#SVGID_00000015346881987570114900000012736373090195971516_);}
	.st105{fill:url(#SVGID_00000166656133483742829770000002363493605486933940_);}
	.st106{fill:url(#SVGID_00000165221223078608964080000013766212992889066171_);}
	.st107{fill:url(#SVGID_00000139987225130109910240000000324479630356067733_);}
	.st108{fill:url(#SVGID_00000103980790803109551950000010372770884617793469_);}
	.st109{fill:url(#SVGID_00000140716816821101559010000013960972062350521486_);}
	.st110{fill:url(#SVGID_00000121261980767195090270000009710104359341597109_);}
	.st111{fill:url(#SVGID_00000099620072572727119490000007485695861375674000_);}
	.st112{fill:url(#SVGID_00000134249739784176689370000000554714120238982024_);}
	.st113{fill:url(#SVGID_00000133510017357234426450000005776853623556444044_);}
	.st114{fill:url(#SVGID_00000147901011120538126860000013867891794752720313_);}
	.st115{fill:url(#SVGID_00000080206018228371952190000011363193424094425230_);}
	.st116{fill:url(#SVGID_00000036952538514761927790000008077365019257509050_);}
	.st117{fill:url(#SVGID_00000044880378103589741850000007725703045208618123_);}
	.st118{fill:url(#SVGID_00000006688217960523591200000003848504904372070018_);}
	.st119{fill:url(#SVGID_00000110452153728185808200000018199861075363863936_);}
	.st120{fill:url(#SVGID_00000022551625586376840140000002690138900930983859_);}
	.st121{fill:url(#SVGID_00000116956508836265734910000008417241617852509830_);}
	.st122{fill:url(#SVGID_00000168076915534890321890000004100860630578120378_);}
	.st123{fill:url(#SVGID_00000008125353670083875310000002693783536859544988_);}
	.st124{fill:url(#SVGID_00000147914425938720513370000004505278192857887136_);}
	.st125{fill:url(#SVGID_00000142871288788239686480000012748903683335972992_);}
	.st126{fill:url(#SVGID_00000167360499240495205390000011580318353818838952_);}
	.st127{fill:url(#SVGID_00000173871798683764860010000009403913626117392791_);}
	.st128{fill:url(#SVGID_00000181774217940731828150000010473036315655137206_);}
	.st129{fill:url(#SVGID_00000155831966901237832300000004428820047932050051_);}
	.st130{fill:url(#SVGID_00000121271952792024777560000014889145246560219283_);}
	.st131{fill:url(#SVGID_00000060029301073087405290000008505597482830005170_);}
	.st132{fill:url(#SVGID_00000088855666114208825930000015179570398780173194_);}
	.st133{fill:url(#SVGID_00000011031654487747158330000000489976419705060003_);}
	.st134{fill:url(#SVGID_00000112628871256210026350000007634729558453103009_);}
	.st135{fill:url(#SVGID_00000035504046559456150550000001554309010065960381_);}
	.st136{fill:url(#SVGID_00000082357415090222186310000013473982525325165210_);}
	.st137{fill:url(#SVGID_00000024695684086630909760000008053812217540673163_);}
	.st138{fill:url(#SVGID_00000109718153796015146710000016754001281983080350_);}
	.st139{fill:url(#SVGID_00000087409086588809352140000001972247349559990962_);}
	.st140{fill:url(#SVGID_00000137090945553003366150000004881846489174930352_);}
	.st141{fill:url(#SVGID_00000103255307108682255880000008489738270311737747_);}
	.st142{fill:url(#SVGID_00000148619532804735081840000017802504674185412505_);}
	.st143{fill:url(#SVGID_00000018227454697884835660000010019210669243581609_);}
	.st144{fill:url(#SVGID_00000169539376527044566040000004762754265839810453_);}
	.st145{fill:url(#SVGID_00000129187512165306993540000014662851869378332042_);}
	.st146{fill:url(#SVGID_00000125580669350200807540000006757968825730761400_);}
	.st147{fill:url(#SVGID_00000176753963597955137000000002525252838567183785_);}
	.st148{fill:url(#SVGID_00000155116140253932678510000003937992364913957557_);}
	.st149{fill:url(#SVGID_00000080182168012916013590000004767048317545273257_);}
	.st150{fill:url(#SVGID_00000014626486558385130610000013978689107949073808_);}
	.st151{fill:url(#SVGID_00000161626045246133606720000002210455418705440688_);}
	.st152{fill:url(#SVGID_00000165951501674912713150000000391631180228468619_);}
	.st153{fill:url(#SVGID_00000116201960006570099000000015443015146701926035_);}
	.st154{fill:url(#SVGID_00000101793534759747405660000002786512365730375322_);}
	.st155{fill:url(#SVGID_00000081616233794472486270000005178638089849280184_);}
	.st156{fill:url(#SVGID_00000151509280906756676870000003399190344874969497_);}
	.st157{fill:url(#SVGID_00000024691457706420546040000009757034927320213419_);}
	.st158{fill:url(#SVGID_00000065055223303878281910000015286146717660989315_);}
	.st159{fill:url(#SVGID_00000160875780573376603020000000411831930983441288_);}
	.st160{fill:url(#SVGID_00000085956105346608169850000012280004692064857771_);}
	.st161{fill:url(#SVGID_00000134222505224640091040000005434739139723828875_);}
	.st162{fill:url(#SVGID_00000165217646281715636570000002325226166820766861_);}
	.st163{fill:url(#SVGID_00000096023949196103481470000011683261012612503202_);}
	.st164{fill:url(#SVGID_00000179616783860910000050000006635477568128122287_);}
	.st165{fill:url(#SVGID_00000153684425741240249390000010951349816824844187_);}
	.st166{fill:url(#SVGID_00000181803951745612665160000007223229557012197760_);}
	.st167{fill:url(#SVGID_00000164512751476434544430000017984478897214339209_);}
	.st168{fill:url(#SVGID_00000119081474861823108530000008323005571358231477_);}
	.st169{fill:url(#SVGID_00000131348403133931816940000009562300123008732314_);}
	.st170{fill:url(#SVGID_00000043441917507185783860000008886404067302492568_);}
	.st171{fill:url(#SVGID_00000082361877605942064500000013398981067932955280_);}
	.st172{fill:url(#SVGID_00000096757097660608675230000010143567763628780731_);}
	.st173{fill:url(#SVGID_00000175299709256540691340000015543218750886271119_);}
	.st174{fill:url(#SVGID_00000029032534688083792070000016585695102619260094_);}
	.st175{fill:url(#SVGID_00000034077172484755700680000009267731275183152796_);}
	.st176{fill:url(#SVGID_00000013159683124178128940000000112989506643165070_);}
	.st177{fill:url(#SVGID_00000129187914590990181390000004727858157147600793_);}
	.st178{fill:url(#SVGID_00000176734704905204600160000003097419632332915598_);}
	.st179{fill:url(#SVGID_00000107559018283512865820000015025408890930488989_);}
	.st180{fill:url(#SVGID_00000124840095171108959040000018068392974801068679_);}
	.st181{fill:url(#SVGID_00000093172861687850204020000010492314309281361031_);}
	.st182{fill:url(#SVGID_00000087377399464282667150000012504889380387664524_);}
	.st183{fill:url(#SVGID_00000008836629057450818760000008476412117297500055_);}
	.st184{fill:url(#SVGID_00000140009034637769652220000005361305004453921411_);}
	.st185{fill:url(#SVGID_00000062888230022527758290000002439847794706558130_);}
	.st186{fill:url(#SVGID_00000065789398053883270130000011766987990772031162_);}
	.st187{fill:#F2F2F2;}
</style>
<g>
	<path class="st187" d="M509.59,33.01c1.65-0.1,3.29-0.28,4.95-0.36C512.88,32.73,511.24,32.91,509.59,33.01z"/>
	<path class="st187" d="M565.47,32.64c1.63,0.08,3.24,0.26,4.87,0.36C568.71,32.9,567.1,32.73,565.47,32.64z"/>
	<path class="st187" d="M590.8,34.56c1.29,0.13,2.55,0.33,3.84,0.47C593.35,34.89,592.08,34.69,590.8,34.56z"/>
	<path class="st187" d="M186.45,178.45c5.74-5.74,11.6-11.3,17.55-16.72C198.01,167.16,192.16,172.73,186.45,178.45z"/>
	<path class="st187" d="M220.41,147.51c0.54-0.45,1.06-0.93,1.59-1.38C221.47,146.58,220.96,147.06,220.41,147.51z"/>
	<path class="st187" d="M485.33,35.03c1.3-0.14,2.58-0.35,3.88-0.48C487.9,34.69,486.62,34.89,485.33,35.03z"/>
	<path class="st187" d="M462.4,38.02c0.55-0.09,1.09-0.2,1.64-0.28C463.49,37.82,462.95,37.94,462.4,38.02z"/>
	<path class="st187" d="M1039.36,557.43c-0.09,1.86-0.29,3.69-0.41,5.55C1039.06,561.12,1039.26,559.29,1039.36,557.43z"/>
	<path class="st187" d="M615.97,37.74c0.52,0.08,1.04,0.19,1.56,0.27C617.01,37.93,616.5,37.82,615.97,37.74z"/>
	<path class="st187" d="M169.72,196c5.42-5.95,10.97-11.81,16.7-17.54C180.72,184.17,175.15,190.02,169.72,196z"/>
	<path class="st187" d="M1037.45,582.76c-0.14,1.43-0.37,2.84-0.52,4.27C1037.08,585.6,1037.3,584.19,1037.45,582.76z"/>
	<path class="st187" d="M1034.26,607.94c-0.09,0.63-0.23,1.25-0.32,1.88C1034.04,609.19,1034.17,608.57,1034.26,607.94z"/>
	<path class="st187" d="M1036.92,476.98c0.15,1.43,0.38,2.84,0.52,4.27C1037.3,479.81,1037.08,478.41,1036.92,476.98z"/>
	<path class="st187" d="M857.99,146.13c0.59,0.49,1.16,1.02,1.75,1.51C859.14,147.15,858.58,146.62,857.99,146.13z"/>
	<path class="st187" d="M924.25,212.13c0.53,0.64,1.1,1.25,1.63,1.89C925.35,213.38,924.78,212.77,924.25,212.13z"/>
	<path class="st187" d="M1038.95,501.02c0.11,1.85,0.31,3.69,0.41,5.54C1039.26,504.71,1039.06,502.88,1038.95,501.02z"/>
	<path class="st187" d="M154.12,214.02c0.54-0.64,1.11-1.26,1.65-1.91C155.23,212.76,154.66,213.37,154.12,214.02z"/>
	<path class="st187" d="M185.44,884.5c-5.37-5.4-10.61-10.89-15.7-16.49C174.84,873.63,180.09,879.11,185.44,884.5z"/>
	<path class="st187" d="M155.44,851.51c-0.43-0.51-0.88-1-1.31-1.51C154.56,850.51,155.01,850.99,155.44,851.51z"/>
	<path class="st187" d="M222,917.86c-0.46-0.38-0.9-0.79-1.36-1.18C221.1,917.07,221.53,917.48,222,917.86z"/>
	<path class="st187" d="M514.54,1031.36c-1.67-0.08-3.32-0.26-4.99-0.36C511.22,1031.09,512.87,1031.28,514.54,1031.36z"/>
	<path class="st187" d="M489.21,1029.45c-1.31-0.13-2.6-0.34-3.91-0.48C486.61,1029.11,487.9,1029.31,489.21,1029.45z"/>
	<path class="st187" d="M464.03,1026.26c-0.54-0.08-1.07-0.19-1.6-0.28C462.96,1026.07,463.49,1026.18,464.03,1026.26z"/>
	<path class="st187" d="M203.99,902.27c-5.55-5.05-11-10.26-16.36-15.58C192.97,891.99,198.41,897.2,203.99,902.27z"/>
	<path class="st187" d="M42.55,481.25c0.14-1.45,0.37-2.88,0.53-4.32C42.92,478.37,42.7,479.8,42.55,481.25z"/>
	<path class="st187" d="M46.06,609.84c-0.1-0.64-0.23-1.26-0.33-1.9C45.83,608.57,45.96,609.2,46.06,609.84z"/>
	<path class="st187" d="M40.64,506.57c0.09-1.87,0.3-3.73,0.41-5.6C40.94,502.85,40.74,504.7,40.64,506.57z"/>
	<path class="st187" d="M45.73,456.07c0.1-0.65,0.24-1.29,0.34-1.94C45.97,454.78,45.83,455.42,45.73,456.07z"/>
	<path class="st187" d="M43.08,587.06c-0.16-1.44-0.38-2.86-0.53-4.3C42.7,584.2,42.92,585.62,43.08,587.06z"/>
	<path class="st187" d="M41.06,563.06c-0.11-1.88-0.32-3.75-0.41-5.64C40.74,559.32,40.94,561.18,41.06,563.06z"/>
	<path class="st187" d="M1033.94,454.18c0.1,0.63,0.23,1.25,0.32,1.88C1034.17,455.43,1034.04,454.81,1033.94,454.18z"/>
	<path class="st187" d="M617.55,1025.99c-0.53,0.08-1.05,0.19-1.58,0.27C616.5,1026.18,617.02,1026.07,617.55,1025.99z"/>
	<path class="st187" d="M910.26,868.02c-4.85,5.33-9.86,10.55-14.96,15.71C900.38,878.59,905.4,873.37,910.26,868.02z"/>
	<path class="st187" d="M859.17,916.85c-0.39,0.33-0.77,0.68-1.16,1.01C858.4,917.53,858.77,917.18,859.17,916.85z"/>
	<path class="st187" d="M594.68,1028.97c-1.3,0.14-2.58,0.34-3.88,0.48C592.09,1029.31,593.38,1029.11,594.68,1028.97z"/>
	<path class="st187" d="M891.64,887.38c-5.13,5.07-10.32,10.06-15.62,14.88C881.34,897.42,886.53,892.44,891.64,887.38z"/>
	<path class="st187" d="M910.28,196c-10.87-11.97-22.31-23.41-34.28-34.28c5.96,5.42,11.82,10.99,17.55,16.72
		C899.29,184.18,904.85,190.04,910.28,196z"/>
	<path class="st187" d="M1029.38,532c0-269.84-219.54-489.38-489.38-489.38C270.16,42.62,50.62,262.16,50.62,532
		c0,269.84,219.53,489.37,489.38,489.37S1029.38,801.85,1029.38,532z M911.77,837.03l-8.21-6.74L911.77,837.03
		c-9.97,12.14-20.65,23.91-31.74,35.01l-6.51,6.52l-7.98-5.98l-26.43-26.43c-7.24,6.98-13.51,12.42-21.17,18.83
		c-67.13,56.1-148.52,90.22-235.37,98.69l-2.06-21.15c82.58-8.04,159.97-40.5,223.8-93.84c8.93-7.46,15.87-13.55,24.89-22.57
		l9.99-9.92l33.24,33.24c7.96-8.33,15.64-17,22.93-25.87l0,0c57.94-70.55,93.24-155.74,102.08-246.36l21.15,2.06
		C1009.33,674.07,972.4,763.21,911.77,837.03z M540,936.81c-223.57,0-404.8-181.24-404.8-404.8c0-223.57,181.23-404.8,404.8-404.8
		c223.57,0,404.8,181.24,404.8,404.8C944.8,755.57,763.57,936.81,540,936.81z M912,227.26c70.21,85.61,108.87,193.83,108.87,304.74
		v10.62h-47.3c-2.38,96.42-37.06,189.96-98.27,264.48l-16.42-13.49c60.34-73.46,93.57-166.37,93.56-261.61v-10.63h47.05
		c-2.38-102.28-39.07-201.56-103.93-280.64L912,227.26z M582.55,53.02c112.06,9.83,217.7,59.18,297.48,138.95l7.51,7.51
		l-32.53,32.54c65.38,68.45,106.62,158.8,116.46,255.65l-21.14,2.15c-9.71-95.6-51.53-184.51-117.75-250.34l-7.56-7.51l32.39-32.39
		C782.11,127.69,684.27,83.28,580.7,74.19L582.55,53.02z M492.37,53.47c15.81-1.56,31.83-2.34,47.63-2.34h8.3l2.33,9.32l0,37.99
		c8.73,0.22,17.54,0.7,26.29,1.44c87.66,7.39,169.98,40.85,238.08,96.75l-13.48,16.42c-64.76-53.16-143.04-84.97-226.38-92
		c-11.72-0.99-23.54-1.49-35.13-1.49h-10.62V72.5c-11.63,0.27-23.34,0.98-34.92,2.12C389.25,84.96,289.99,132,214.95,207.05
		l-15.03-15.02C278.43,113.5,382.29,64.3,492.37,53.47z M138.7,267.01c9.12-13.79,19.07-27.26,29.56-40.03l6.72-8.18l36.63,29.89
		c6.25-7.25,12.31-13.75,19.55-21l2.16-2.35C304.1,154.55,397.74,110.19,497,100.42l2.08,21.15
		c-94.3,9.29-183.28,51.41-250.56,118.62l-2.15,2.34c-9.38,9.39-16.67,17.43-25.15,27.75l-6.72,8.18l-36.44-29.73
		c-7.6,9.7-14.86,19.76-21.63,30.01c-40.98,61.93-66.49,133.67-73.8,207.46l-21.15-2.09C69.12,406.88,95.83,331.81,138.7,267.01z
		 M166.36,834.74c-34.01-41.92-60.5-88.8-78.76-139.35C68.71,643.09,59.13,588.12,59.13,532v-2.51l4.06-8.12l6.57,0l36.67,0
		c1.98-81.93,26.82-160.93,72.14-229.12l17.7,11.76c-44.95,67.64-68.71,146.47-68.71,227.98v10.62l-47.05,0
		c2.36,101.4,38.5,200,102.36,278.73L166.36,834.74z M492.8,1010.59c-94.85-9.24-184-46.18-257.82-106.82l0,0
		c-12.12-9.96-23.9-20.64-35-31.74l-2.68-2.68l-0.88-8.78l29.49-29.5c-66.57-69.93-108.2-160.6-117.54-256.5l21.15-2.06
		c9.21,94.53,51.42,183.72,118.84,251.14l7.51,7.51l-33.27,33.27c8.34,7.96,17,15.65,25.87,22.92l-6.74,8.21l6.74-8.21
		c70.55,57.96,155.76,93.26,246.4,102.09L492.8,1010.59z M529.38,1004.76l-0.01-2.52l0.01-36.67
		c-96.42-2.38-189.96-37.06-264.48-98.27l13.49-16.42c73.46,60.34,166.37,93.58,261.62,93.58h10.62l-0.01,47.05
		c103.65-2.41,204-39.97,283.61-106.39l13.61,16.32C761.7,973.3,652.37,1012.88,540,1012.88h-6.57L529.38,1004.76z"/>
	<path class="st187" d="M925.86,850.01c-0.34,0.41-0.7,0.8-1.04,1.21C925.16,850.8,925.52,850.41,925.86,850.01z"/>
	<path class="st187" d="M565.46,1031.36c1.67-0.08,3.31-0.26,4.97-0.36C568.77,1031.09,567.13,1031.28,565.46,1031.36z"/>
	<path class="st187" d="M821.29,250.71C746.15,175.57,646.26,134.2,540,134.2s-206.16,41.38-281.29,116.51
		C183.57,325.85,142.19,425.74,142.19,532c0,106.26,41.38,206.16,116.52,281.29S433.74,929.81,540,929.81
		c106.26,0,206.16-41.38,281.29-116.51C896.43,738.16,937.81,638.26,937.81,532C937.81,425.74,896.43,325.85,821.29,250.71z
		 M821.1,797.47c-16.44,16.44-34.04,31.26-52.65,44.4l-220.8-444.9L321.56,851c-23.6-15.27-45.77-33.18-66.12-53.53
		c-5.66-5.65-11.1-11.44-16.37-17.35l242.99-475.21l-13.84-28.29l50.53-94.46h28.89l300.37,585.63
		C839.58,778.05,830.6,787.97,821.1,797.47z"/>
	<path class="st187" d="M46.07,454.13c14.13-90.32,52.4-172.64,108.05-240.11C96.81,283.33,59.8,365.81,46.07,454.13z"/>
	<path class="st187" d="M43.08,476.92c0.77-6.99,1.6-13.95,2.65-20.85C44.69,462.98,43.84,469.95,43.08,476.92z"/>
	<path class="st187" d="M204,161.73c5.36-4.87,10.85-9.59,16.41-14.22C214.87,152.14,209.37,156.84,204,161.73z"/>
	<path class="st187" d="M514.54,1031.36c8.45,0.42,16.94,0.64,25.46,0.64c8.52,0,17.01-0.22,25.46-0.64
		c-8.44,0.42-16.92,0.64-25.46,0.64S522.97,1031.78,514.54,1031.36z"/>
	<path class="st187" d="M565.47,32.64C557.01,32.22,548.52,32,540,32c-8.52,0-17.01,0.22-25.46,0.65C522.97,32.22,531.46,32,540,32
		S557.03,32.22,565.47,32.64z"/>
	<path class="st187" d="M41.05,500.97c0.4-6.6,0.84-13.2,1.5-19.73C41.9,487.79,41.45,494.38,41.05,500.97z"/>
	<path class="st187" d="M155.77,212.11c4.55-5.46,9.18-10.85,13.95-16.11C164.93,201.28,160.31,206.67,155.77,212.11z"/>
	<path class="st187" d="M185.44,884.5c0.34,0.35,0.66,0.71,1.01,1.06c0.39,0.39,0.8,0.74,1.19,1.13
		C186.9,885.96,186.17,885.23,185.44,884.5z"/>
	<path class="st187" d="M186.45,178.45c-0.01,0.01-0.01,0.01-0.02,0.02C186.43,178.46,186.44,178.45,186.45,178.45L186.45,178.45z"
		/>
	<path class="st187" d="M462.43,1025.99c-90.45-14.09-172.89-52.4-240.43-108.13C291.39,975.26,373.98,1012.29,462.43,1025.99z"/>
	<path class="st187" d="M169.73,868.01c-4.89-5.39-9.64-10.91-14.29-16.5C160.09,857.08,164.82,862.61,169.73,868.01z"/>
	<path class="st187" d="M220.63,916.69c-5.65-4.69-11.21-9.49-16.64-14.42C209.44,907.22,215.01,912,220.63,916.69z"/>
	<path class="st187" d="M485.3,1028.97c-7.13-0.78-14.24-1.63-21.27-2.7C471.08,1027.33,478.18,1028.2,485.3,1028.97z"/>
	<path class="st187" d="M509.55,1030.99c-6.81-0.41-13.61-0.87-20.34-1.55C495.95,1030.12,502.75,1030.59,509.55,1030.99z"/>
	<path class="st187" d="M40,532c0,8.51,0.22,16.98,0.64,25.42C40.22,549.01,40,540.53,40,532C40,532,40,532,40,532z"/>
	<path class="st187" d="M40,531.95c0-8.51,0.22-16.98,0.64-25.38C40.22,515,40,523.46,40,531.95z"/>
	<path class="st187" d="M42.55,582.76c-0.66-6.52-1.09-13.1-1.5-19.69C41.46,569.65,41.9,576.23,42.55,582.76z"/>
	<path class="st187" d="M45.73,607.94c-1.05-6.9-1.89-13.88-2.65-20.88C43.84,594.05,44.69,601.02,45.73,607.94z"/>
	<path class="st187" d="M154.13,850C98.46,782.52,60.19,700.18,46.06,609.84C59.79,698.18,96.8,780.68,154.13,850z"/>
	<path class="st187" d="M1036.92,587.03c-0.77,7.01-1.61,13.99-2.66,20.91C1035.31,601.01,1036.16,594.03,1036.92,587.03z"/>
	<path class="st187" d="M876.02,902.26c-5.5,4.99-11.13,9.85-16.85,14.59C864.87,912.11,870.5,907.28,876.02,902.26z"/>
	<path class="st187" d="M910.28,196c4.78,5.27,9.42,10.66,13.97,16.13C919.7,206.68,915.08,201.28,910.28,196z"/>
	<path class="st187" d="M1038.95,562.98c-0.41,6.62-0.84,13.23-1.5,19.78C1038.1,576.2,1038.55,569.59,1038.95,562.98z"/>
	<path class="st187" d="M924.82,851.21c-4.74,5.7-9.57,11.32-14.56,16.81C915.26,862.52,920.09,856.89,924.82,851.21z"/>
	<path class="st187" d="M859.74,147.64c5.51,4.59,10.95,9.27,16.26,14.08C870.68,156.89,865.23,152.23,859.74,147.64z"/>
	<path class="st187" d="M1037.45,481.24c0.66,6.55,1.1,13.16,1.5,19.78C1038.55,494.41,1038.1,487.8,1037.45,481.24z"/>
	<path class="st187" d="M617.54,38.01C708,52.1,790.44,90.4,857.99,146.13C788.59,88.74,705.99,51.7,617.54,38.01z"/>
	<path class="st187" d="M1034.26,456.06c1.05,6.92,1.89,13.9,2.66,20.91C1036.16,469.97,1035.31,463,1034.26,456.06z"/>
	<path class="st187" d="M222.01,146.13C289.54,90.41,371.96,52.11,462.4,38.02C373.97,51.72,291.39,88.75,222.01,146.13z"/>
	<path class="st187" d="M925.87,214.02c55.67,67.48,93.94,149.82,108.07,240.16C1020.21,365.84,983.21,283.34,925.87,214.02z"/>
	<path class="st187" d="M590.79,1029.45c-6.74,0.68-13.55,1.14-20.36,1.55C577.24,1030.59,584.04,1030.12,590.79,1029.45z"/>
	<path class="st187" d="M615.97,1026.26c-7.04,1.07-14.16,1.93-21.29,2.71C601.8,1028.2,608.91,1027.33,615.97,1026.26z"/>
	<path class="st187" d="M858.01,917.86c-67.55,55.73-150,94.04-240.46,108.13C706,1012.29,788.61,975.26,858.01,917.86z"/>
	<path class="st187" d="M489.21,34.56c6.74-0.68,13.56-1.14,20.38-1.55C502.77,33.41,495.97,33.88,489.21,34.56z"/>
	<path class="st187" d="M464.03,37.74c7.04-1.07,14.16-1.93,21.29-2.71C478.2,35.8,471.09,36.67,464.03,37.74z"/>
	<path class="st187" d="M891.64,887.38c0.63-0.62,1.29-1.2,1.91-1.82c0.6-0.6,1.15-1.23,1.74-1.83
		C894.08,884.95,892.86,886.17,891.64,887.38z"/>
	<path class="st187" d="M1040,532c0,8.53-0.22,17-0.64,25.43C1039.78,548.99,1040,540.51,1040,532z"/>
	<path class="st187" d="M594.63,35.03c7.15,0.78,14.28,1.64,21.34,2.71C608.9,36.67,601.78,35.8,594.63,35.03z"/>
	<path class="st187" d="M570.34,33c6.85,0.41,13.69,0.87,20.46,1.56C584.01,33.88,577.18,33.41,570.34,33z"/>
	<path class="st187" d="M1033.94,609.82c-14.12,90.36-52.4,172.7-108.08,240.19C983.2,780.68,1020.21,698.17,1033.94,609.82z"/>
	<path class="st187" d="M1039.36,506.57c0.42,8.42,0.64,16.9,0.64,25.43C1040,523.49,1039.78,515.01,1039.36,506.57z"/>
</g>
</svg>
