<?xml version="1.0" encoding="utf-8"?>
<!-- Generator: Adobe Illustrator 26.0.0, SVG Export Plug-In . SVG Version: 6.00 Build 0)  -->
<svg version="1.1" id="Camada_1" xmlns="http://www.w3.org/2000/svg" xmlns:xlink="http://www.w3.org/1999/xlink" x="0px" y="0px"
	 viewBox="0 0 1080 1080" style="enable-background:new 0 0 1080 1080;" xml:space="preserve">
<style type="text/css">
	.st0{fill:url(#SVGID_1_);}
	.st1{fill:url(#SVGID_00000018939885878752239060000015244247786257097911_);}
	.st2{fill:url(#SVGID_00000178198263067291492980000005171022737572680104_);}
	.st3{fill:url(#SVGID_00000039833080694047123240000006684108646685338813_);}
	.st4{fill:url(#SVGID_00000108304205800267948600000012846943271020577719_);}
	.st5{fill:url(#SVGID_00000123426067345055488310000014668177385395279533_);}
	.st6{fill:url(#SVGID_00000159428902519268837410000003246421813196901513_);}
	.st7{fill:url(#SVGID_00000088097023342230921170000001987904599474471602_);}
	.st8{fill:url(#SVGID_00000019648356280095608160000005910123883142899363_);}
	.st9{fill:url(#SVGID_00000111176446035000262800000017011625045118693307_);}
	.st10{fill:url(#SVGID_00000048464346250087400670000007560966632983428777_);}
	.st11{fill:url(#SVGID_00000119811937743974101260000013822435207087161021_);}
	.st12{fill:url(#SVGID_00000041278296947187689080000006869781877342551169_);}
	.st13{fill:url(#SVGID_00000084519155207509300930000008053913572210920328_);}
	.st14{fill:url(#SVGID_00000181085186680843874250000008014452452147922048_);}
	.st15{fill:url(#SVGID_00000022541319161456971440000011309971901457716904_);}
	.st16{fill:url(#SVGID_00000037655559182407330250000015751919480737381776_);}
	.st17{fill:url(#SVGID_00000049211284536648870640000010698486389195607989_);}
	.st18{fill:url(#SVGID_00000044871144631059439530000001974792310322487692_);}
	.st19{fill:url(#SVGID_00000060749269681993269110000014302900457540070029_);}
	.st20{fill:url(#SVGID_00000059290731963924507020000014188470433946386312_);}
	.st21{fill:url(#SVGID_00000170239071528841721260000002473238797919547536_);}
	.st22{fill:url(#SVGID_00000007416978152587721180000003199775885590923180_);}
	.st23{fill:url(#SVGID_00000088850006583611386760000003904236355187246734_);}
	.st24{fill:url(#SVGID_00000148624259207252696100000014653877586723531928_);}
	.st25{fill:url(#SVGID_00000096773007576121182590000015876089073875273658_);}
	.st26{fill:url(#SVGID_00000085249464280516564850000010224251375636576424_);}
	.st27{fill:url(#SVGID_00000078740605228198201220000017158049271649200518_);}
	.st28{fill:url(#SVGID_00000044170668641366855180000005207617866500441273_);}
	.st29{fill:url(#SVGID_00000065757737052560233550000013991077648125940412_);}
	.st30{fill:url(#SVGID_00000124879601399340379440000004011078777887734421_);}
	.st31{fill:url(#SVGID_00000047022178414893239770000015058557896456955057_);}
	.st32{fill:url(#SVGID_00000103969167709973461030000011563225315699353267_);}
	.st33{fill:url(#SVGID_00000063606737665387404330000015737393709882790847_);}
	.st34{fill:url(#SVGID_00000098179567779112242500000007515048776882950065_);}
	.st35{fill:url(#SVGID_00000048487924783673585710000013867534959804783249_);}
	.st36{fill:url(#SVGID_00000126309610436633655850000015013357727952120977_);}
	.st37{fill:url(#SVGID_00000041992817297839246890000012720742957221817499_);}
	.st38{fill:url(#SVGID_00000000190797385426090930000004701014327676566166_);}
	.st39{fill:url(#SVGID_00000145765142128437491760000016896200524499876000_);}
	.st40{fill:url(#SVGID_00000066508351322313102910000005520741806705068966_);}
	.st41{fill:url(#SVGID_00000089570079920863275960000004217058367858682259_);}
	.st42{fill:url(#SVGID_00000000185707685712544960000013483891806863844022_);}
	.st43{fill:url(#SVGID_00000110458456063867472940000008059195705929691541_);}
	.st44{fill:url(#SVGID_00000063617897332251430590000012985836512965606544_);}
	.st45{fill:url(#SVGID_00000165927268994133398200000001234395733375305372_);}
	.st46{fill:url(#SVGID_00000142142400987200190310000003383312050445823907_);}
	.st47{fill:url(#SVGID_00000130648409758216654130000014669978179512682936_);}
	.st48{fill:url(#SVGID_00000039098609273663180270000012674128841092219541_);}
	.st49{fill:url(#SVGID_00000061473542813532666370000007038732608288192416_);}
	.st50{fill:url(#SVGID_00000031184069918033226080000005876149611773832870_);}
	.st51{fill:url(#SVGID_00000109752393214688308380000017050694278362425262_);}
	.st52{fill:url(#SVGID_00000147185318796227714860000010935090354176862655_);}
	.st53{fill:url(#SVGID_00000178897721027995690000000007531222731934725265_);}
	.st54{fill:url(#SVGID_00000023254355027236905370000011638446969006033546_);}
	.st55{fill:url(#SVGID_00000100363682905639381810000008605341950052802750_);}
	.st56{fill:url(#SVGID_00000049198636651942018930000009692245920067451297_);}
	.st57{fill:url(#SVGID_00000057138133755719121540000012912668388754031807_);}
	.st58{fill:url(#SVGID_00000071527069975176629580000018299051612981820570_);}
	.st59{fill:url(#SVGID_00000119088092425928152330000003728181723331492253_);}
	.st60{fill:url(#SVGID_00000093887456273347009570000005658295768856419493_);}
	.st61{fill:url(#SVGID_00000007422007360084766740000007564571550325053312_);}
	.st62{fill:url(#SVGID_00000177452951846259470410000009147988718032941755_);}
	.st63{fill:url(#SVGID_00000063597677763229223810000007798460659126781356_);}
	.st64{fill:url(#SVGID_00000054261985203422433160000006198797853080490402_);}
	.st65{fill:url(#SVGID_00000151528561685778289130000012025652652451432600_);}
	.st66{fill:url(#SVGID_00000127025000785581078280000004876662512519006895_);}
	.st67{fill:url(#SVGID_00000154407161066597887740000001296170121798665350_);}
	.st68{fill:url(#SVGID_00000122695685746406675790000002454036742112430253_);}
	.st69{fill:url(#SVGID_00000083784316840951635880000003683232034783225238_);}
	.st70{fill:url(#SVGID_00000155828371915689769620000011862076532052853143_);}
	.st71{fill:url(#SVGID_00000104665546397327388330000005143309710466054067_);}
	.st72{fill:url(#SVGID_00000138561259130795470870000014100585260265653431_);}
	.st73{fill:url(#SVGID_00000010295461771206761620000002597161990833758348_);}
	.st74{fill:url(#SVGID_00000000183055706466131900000000181775329389621695_);}
	.st75{fill:url(#SVGID_00000145748547558421643300000011561964668261525382_);}
	.st76{fill:url(#SVGID_00000018955288425086017750000006163050071466516655_);}
	.st77{fill:url(#SVGID_00000060724701271938232780000002035250496120652950_);}
	.st78{fill:url(#SVGID_00000167364687260905682450000009093312439606872494_);}
	.st79{fill:url(#SVGID_00000103987424639918764680000015485574357091973548_);}
	.st80{fill:url(#SVGID_00000026841479255174517850000010328155495761608127_);}
	.st81{fill:url(#SVGID_00000160154106168646299170000000474486803489261736_);}
	.st82{fill:url(#SVGID_00000092422015428989630760000006637595713573573811_);}
	.st83{fill:url(#SVGID_00000065772509394872709340000017858369350300154778_);}
	.st84{fill:url(#SVGID_00000127730775376735755350000004688336614413713816_);}
	.st85{fill:url(#SVGID_00000032627841945647220410000016715855738922395780_);}
	.st86{fill:url(#SVGID_00000105391853930491240980000012362942569817263507_);}
	.st87{fill:url(#SVGID_00000130613421149882539780000002229671131142594449_);}
	.st88{fill:url(#SVGID_00000052786057913097745090000015534216557042443449_);}
	.st89{fill:url(#SVGID_00000021087560493164718320000013731215547721902240_);}
	.st90{fill:url(#SVGID_00000101075554833030931520000011982641969336589489_);}
	.st91{fill:url(#SVGID_00000087373769679897444300000014923460726454463894_);}
	.st92{fill:url(#SVGID_00000063594707667052604800000006728486805118203311_);}
	.st93{fill:url(#SVGID_00000158028714654119131850000000177333845669830066_);}
	.st94{fill:url(#SVGID_00000091703481477918578260000005250052291545668484_);}
	.st95{fill:url(#SVGID_00000037690456277161614010000007849443739659104417_);}
	.st96{fill:url(#SVGID_00000035494707279143735120000016975797074408354464_);}
	.st97{fill:url(#SVGID_00000152255848078312794210000009543698687582570643_);}
	.st98{fill:url(#SVGID_00000099620281440389281580000018075011459385957289_);}
	.st99{fill:url(#SVGID_00000020370175726618195750000010216583603493705635_);}
	.st100{fill:url(#SVGID_00000096037213000772971610000018396783005511983291_);}
	.st101{fill:url(#SVGID_00000020366046338191651400000009581599855908796570_);}
	.st102{fill:url(#SVGID_00000106111787486934587610000015862711584264512424_);}
	.st103{fill:url(#SVGID_00000141448652858829696580000012448698363937809792_);}
	.st104{fill:url(#SVGID_00000181064902039363124080000015696992414708134309_);}
	.st105{fill:url(#SVGID_00000092415799355966130180000004622786025919225753_);}
	.st106{fill:url(#SVGID_00000158024136927241632160000013478894850516522635_);}
	.st107{fill:url(#SVGID_00000157272810468064374500000010084578777663785132_);}
	.st108{fill:url(#SVGID_00000183959153473337680990000017490284276304079285_);}
	.st109{fill:url(#SVGID_00000052079884206128393200000001200386422696175784_);}
	.st110{fill:url(#SVGID_00000168084887253431928740000009582330716052812207_);}
	.st111{fill:url(#SVGID_00000090256393769931926910000013471803402160874917_);}
	.st112{fill:url(#SVGID_00000002377748048462193690000000303742175491555753_);}
	.st113{fill:url(#SVGID_00000153671332568605824190000015887189698176909497_);}
	.st114{fill:url(#SVGID_00000013898846092460090280000013610230722158815929_);}
	.st115{fill:url(#SVGID_00000143580117708276229120000014975577914337784737_);}
	.st116{fill:url(#SVGID_00000051374438774391235960000000135688359936159662_);}
	.st117{fill:url(#SVGID_00000005959673510221935020000004098620433738425494_);}
	.st118{fill:url(#SVGID_00000091704784812110917000000018304910061453029553_);}
	.st119{fill:url(#SVGID_00000173882891826035120160000002712076093461507715_);}
	.st120{fill:url(#SVGID_00000069362038692945220840000015382922240131986100_);}
	.st121{fill:url(#SVGID_00000093137639721700209060000006027757764403028126_);}
	.st122{fill:url(#SVGID_00000114766413130904242630000000701571388841619620_);}
	.st123{fill:url(#SVGID_00000132083079664706817710000015761683580633510551_);}
	.st124{fill:url(#SVGID_00000026885052002002625190000013678859460964708537_);}
	.st125{fill:url(#SVGID_00000088825693903004089770000011048782165876861353_);}
	.st126{fill:url(#SVGID_00000093864381272245554740000016994030418366410158_);}
	.st127{fill:url(#SVGID_00000046307247728454080570000011506319312852373154_);}
	.st128{fill:url(#SVGID_00000092420035863140646680000001262417531465295283_);}
	.st129{fill:url(#SVGID_00000007420094770937809600000003795451405549000339_);}
	.st130{fill:url(#SVGID_00000065794127367414074130000013263588729508234668_);}
	.st131{fill:url(#SVGID_00000058562158329149562090000017306967757472888458_);}
	.st132{fill:url(#SVGID_00000005983533496365281630000009856551198369789105_);}
	.st133{fill:url(#SVGID_00000085252820914174515530000006591983798001644427_);}
	.st134{fill:url(#SVGID_00000057133558725690605930000013462903418000945286_);}
	.st135{fill:url(#SVGID_00000063628007633533353300000014016115276710237059_);}
	.st136{fill:url(#SVGID_00000092434215004269289010000007336189025630920087_);}
	.st137{fill:url(#SVGID_00000002366113244561728170000015298879159338903718_);}
	.st138{fill:url(#SVGID_00000172432620891939754770000008287798394626862472_);}
	.st139{fill:url(#SVGID_00000155119778636499372510000014505819499974698406_);}
	.st140{fill:url(#SVGID_00000115481815803520775610000006833063242326894010_);}
	.st141{fill:url(#SVGID_00000124137792145193808670000016472614734401815936_);}
	.st142{fill:url(#SVGID_00000168104999324535021310000006214997745684960426_);}
	.st143{fill:url(#SVGID_00000173877773919274998810000013855505443126649984_);}
	.st144{fill:url(#SVGID_00000050646615457700585380000009552721001038179251_);}
	.st145{fill:url(#SVGID_00000170260583999632860890000015894847928819804857_);}
	.st146{fill:url(#SVGID_00000158737356558113999300000010184305032671302550_);}
	.st147{fill:url(#SVGID_00000065041423635485000210000004586077904393566850_);}
	.st148{fill:url(#SVGID_00000002347787461357374340000016544326485020737154_);}
	.st149{fill:url(#SVGID_00000139972704468682249810000012000228667362540207_);}
	.st150{fill:url(#SVGID_00000169537939796487841820000004083034863407420577_);}
	.st151{fill:url(#SVGID_00000074438704860656839710000008871493102200486026_);}
	.st152{fill:url(#SVGID_00000067236675147451114600000009944464446976241557_);}
	.st153{fill:url(#SVGID_00000148622428750607386970000013588104037232323485_);}
	.st154{fill:url(#SVGID_00000150078116867000067940000011098588052320366258_);}
	.st155{fill:url(#SVGID_00000011018561538668861500000008498695226844257980_);}
	.st156{fill:url(#SVGID_00000034078659785839225460000002514835397886701723_);}
	.st157{fill:url(#SVGID_00000053523836614458054550000015246333454429211291_);}
	.st158{fill:url(#SVGID_00000052796239192373326620000006413640716324269229_);}
	.st159{fill:url(#SVGID_00000116216200865574739430000004436908064125187744_);}
	.st160{fill:url(#SVGID_00000046309718407486173250000010142558454420881844_);}
	.st161{fill:url(#SVGID_00000064344216305721566920000014401444881724519324_);}
	.st162{fill:url(#SVGID_00000108267315621870988080000015981307206181349298_);}
	.st163{fill:url(#SVGID_00000108285090759416984210000004903795618179855745_);}
	.st164{fill:url(#SVGID_00000108292263394258321330000003185331379169910975_);}
	.st165{fill:url(#SVGID_00000114763930285743275490000006403417750590299069_);}
	.st166{fill:url(#SVGID_00000153671629581638433660000011569879370651803802_);}
	.st167{fill:url(#SVGID_00000008831715489956498310000013611297447275010992_);}
	.st168{fill:url(#SVGID_00000009552230291903104640000006235743737122472603_);}
	.st169{fill:url(#SVGID_00000047760637969672790660000015431746572378278554_);}
	.st170{fill:url(#SVGID_00000031930417102774112540000001976793701450237087_);}
	.st171{fill:url(#SVGID_00000068648156586916130740000014850667807040269237_);}
	.st172{fill:url(#SVGID_00000113330703774830856150000007770628178742023831_);}
	.st173{fill:url(#SVGID_00000178897796826191909850000008302705708368404624_);}
	.st174{fill:url(#SVGID_00000026856705841053775560000002356530586161822097_);}
	.st175{fill:url(#SVGID_00000063623539970807180180000014619137325830374068_);}
	.st176{fill:url(#SVGID_00000091003362768943177560000008099817622509860790_);}
	.st177{fill:url(#SVGID_00000146491079018779214990000016348076384871754893_);}
	.st178{fill:url(#SVGID_00000070804130862169437160000016203858719512767880_);}
	.st179{fill:url(#SVGID_00000109729175391341174230000002550619166781868214_);}
	.st180{fill:url(#SVGID_00000179634976894295797570000010231027807120448179_);}
	.st181{fill:url(#SVGID_00000094594949043751342890000006615679460548071053_);}
	.st182{fill:url(#SVGID_00000065757098432022522550000011217006603003159688_);}
	.st183{fill:url(#SVGID_00000107575366578348955180000005647279176137309370_);}
	.st184{fill:url(#SVGID_00000150078839810524457200000004867800613985198752_);}
	.st185{fill:url(#SVGID_00000066482063669215026860000000544192499151215033_);}
	.st186{fill:url(#SVGID_00000059295366093120140950000002606184491371021247_);}
	.st187{fill:#F2F2F2;}
</style>
<g>
	<path class="st187" d="M181.25,809.74l-44.3-89.39l-44.82,89.39H40l68.54-129.26l-5.99-12.25l21.89-40.92h12.51l95.91,182.43
		H181.25z"/>
	<path class="st187" d="M260.61,808.35V668.05h-61.76l19.81-42.14h150.9v42.14h-61.5v87.13l10.68,10.69v42.48H260.61z"/>
	<path class="st187" d="M676.59,770.21l-3.51-3.34h-68.83V625.35h-57.86v42.23l10.95,10.94v129.26h130.45v-26.63L676.59,770.21z"/>
	<polygon class="st187" points="491.29,627.31 491.29,695.59 437.99,695.34 437.99,627.31 379.61,627.31 379.61,669.53 
		390.82,680.48 390.82,809.74 437.99,809.74 437.99,736.32 491.29,736.51 491.29,809.74 538.2,809.74 538.2,627.31 	"/>
	<path class="st187" d="M878.16,783.68l25.54-36.75c13.29,13.03,34.4,23.98,59.94,23.98c16.42,0,26.32-5.21,26.32-14.33
		c0-23.98-105.55-3.91-105.55-74.27c0-30.49,26.58-57.86,74.27-57.86c10.16,0,19.81,1.04,28.93,2.87l13.29-4.43l39.09,19.55
		l-32.06,42.48c-15.64-12.77-35.96-18.76-54.47-18.76c-13.81,0-20.07,4.43-20.07,12.51c0,22.41,105.55,5.73,105.55,73.23
		c0,36.49-27.62,60.46-77.92,60.46C922.98,812.35,896.92,800.88,878.16,783.68z"/>
	<g>
		<path class="st187" d="M544.91,251.95c0.49-0.03,0.98-0.08,1.48-0.11C545.89,251.87,545.4,251.92,544.91,251.95z"/>
		<path class="st187" d="M561.62,251.85c0.49,0.02,0.97,0.08,1.46,0.11C562.59,251.92,562.11,251.87,561.62,251.85z"/>
		<path class="st187" d="M569.19,252.42c0.38,0.04,0.76,0.1,1.15,0.14C569.95,252.52,569.58,252.46,569.19,252.42z"/>
		<path class="st187" d="M448.27,295.45c1.72-1.72,3.47-3.38,5.25-5C451.73,292.07,449.98,293.74,448.27,295.45z"/>
		<path class="st187" d="M458.43,286.2c0.16-0.13,0.32-0.28,0.48-0.41C458.74,285.92,458.59,286.06,458.43,286.2z"/>
		<path class="st187" d="M537.65,252.56c0.39-0.04,0.77-0.1,1.16-0.14C538.42,252.46,538.04,252.52,537.65,252.56z"/>
		<path class="st187" d="M530.79,253.45c0.16-0.03,0.33-0.06,0.49-0.08C531.12,253.39,530.96,253.43,530.79,253.45z"/>
		<path class="st187" d="M703.33,408.78c-0.03,0.56-0.09,1.1-0.12,1.66C703.25,409.89,703.31,409.34,703.33,408.78z"/>
		<path class="st187" d="M576.72,253.37c0.16,0.02,0.31,0.06,0.47,0.08C577.03,253.43,576.88,253.39,576.72,253.37z"/>
		<path class="st187" d="M443.27,300.7c1.62-1.78,3.28-3.53,5-5.25C446.56,297.16,444.89,298.91,443.27,300.7z"/>
		<path class="st187" d="M702.76,416.36c-0.04,0.43-0.11,0.85-0.16,1.28C702.65,417.21,702.72,416.79,702.76,416.36z"/>
		<path class="st187" d="M701.81,423.89c-0.03,0.19-0.07,0.37-0.1,0.56C701.74,424.26,701.78,424.08,701.81,423.89z"/>
		<path class="st187" d="M702.61,384.72c0.05,0.43,0.11,0.85,0.16,1.28C702.72,385.57,702.65,385.15,702.61,384.72z"/>
		<path class="st187" d="M649.1,285.78c0.18,0.15,0.35,0.3,0.52,0.45C649.44,286.09,649.27,285.93,649.1,285.78z"/>
		<path class="st187" d="M668.91,305.52c0.16,0.19,0.33,0.37,0.49,0.56C669.24,305.89,669.07,305.71,668.91,305.52z"/>
		<path class="st187" d="M703.21,391.91c0.03,0.55,0.09,1.1,0.12,1.66C703.31,393.02,703.25,392.47,703.21,391.91z"/>
		<path class="st187" d="M438.6,306.09c0.16-0.19,0.33-0.38,0.49-0.57C438.94,305.71,438.76,305.89,438.6,306.09z"/>
		<path class="st187" d="M447.97,506.59c-1.61-1.62-3.17-3.26-4.7-4.93C444.8,503.34,446.37,504.98,447.97,506.59z"/>
		<path class="st187" d="M439,496.73c-0.13-0.15-0.26-0.3-0.39-0.45C438.73,496.43,438.87,496.57,439,496.73z"/>
		<path class="st187" d="M458.9,516.57c-0.14-0.11-0.27-0.24-0.41-0.35C458.63,516.33,458.76,516.46,458.9,516.57z"/>
		<path class="st187" d="M546.39,550.51c-0.5-0.02-0.99-0.08-1.49-0.11C545.39,550.43,545.89,550.49,546.39,550.51z"/>
		<path class="st187" d="M538.81,549.94c-0.39-0.04-0.78-0.1-1.17-0.14C538.04,549.84,538.42,549.9,538.81,549.94z"/>
		<path class="st187" d="M531.28,548.99c-0.16-0.02-0.32-0.06-0.48-0.08C530.96,548.93,531.12,548.96,531.28,548.99z"/>
		<path class="st187" d="M453.52,511.91c-1.66-1.51-3.29-3.07-4.89-4.66C450.22,508.83,451.85,510.39,453.52,511.91z"/>
		<path class="st187" d="M405.24,386c0.04-0.43,0.11-0.86,0.16-1.29C405.35,385.14,405.28,385.57,405.24,386z"/>
		<path class="st187" d="M406.29,424.45c-0.03-0.19-0.07-0.38-0.1-0.57C406.22,424.08,406.26,424.26,406.29,424.45z"/>
		<path class="st187" d="M404.67,393.57c0.03-0.56,0.09-1.11,0.12-1.67C404.76,392.46,404.7,393.01,404.67,393.57z"/>
		<path class="st187" d="M406.19,378.47c0.03-0.19,0.07-0.39,0.1-0.58C406.26,378.08,406.22,378.28,406.19,378.47z"/>
		<path class="st187" d="M405.4,417.64c-0.05-0.43-0.11-0.86-0.16-1.29C405.28,416.79,405.35,417.21,405.4,417.64z"/>
		<path class="st187" d="M404.79,410.47c-0.03-0.56-0.1-1.12-0.12-1.69C404.7,409.35,404.76,409.9,404.79,410.47z"/>
		<path class="st187" d="M701.71,377.91c0.03,0.19,0.07,0.37,0.1,0.56C701.78,378.28,701.74,378.1,701.71,377.91z"/>
		<path class="st187" d="M577.19,548.91c-0.16,0.02-0.31,0.06-0.47,0.08C576.88,548.96,577.03,548.93,577.19,548.91z"/>
		<path class="st187" d="M664.73,501.66c-1.45,1.59-2.95,3.16-4.47,4.7C661.77,504.82,663.27,503.26,664.73,501.66z"/>
		<path class="st187" d="M649.45,516.27c-0.12,0.1-0.23,0.2-0.35,0.3C649.22,516.47,649.33,516.37,649.45,516.27z"/>
		<path class="st187" d="M570.35,549.8c-0.39,0.04-0.77,0.1-1.16,0.14C569.58,549.9,569.96,549.84,570.35,549.8z"/>
		<path class="st187" d="M659.16,507.45c-1.53,1.52-3.09,3.01-4.67,4.45C656.08,510.46,657.63,508.97,659.16,507.45z"/>
		<path class="st187" d="M664.73,300.7c-3.25-3.58-6.67-7-10.25-10.25c1.78,1.62,3.53,3.29,5.25,5
			C661.45,297.16,663.11,298.92,664.73,300.7z"/>
		<path class="st187" d="M700.35,401.18c0-80.7-65.65-146.35-146.35-146.35c-80.7,0-146.35,65.65-146.35,146.35
			c0,80.7,65.65,146.35,146.35,146.35S700.35,481.87,700.35,401.18z M665.18,492.4l-2.46-2.02L665.18,492.4
			c-2.98,3.63-6.17,7.15-9.49,10.47l-1.95,1.95l-2.39-1.79l-7.91-7.9c-2.16,2.09-4.04,3.72-6.33,5.63
			c-20.08,16.78-44.41,26.98-70.39,29.51l-0.62-6.32c24.7-2.41,47.84-12.11,66.93-28.06c2.67-2.23,4.74-4.05,7.44-6.75l2.99-2.97
			l9.94,9.94c2.38-2.49,4.68-5.08,6.86-7.74l0,0c17.33-21.1,27.88-46.57,30.53-73.67l6.32,0.62
			C694.36,443.66,683.31,470.32,665.18,492.4z M554,522.23c-66.86,0-121.06-54.2-121.06-121.06c0-66.86,54.2-121.06,121.06-121.06
			c66.86,0,121.06,54.2,121.06,121.06C675.06,468.04,620.86,522.23,554,522.23z M665.25,310.04c21,25.6,32.56,57.97,32.56,91.13
			v3.18h-14.15c-0.71,28.83-11.08,56.81-29.39,79.09l-4.91-4.03c18.04-21.97,27.98-49.75,27.98-78.23V398h14.07
			c-0.71-30.59-11.68-60.28-31.08-83.93L665.25,310.04z M566.73,257.94c33.51,2.94,65.1,17.7,88.96,41.55l2.25,2.25l-9.73,9.73
			c19.55,20.47,31.88,47.49,34.83,76.45l-6.32,0.64c-2.9-28.59-15.41-55.18-35.21-74.86l-2.26-2.25l9.69-9.69
			c-22.52-21.49-51.78-34.78-82.75-37.5L566.73,257.94z M539.76,258.07c4.73-0.47,9.52-0.7,14.24-0.7h2.48l0.7,2.79l0,11.36
			c2.61,0.07,5.24,0.21,7.86,0.43c26.21,2.21,50.83,12.21,71.2,28.93l-4.03,4.91c-19.37-15.9-42.78-25.41-67.7-27.51
			c-3.51-0.3-7.04-0.45-10.51-0.45h-3.18v-14.07c-3.48,0.08-6.98,0.29-10.44,0.63c-31.46,3.09-61.14,17.16-83.58,39.61l-4.49-4.49
			C475.78,276.03,506.84,261.31,539.76,258.07z M433.99,321.93c2.73-4.12,5.7-8.15,8.84-11.97l2.01-2.45l10.95,8.94
			c1.87-2.17,3.68-4.11,5.85-6.28l0.65-0.7c21.17-21.17,49.17-34.43,78.85-37.35l0.62,6.32c-28.2,2.78-54.81,15.38-74.93,35.47
			l-0.64,0.7c-2.81,2.81-4.98,5.21-7.52,8.3l-2.01,2.45l-10.9-8.89c-2.27,2.9-4.44,5.91-6.47,8.97
			c-12.25,18.52-19.89,39.97-22.07,62.04l-6.32-0.63C413.19,363.76,421.17,341.31,433.99,321.93z M442.27,491.71
			c-10.17-12.54-18.09-26.56-23.55-41.67c-5.65-15.64-8.51-32.08-8.51-48.86v-0.75l1.21-2.43l1.96,0l10.97,0
			c0.59-24.5,8.02-48.13,21.57-68.52l5.29,3.52c-13.44,20.23-20.55,43.8-20.55,68.18v3.18l-14.07,0
			c0.71,30.32,11.51,59.81,30.61,83.35L442.27,491.71z M539.89,544.3c-28.36-2.76-55.03-13.81-77.1-31.94l0,0
			c-3.62-2.98-7.15-6.17-10.47-9.49l-0.8-0.8l-0.26-2.63l8.82-8.82c-19.91-20.91-32.36-48.03-35.15-76.71l6.32-0.62
			c2.76,28.27,15.38,54.94,35.54,75.1l2.25,2.25l-9.95,9.95c2.49,2.38,5.09,4.68,7.74,6.86l-2.02,2.46l2.02-2.46
			c21.1,17.33,46.58,27.89,73.68,30.53L539.89,544.3z M550.83,542.56l0-0.75l0-10.96c-28.83-0.71-56.81-11.08-79.09-29.39l4.03-4.91
			c21.97,18.05,49.75,27.98,78.24,27.98h3.18l0,14.07c31-0.72,61-11.95,84.82-31.82l4.07,4.88c-25.76,21.49-58.46,33.33-92.06,33.33
			h-1.96L550.83,542.56z"/>
		<path class="st187" d="M669.39,496.28c-0.1,0.12-0.21,0.24-0.31,0.36C669.18,496.52,669.29,496.4,669.39,496.28z"/>
		<path class="st187" d="M561.62,550.51c0.5-0.02,0.99-0.08,1.49-0.11C562.61,550.43,562.11,550.49,561.62,550.51z"/>
		<path class="st187" d="M638.12,317.06c-22.47-22.47-52.34-34.84-84.12-34.84c-31.78,0-61.65,12.37-84.12,34.84
			c-22.47,22.47-34.84,52.34-34.84,84.12c0,31.78,12.37,61.65,34.84,84.12c22.47,22.47,52.34,34.84,84.12,34.84
			c31.78,0,61.65-12.37,84.12-34.84c22.47-22.47,34.84-52.34,34.84-84.12C672.97,369.4,660.59,339.53,638.12,317.06z M638.06,480.57
			c-4.92,4.92-10.18,9.35-15.75,13.28L556.29,360.8l-67.61,135.78c-7.06-4.57-13.69-9.92-19.77-16.01
			c-1.69-1.69-3.32-3.42-4.89-5.19l72.67-142.11l-4.14-8.46l15.11-28.25h8.64l89.82,175.13
			C643.59,474.76,640.9,477.72,638.06,480.57z"/>
		<path class="st187" d="M406.29,377.89c4.22-27.01,15.67-51.63,32.31-71.8C421.46,326.81,410.4,351.48,406.29,377.89z"/>
		<path class="st187" d="M405.4,384.71c0.23-2.09,0.48-4.17,0.79-6.24C405.88,380.54,405.63,382.62,405.4,384.71z"/>
		<path class="st187" d="M453.52,290.45c1.6-1.45,3.24-2.87,4.91-4.25C456.77,287.58,455.13,288.99,453.52,290.45z"/>
		<path class="st187" d="M546.39,550.51c2.53,0.13,5.06,0.19,7.61,0.19c2.55,0,5.09-0.07,7.61-0.19c-2.52,0.13-5.06,0.19-7.61,0.19
			C551.45,550.7,548.91,550.64,546.39,550.51z"/>
		<path class="st187" d="M561.62,251.85c-2.53-0.13-5.07-0.19-7.62-0.19c-2.55,0-5.09,0.07-7.61,0.19c2.52-0.13,5.06-0.19,7.62-0.19
			C556.56,251.65,559.09,251.72,561.62,251.85z"/>
		<path class="st187" d="M404.79,391.9c0.12-1.97,0.25-3.95,0.45-5.9C405.04,387.96,404.91,389.93,404.79,391.9z"/>
		<path class="st187" d="M439.1,305.52c1.36-1.63,2.74-3.24,4.17-4.82C441.84,302.28,440.46,303.89,439.1,305.52z"/>
		<path class="st187" d="M447.97,506.59c0.1,0.1,0.2,0.21,0.3,0.32c0.12,0.12,0.24,0.22,0.35,0.34
			C448.41,507.03,448.19,506.81,447.97,506.59z"/>
		<polygon class="st187" points="448.27,295.45 448.27,295.45 448.27,295.45 		"/>
		<path class="st187" d="M530.8,548.9c-27.05-4.21-51.7-15.67-71.9-32.33C479.65,533.73,504.35,544.81,530.8,548.9z"/>
		<path class="st187" d="M443.27,501.66c-1.46-1.61-2.88-3.26-4.27-4.94C440.39,498.39,441.8,500.05,443.27,501.66z"/>
		<path class="st187" d="M458.5,516.22c-1.69-1.4-3.35-2.84-4.98-4.31C455.15,513.39,456.81,514.82,458.5,516.22z"/>
		<path class="st187" d="M537.64,549.8c-2.13-0.23-4.26-0.49-6.36-0.81C533.39,549.31,535.51,549.56,537.64,549.8z"/>
		<path class="st187" d="M544.9,550.4c-2.04-0.12-4.07-0.26-6.08-0.46C540.83,550.14,542.86,550.28,544.9,550.4z"/>
		<path class="st187" d="M404.48,401.18c0,2.54,0.07,5.08,0.19,7.6C404.54,406.26,404.48,403.73,404.48,401.18
			C404.48,401.18,404.48,401.18,404.48,401.18z"/>
		<path class="st187" d="M404.48,401.16c0-2.55,0.07-5.08,0.19-7.59C404.54,396.09,404.48,398.62,404.48,401.16z"/>
		<path class="st187" d="M405.24,416.36c-0.2-1.95-0.33-3.92-0.45-5.89C404.91,412.44,405.04,414.4,405.24,416.36z"/>
		<path class="st187" d="M406.19,423.89c-0.31-2.06-0.56-4.15-0.79-6.24C405.63,419.73,405.88,421.82,406.19,423.89z"/>
		<path class="st187" d="M438.61,496.27c-16.65-20.18-28.09-44.8-32.32-71.82C410.4,450.87,421.46,475.54,438.61,496.27z"/>
		<path class="st187" d="M702.61,417.63c-0.23,2.1-0.48,4.18-0.8,6.25C702.13,421.81,702.38,419.73,702.61,417.63z"/>
		<path class="st187" d="M654.49,511.9c-1.64,1.49-3.33,2.94-5.04,4.36C651.15,514.85,652.84,513.4,654.49,511.9z"/>
		<path class="st187" d="M664.73,300.7c1.43,1.57,2.82,3.19,4.18,4.82C667.55,303.89,666.17,302.28,664.73,300.7z"/>
		<path class="st187" d="M703.21,410.44c-0.12,1.98-0.25,3.96-0.45,5.92C702.96,414.4,703.09,412.42,703.21,410.44z"/>
		<path class="st187" d="M669.08,496.64c-1.42,1.71-2.86,3.38-4.35,5.03C666.22,500.02,667.67,498.34,669.08,496.64z"/>
		<path class="st187" d="M649.62,286.23c1.65,1.37,3.27,2.77,4.86,4.21C652.89,289,651.26,287.61,649.62,286.23z"/>
		<path class="st187" d="M702.76,386c0.2,1.96,0.33,3.94,0.45,5.92C703.09,389.94,702.96,387.96,702.76,386z"/>
		<path class="st187" d="M577.19,253.45c27.05,4.21,51.71,15.67,71.91,32.33C628.34,268.62,603.64,257.54,577.19,253.45z"/>
		<path class="st187" d="M701.81,378.47c0.31,2.07,0.57,4.16,0.8,6.25C702.38,382.63,702.13,380.54,701.81,378.47z"/>
		<path class="st187" d="M458.91,285.78c20.2-16.66,44.84-28.12,71.89-32.33C504.35,257.55,479.65,268.62,458.91,285.78z"/>
		<path class="st187" d="M669.4,306.09c16.65,20.18,28.09,44.8,32.32,71.82C697.61,351.49,686.54,326.82,669.4,306.09z"/>
		<path class="st187" d="M569.19,549.94c-2.02,0.2-4.05,0.34-6.09,0.46C565.14,550.28,567.17,550.14,569.19,549.94z"/>
		<path class="st187" d="M576.72,548.99c-2.11,0.32-4.23,0.58-6.37,0.81C572.48,549.57,574.61,549.31,576.72,548.99z"/>
		<path class="st187" d="M649.1,516.57c-20.2,16.67-44.86,28.12-71.91,32.34C603.65,544.81,628.35,533.73,649.1,516.57z"/>
		<path class="st187" d="M538.81,252.42c2.02-0.2,4.05-0.34,6.1-0.46C542.87,252.07,540.83,252.21,538.81,252.42z"/>
		<path class="st187" d="M531.28,253.37c2.11-0.32,4.23-0.58,6.37-0.81C535.52,252.79,533.39,253.05,531.28,253.37z"/>
		<path class="st187" d="M659.16,507.45c0.19-0.19,0.39-0.36,0.57-0.55c0.18-0.18,0.34-0.37,0.52-0.55
			C659.89,506.73,659.53,507.09,659.16,507.45z"/>
		<path class="st187" d="M703.53,401.18c0,2.55-0.07,5.09-0.19,7.6C703.46,406.26,703.53,403.72,703.53,401.18z"/>
		<path class="st187" d="M570.34,252.56c2.14,0.23,4.27,0.49,6.38,0.81C574.61,253.05,572.48,252.79,570.34,252.56z"/>
		<path class="st187" d="M563.07,251.95c2.05,0.12,4.09,0.26,6.12,0.47C567.16,252.21,565.12,252.07,563.07,251.95z"/>
		<path class="st187" d="M701.71,424.45c-4.22,27.02-15.67,51.65-32.32,71.83C686.54,475.55,697.61,450.87,701.71,424.45z"/>
		<path class="st187" d="M703.33,393.57c0.13,2.52,0.19,5.05,0.19,7.61C703.53,398.63,703.46,396.1,703.33,393.57z"/>
	</g>
	<g>
		<path class="st187" d="M782.49,623.47c-55.7,0-97.55,38.71-97.55,94.15c0,52.04,37.13,89.43,87.89,93.62l2.61,0.24
			c2.35,0.28,4.7,0.28,7.05,0.28c55.7,0,97.29-38.71,97.29-94.15C879.77,662.18,838.19,623.47,782.49,623.47z M801.23,766.8
			c-0.14,0.06-0.3,0.14-0.47,0.18c-2.04,0.89-4.19,1.62-6.38,2.19c-3.81,1.03-7.82,1.56-11.93,1.56c-3.3,0-6.52-0.34-9.64-0.99
			c-3.32-0.71-6.54-1.76-9.58-3.12c-0.04-0.02-0.08-0.04-0.12-0.06c-17.39-7.11-28.65-23.83-30.15-44.22
			c-0.04-0.67-0.08-1.32-0.12-1.98c-0.04-0.91-0.06-1.82-0.06-2.73c0-0.93,0.02-1.86,0.06-2.77c0.91-22.03,12.7-39.81,31.48-46.71
			c0.04-0.02,0.08-0.04,0.14-0.04c5.57-2.33,11.64-3.6,17.98-3.6c6.28,0,12.29,1.26,17.82,3.52c19.78,7.11,31.89,26.18,31.89,49.61
			C832.17,740.19,820.35,759.37,801.23,766.8z"/>
	</g>
</g>
</svg>
