<?xml version="1.0" encoding="utf-8"?>
<!-- Generator: Adobe Illustrator 26.0.0, SVG Export Plug-In . SVG Version: 6.00 Build 0)  -->
<svg version="1.1" id="Camada_1" xmlns="http://www.w3.org/2000/svg" xmlns:xlink="http://www.w3.org/1999/xlink" x="0px" y="0px"
	 viewBox="0 0 1080 1080" style="enable-background:new 0 0 1080 1080;" xml:space="preserve">
<style type="text/css">
	.st0{fill:url(#SVGID_1_);}
	.st1{fill:url(#SVGID_00000016072412481586085400000008830635971604729735_);}
	.st2{fill:url(#SVGID_00000013878566368522910410000015678470321373250702_);}
	.st3{fill:url(#SVGID_00000011014277333613250100000008050883421984229765_);}
	.st4{fill:url(#SVGID_00000147185520054856722650000016501035456837202090_);}
	.st5{fill:url(#SVGID_00000018209540307238632280000014238751783673377714_);}
	.st6{fill:url(#SVGID_00000049941303847136890220000007135430077114061736_);}
	.st7{fill:url(#SVGID_00000062162400471238622640000006043290342674879135_);}
	.st8{fill:url(#SVGID_00000072271910434587599710000011959468620307973520_);}
	.st9{fill:url(#SVGID_00000071523706091390473870000012258227353716215941_);}
	.st10{fill:url(#SVGID_00000077304962810634545480000002840665476293388449_);}
	.st11{fill:url(#SVGID_00000004506886532402806280000015025703175613535626_);}
	.st12{fill:url(#SVGID_00000080191906066417565870000003981911083423643057_);}
	.st13{fill:url(#SVGID_00000139987286885096644190000001569589599560254132_);}
	.st14{fill:url(#SVGID_00000030464383547257449220000005848861782112502438_);}
	.st15{fill:url(#SVGID_00000050661309866202924230000010546263086688239746_);}
	.st16{fill:url(#SVGID_00000012459963527280315620000017663307622643598495_);}
	.st17{fill:url(#SVGID_00000041262722480462029170000011548826401599769986_);}
	.st18{fill:url(#SVGID_00000167371094081819533800000011039844926596677259_);}
	.st19{fill:url(#SVGID_00000036930765192096905360000000732249049793142695_);}
	.st20{fill:url(#SVGID_00000013876758348858915940000014696366920347637183_);}
	.st21{fill:url(#SVGID_00000061444641521594080800000001802179056470629048_);}
	.st22{fill:url(#SVGID_00000176745786445960014180000007488471053483101609_);}
	.st23{fill:url(#SVGID_00000174598701877618414300000008550240223786083771_);}
	.st24{fill:url(#SVGID_00000152238817912080365370000012658118968508328094_);}
	.st25{fill:url(#SVGID_00000128474447587357170750000006917304442885201034_);}
	.st26{fill:url(#SVGID_00000146466790123371089700000015892067093327071658_);}
	.st27{fill:url(#SVGID_00000130647866669670365400000016737388289630854076_);}
	.st28{fill:url(#SVGID_00000125583365253760072740000003426069573967366562_);}
	.st29{fill:url(#SVGID_00000072973329998447439560000007074837632208819332_);}
	.st30{fill:url(#SVGID_00000068643703157288840220000001917626108059473333_);}
	.st31{fill:url(#SVGID_00000075864622442489890220000012356269247639200406_);}
	.st32{fill:url(#SVGID_00000163048891835582324730000012975547076086931598_);}
	.st33{fill:url(#SVGID_00000128450060390876782160000013858301306455031177_);}
	.st34{fill:url(#SVGID_00000008145023280381662320000004354715419465692331_);}
	.st35{fill:url(#SVGID_00000167375283403282642380000002094489475906771361_);}
	.st36{fill:url(#SVGID_00000142136337966083616440000004688496666730581644_);}
	.st37{fill:url(#SVGID_00000095325413060729732030000000719948231210497419_);}
	.st38{fill:url(#SVGID_00000082364203558611586640000006913128976716396436_);}
	.st39{fill:url(#SVGID_00000108993813261183228270000002579264185384703142_);}
	.st40{fill:url(#SVGID_00000104675732317519011920000003173295850434551435_);}
	.st41{fill:url(#SVGID_00000010303920245608318910000014245190390013221260_);}
	.st42{fill:url(#SVGID_00000153666358158483132720000008029234404150831495_);}
	.st43{fill:url(#SVGID_00000143575408745134602670000000698236178696667539_);}
	.st44{fill:url(#SVGID_00000062870329774344680230000017909164631716421775_);}
	.st45{fill:url(#SVGID_00000110461908546727188490000006170866972532078267_);}
	.st46{fill:url(#SVGID_00000105401104185707965760000007786618205779111348_);}
	.st47{fill:url(#SVGID_00000181772865054483612360000015902881294447290769_);}
	.st48{fill:url(#SVGID_00000121250990195088327470000012898691751641568164_);}
	.st49{fill:url(#SVGID_00000093177547456501790500000007088310160090413991_);}
	.st50{fill:url(#SVGID_00000110444786642609720200000018413028061238502580_);}
	.st51{fill:url(#SVGID_00000024712437225579333930000000726216664208717458_);}
	.st52{fill:url(#SVGID_00000165209676245815881760000014600310129872829358_);}
	.st53{fill:url(#SVGID_00000039109348577942043090000016266900301889180033_);}
	.st54{fill:url(#SVGID_00000045610462167549922600000016791197062962037940_);}
	.st55{fill:url(#SVGID_00000109001359467402537710000006790632445092589216_);}
	.st56{fill:url(#SVGID_00000014602672343091354420000003297787708899172275_);}
	.st57{fill:url(#SVGID_00000120550802858145512490000003684161975546010502_);}
	.st58{fill:url(#SVGID_00000024684642686233352480000018041770006880501383_);}
	.st59{fill:url(#SVGID_00000034783164552933818590000006392384285573087889_);}
	.st60{fill:url(#SVGID_00000039134447550945880360000000508520190985098375_);}
	.st61{fill:url(#SVGID_00000114057598353607454150000007005850548118599587_);}
	.st62{fill:url(#SVGID_00000112622372399556179070000001099965935572781231_);}
	.st63{fill:url(#SVGID_00000170248327553690044090000004369217737962103994_);}
	.st64{fill:url(#SVGID_00000055683375071884658230000016707527784527518860_);}
	.st65{fill:url(#SVGID_00000013886573287343357700000003382716426921907367_);}
	.st66{fill:url(#SVGID_00000172416215033012650670000014988135299242497213_);}
	.st67{fill:url(#SVGID_00000097485712008159530030000000642837091525260416_);}
	.st68{fill:url(#SVGID_00000041271396821110519480000011696655891716052649_);}
	.st69{fill:url(#SVGID_00000132803274032453288260000016929616612155867540_);}
	.st70{fill:url(#SVGID_00000035498829533663265160000011925088725216390815_);}
	.st71{fill:url(#SVGID_00000127033668384911421550000010149460847900908427_);}
	.st72{fill:url(#SVGID_00000024687376132407273960000010966116228362306461_);}
	.st73{fill:url(#SVGID_00000023996746985396965190000007672565848982452870_);}
	.st74{fill:url(#SVGID_00000078754313561049541740000000832909472836636549_);}
	.st75{fill:url(#SVGID_00000062901398411668738850000016467212444952884099_);}
	.st76{fill:url(#SVGID_00000004509763060251296490000015840969702413795224_);}
	.st77{fill:url(#SVGID_00000163764536765339374770000008893554880783242159_);}
	.st78{fill:url(#SVGID_00000165194800019621584210000012710089452100719252_);}
	.st79{fill:url(#SVGID_00000047046501140927575600000002236895745712231855_);}
	.st80{fill:url(#SVGID_00000065763867579092943440000009375920420960243117_);}
	.st81{fill:url(#SVGID_00000179629204264105151410000010446045136907120521_);}
	.st82{fill:url(#SVGID_00000083083501411918281480000003470826561536585351_);}
	.st83{fill:url(#SVGID_00000072270971500806073630000013833178052762867842_);}
	.st84{fill:url(#SVGID_00000130628748124708222930000005536911621205373621_);}
	.st85{fill:url(#SVGID_00000181783429755341179170000007423098028211189393_);}
	.st86{fill:url(#SVGID_00000147213794183294013690000018052374991969869473_);}
	.st87{fill:url(#SVGID_00000108291414493834265520000008388640656040681393_);}
	.st88{fill:url(#SVGID_00000095306256211020469910000012421979576552917128_);}
	.st89{fill:url(#SVGID_00000173871764853996464920000014731931330680140979_);}
	.st90{fill:url(#SVGID_00000062194298258756906680000013565146054515848854_);}
	.st91{fill:url(#SVGID_00000181806345150051536790000016974923563524235427_);}
	.st92{fill:url(#SVGID_00000121978216677189879300000001389443350841513116_);}
	.st93{fill:url(#SVGID_00000015340861317662766810000007322849226665174719_);}
	.st94{fill:url(#SVGID_00000128446048978796189270000013254233816870652290_);}
	.st95{fill:url(#SVGID_00000144320162276567385950000011175695685699753607_);}
	.st96{fill:url(#SVGID_00000077318488009254747010000004098705957370315677_);}
	.st97{fill:url(#SVGID_00000156570354058712518900000012929516868970781572_);}
	.st98{fill:url(#SVGID_00000150079542736325059920000000499785409886896035_);}
	.st99{fill:url(#SVGID_00000087413526631081882030000015164862849152422847_);}
	.st100{fill:url(#SVGID_00000051352966338545674330000012280767253673394848_);}
	.st101{fill:url(#SVGID_00000089568960212966658040000000395258565892222886_);}
	.st102{fill:url(#SVGID_00000054959391886056738340000004387820656011627443_);}
	.st103{fill:url(#SVGID_00000037681899266167839250000017882241210268221853_);}
	.st104{fill:url(#SVGID_00000119102871332326864670000012396813083133739184_);}
	.st105{fill:url(#SVGID_00000178898893687984596110000002321411808983805371_);}
	.st106{fill:url(#SVGID_00000117641576528467263670000011223043780012499894_);}
	.st107{fill:url(#SVGID_00000097479652563025507850000013938221114334327182_);}
	.st108{fill:url(#SVGID_00000079444098220454343020000008515192622895244717_);}
	.st109{fill:url(#SVGID_00000065058727028138242510000016861747289796814987_);}
	.st110{fill:url(#SVGID_00000029005398058962898030000010062220096906423992_);}
	.st111{fill:url(#SVGID_00000158016417591387572630000007812509315256551858_);}
	.st112{fill:url(#SVGID_00000128443517952745093040000004846235065456369048_);}
	.st113{fill:url(#SVGID_00000135669300510552188990000008003192720527273104_);}
	.st114{fill:url(#SVGID_00000097471996989908979320000008849167350797586599_);}
	.st115{fill:url(#SVGID_00000089532600616147648300000011760625311586068865_);}
	.st116{fill:url(#SVGID_00000078742734223663362640000009285785744914995846_);}
	.st117{fill:url(#SVGID_00000106828139513412235530000001437148147653880763_);}
	.st118{fill:url(#SVGID_00000137126372393559416460000010616989010628750775_);}
	.st119{fill:url(#SVGID_00000160874423494208457160000014402128414426790576_);}
	.st120{fill:url(#SVGID_00000111900747947600435480000003621300121098945420_);}
	.st121{fill:url(#SVGID_00000005258700491217047130000013732282930395342243_);}
	.st122{fill:url(#SVGID_00000083776814346701121250000004974916272937058729_);}
	.st123{fill:url(#SVGID_00000050665134424044008120000015139087017655047309_);}
	.st124{fill:url(#SVGID_00000039828860025661193230000006769051877873267090_);}
	.st125{fill:url(#SVGID_00000094594896021457462660000005061867745997197489_);}
	.st126{fill:url(#SVGID_00000065781514953456343520000017493493413662256039_);}
	.st127{fill:url(#SVGID_00000044135563191580931770000013664769807860557989_);}
	.st128{fill:url(#SVGID_00000150066347279995841030000000695213731571661230_);}
	.st129{fill:url(#SVGID_00000042737478053032844400000007569823259347266946_);}
	.st130{fill:url(#SVGID_00000090987976939777246920000014969662417472177282_);}
	.st131{fill:url(#SVGID_00000099642315163650862070000009491557801785719938_);}
	.st132{fill:url(#SVGID_00000054968583356119045360000011457347912309461434_);}
	.st133{fill:url(#SVGID_00000129174335419259867010000003294567280283383697_);}
	.st134{fill:url(#SVGID_00000096021472459325857330000011530018999040690315_);}
	.st135{fill:url(#SVGID_00000079457893168033134200000005304016487066393992_);}
	.st136{fill:url(#SVGID_00000109745312846443743350000010545649390171598502_);}
	.st137{fill:url(#SVGID_00000114056131445679517700000014540193760572640141_);}
	.st138{fill:url(#SVGID_00000133516666399297125220000016496211553782143883_);}
	.st139{fill:url(#SVGID_00000042720969755908918250000001278689169476407993_);}
	.st140{fill:url(#SVGID_00000038376862227637597910000016468499894560448952_);}
	.st141{fill:url(#SVGID_00000007428458920416238810000003057679762215622817_);}
	.st142{fill:url(#SVGID_00000031903271617203568650000007019747751622699958_);}
	.st143{fill:url(#SVGID_00000034791944158152192730000009547836913289034667_);}
	.st144{fill:url(#SVGID_00000181057417957551818040000011233296106354538125_);}
	.st145{fill:url(#SVGID_00000091695420181928610030000014209801291651097256_);}
	.st146{fill:url(#SVGID_00000123422876804099848910000004478970196649130132_);}
	.st147{fill:url(#SVGID_00000057134304330597333890000008123907498522015154_);}
	.st148{fill:url(#SVGID_00000129890692519846586260000004749752567599959484_);}
	.st149{fill:url(#SVGID_00000125594919497531077170000012536148749991132305_);}
	.st150{fill:url(#SVGID_00000140712791705154112660000006215023111209781683_);}
	.st151{fill:url(#SVGID_00000157285951007418668930000017704188936881856925_);}
	.st152{fill:url(#SVGID_00000040574458550232392970000012083133287390078859_);}
	.st153{fill:url(#SVGID_00000106850557520827662460000005777324773328856245_);}
	.st154{fill:url(#SVGID_00000109751623546471120590000018009264818616172961_);}
	.st155{fill:url(#SVGID_00000116937562744773564150000016018822803472419968_);}
	.st156{fill:url(#SVGID_00000085968069383693765030000000844154637637047741_);}
	.st157{fill:url(#SVGID_00000078025004380819423700000011342420360868569742_);}
	.st158{fill:url(#SVGID_00000003805326234870289160000016564128566815544743_);}
	.st159{fill:url(#SVGID_00000143593059833688929190000009952009411751145369_);}
	.st160{fill:url(#SVGID_00000013904394053682409960000017119507510361027760_);}
	.st161{fill:url(#SVGID_00000072983432714202403190000006509628004550313898_);}
	.st162{fill:url(#SVGID_00000112608628798911480870000001831305681279744160_);}
	.st163{fill:url(#SVGID_00000142893874794345794920000003275630213529719946_);}
	.st164{fill:url(#SVGID_00000143580072276598950610000006732317051721888155_);}
	.st165{fill:url(#SVGID_00000116202454948702309820000005921949542032772261_);}
	.st166{fill:url(#SVGID_00000089566151749089340960000008765780587902342585_);}
	.st167{fill:url(#SVGID_00000146466625445217170590000017642096996299910552_);}
	.st168{fill:url(#SVGID_00000026883568516772753680000005722054990930110855_);}
	.st169{fill:url(#SVGID_00000157992631421202160220000018001762824812118710_);}
	.st170{fill:url(#SVGID_00000016062443788095800510000001195601183049531297_);}
	.st171{fill:url(#SVGID_00000050657161349333386220000000387535560176657582_);}
	.st172{fill:url(#SVGID_00000097483954813216772010000010368325164253189773_);}
	.st173{fill:url(#SVGID_00000137103168461439714670000001363045596275955624_);}
	.st174{fill:url(#SVGID_00000093888284739241758430000014424711808354960317_);}
	.st175{fill:url(#SVGID_00000056399751370805782280000009200768358738051979_);}
	.st176{fill:url(#SVGID_00000135674819287827322700000015631214013242996905_);}
	.st177{fill:url(#SVGID_00000085942367105739331530000012599180573612595339_);}
	.st178{fill:url(#SVGID_00000068645891671695784560000015733660283751885206_);}
	.st179{fill:url(#SVGID_00000146498332283356001160000006201381048913161374_);}
	.st180{fill:url(#SVGID_00000152959595507379725310000014303722870979318166_);}
	.st181{fill:url(#SVGID_00000122721980197237212110000007584560028670447015_);}
	.st182{fill:url(#SVGID_00000120529825120109557050000013172045716146253190_);}
	.st183{fill:url(#SVGID_00000108301543974844098900000001067146915803681698_);}
	.st184{fill:url(#SVGID_00000119806834872842479090000004125841952017281468_);}
	.st185{fill:url(#SVGID_00000145053939582528428430000007938581525232744862_);}
	.st186{fill:url(#SVGID_00000054954322619690783530000004308717423244029062_);}
	.st187{fill:#F2F2F2;}
</style>
<g>
	<g>
		<linearGradient id="SVGID_1_" gradientUnits="userSpaceOnUse" x1="392.8803" y1="757.3627" x2="382.2713" y2="1043.8057">
			<stop  offset="0" style="stop-color:#C6A65D"/>
			<stop  offset="1" style="stop-color:#90774F"/>
		</linearGradient>
		<path class="st0" d="M548.62,878.77c0-88.36-71.88-160.24-160.24-160.24c-88.36,0-160.24,71.89-160.24,160.24
			c0,88.36,71.88,160.24,160.24,160.24S548.62,967.12,548.62,878.77z M510.12,978.64l-2.69-2.21L510.12,978.64
			c-3.26,3.97-6.76,7.83-10.39,11.46l-2.13,2.13l-2.61-1.96l-8.66-8.65c-2.37,2.28-4.42,4.07-6.93,6.16
			c-21.98,18.37-48.63,29.54-77.07,32.31l-0.67-6.92c27.04-2.63,52.38-13.26,73.28-30.73c2.92-2.44,5.2-4.44,8.15-7.39l3.27-3.25
			l10.88,10.89c2.61-2.73,5.12-5.57,7.51-8.47l0,0c18.97-23.1,30.53-50.99,33.42-80.67l6.92,0.68
			C542.06,925.29,529.97,954.47,510.12,978.64z M388.38,1011.32c-73.2,0-132.55-59.34-132.55-132.55
			c0-73.2,59.34-132.55,132.55-132.55c73.2,0,132.55,59.34,132.55,132.55C520.93,951.97,461.59,1011.32,388.38,1011.32z
			 M510.19,778.98c22.99,28.03,35.65,63.47,35.65,99.78v3.48h-15.49c-0.78,31.57-12.13,62.2-32.18,86.6l-5.38-4.42
			c19.76-24.05,30.64-54.48,30.64-85.66v-3.48h15.41c-0.78-33.49-12.79-66-34.03-91.89L510.19,778.98z M402.32,721.93
			c36.69,3.22,71.28,19.38,97.4,45.5l2.46,2.46l-10.65,10.65c21.41,22.41,34.91,52,38.13,83.71l-6.92,0.7
			c-3.18-31.3-16.87-60.41-38.56-81.97l-2.48-2.46l10.61-10.61c-24.65-23.54-56.69-38.08-90.6-41.05L402.32,721.93z M372.79,722.08
			c5.18-0.51,10.42-0.77,15.59-0.77h2.72l0.76,3.05l0,12.44c2.86,0.07,5.74,0.23,8.61,0.47c28.7,2.42,55.66,13.37,77.96,31.68
			l-4.41,5.38c-21.2-17.41-46.84-27.82-74.13-30.12c-3.84-0.32-7.71-0.49-11.5-0.49h-3.48v-15.41c-3.81,0.09-7.64,0.32-11.44,0.69
			c-34.45,3.39-66.95,18.79-91.52,43.36l-4.92-4.92C302.74,741.74,336.74,725.62,372.79,722.08z M256.98,792
			c2.99-4.52,6.24-8.93,9.68-13.11l2.2-2.68l11.99,9.79c2.05-2.37,4.03-4.5,6.4-6.88l0.71-0.77c23.17-23.18,53.84-37.7,86.34-40.9
			l0.68,6.92c-30.88,3.04-60.01,16.83-82.04,38.84l-0.71,0.77c-3.07,3.08-5.46,5.71-8.23,9.09l-2.2,2.68l-11.93-9.74
			c-2.49,3.18-4.86,6.47-7.08,9.83c-13.42,20.28-21.77,43.77-24.16,67.93l-6.92-0.68C234.2,837.8,242.94,813.22,256.98,792z
			 M266.04,977.9c-11.13-13.73-19.81-29.08-25.79-45.63c-6.19-17.13-9.32-35.13-9.32-53.5v-0.82l1.33-2.66l2.15,0l12.01,0
			c0.65-26.83,8.78-52.69,23.62-75.02l5.8,3.85c-14.72,22.15-22.5,47.96-22.5,74.65v3.48l-15.41,0
			c0.77,33.2,12.61,65.49,33.52,91.27L266.04,977.9z M372.93,1035.48c-31.06-3.03-60.25-15.12-84.42-34.98l0,0
			c-3.97-3.26-7.83-6.76-11.46-10.39l-0.88-0.88l-0.29-2.88l9.66-9.66c-21.8-22.9-35.43-52.59-38.49-83.99l6.92-0.68
			c3.02,30.95,16.84,60.16,38.91,82.23l2.46,2.46l-10.89,10.89c2.73,2.61,5.57,5.12,8.47,7.51l-2.21,2.69l2.21-2.69
			c23.1,18.98,51,30.54,80.68,33.43L372.93,1035.48z M384.91,1033.57l0-0.83l0-12.01c-31.57-0.78-62.2-12.14-86.6-32.18l4.42-5.38
			c24.05,19.76,54.48,30.64,85.66,30.64h3.48l0,15.41c33.94-0.79,66.8-13.09,92.87-34.84l4.46,5.34
			c-28.21,23.53-64.01,36.49-100.8,36.49h-2.15L384.91,1033.57z"/>
		
			<linearGradient id="SVGID_00000102532664502882647140000003888397256703397025_" gradientUnits="userSpaceOnUse" x1="392.8803" y1="757.3627" x2="382.2713" y2="1043.8057">
			<stop  offset="0" style="stop-color:#C6A65D"/>
			<stop  offset="1" style="stop-color:#90774F"/>
		</linearGradient>
		<path style="fill:url(#SVGID_00000102532664502882647140000003888397256703397025_);" d="M480.49,786.66
			c-24.6-24.6-57.31-38.15-92.11-38.15s-67.5,13.55-92.11,38.15c-24.6,24.6-38.15,57.31-38.15,92.11c0,34.79,13.55,67.5,38.15,92.11
			s57.31,38.15,92.11,38.15c34.79,0,67.5-13.55,92.11-38.15c24.6-24.6,38.15-57.31,38.15-92.11
			C518.64,843.97,505.09,811.26,480.49,786.66z M480.43,965.69c-5.38,5.38-11.14,10.24-17.24,14.54l-72.3-145.68l-74.03,148.67
			c-7.73-5-14.99-10.86-21.65-17.53c-1.85-1.85-3.64-3.74-5.36-5.68l79.56-155.6l-4.53-9.26l16.55-30.93h9.46l98.35,191.76
			C486.48,959.33,483.54,962.58,480.43,965.69z"/>
	</g>
	
		<linearGradient id="SVGID_00000029732723494456315680000003694984880450214846_" gradientUnits="userSpaceOnUse" x1="268.0539" y1="197.6209" x2="596.2874" y2="197.6209">
		<stop  offset="0" style="stop-color:#C6A65D"/>
		<stop  offset="1" style="stop-color:#90774F"/>
	</linearGradient>
	<path style="fill:url(#SVGID_00000029732723494456315680000003694984880450214846_);" d="M508.46,352.87l-75.41-152.14
		l-76.29,152.14h-88.71l116.66-220l-10.2-20.85l37.26-69.64h21.29l163.23,310.49H508.46z"/>
	
		<linearGradient id="SVGID_00000142154452951682838770000007650168314639708089_" gradientUnits="userSpaceOnUse" x1="544.1707" y1="195.2455" x2="834.7012" y2="195.2455">
		<stop  offset="0" style="stop-color:#C6A65D"/>
		<stop  offset="1" style="stop-color:#90774F"/>
	</linearGradient>
	<path style="fill:url(#SVGID_00000142154452951682838770000007650168314639708089_);" d="M649.29,350.49V111.71H544.17L577.88,40
		H834.7v71.71H730.02V260l18.18,18.19v72.3H649.29z"/>
	
		<linearGradient id="SVGID_00000080208878731761705330000005185885344370605710_" gradientUnits="userSpaceOnUse" x1="584.551" y1="519.8531" x2="825.211" y2="519.8531">
		<stop  offset="0" style="stop-color:#C6A65D"/>
		<stop  offset="1" style="stop-color:#90774F"/>
	</linearGradient>
	<path style="fill:url(#SVGID_00000080208878731761705330000005185885344370605710_);" d="M806.15,611.16l-5.97-5.69H683.03V364.61
		h-98.48v71.87l18.64,18.62V675.1h222.02v-45.32L806.15,611.16z"/>
	
		<linearGradient id="SVGID_00000059300795656605480210000010006468348828824220_" gradientUnits="userSpaceOnUse" x1="266.7547" y1="523.1998" x2="536.665" y2="523.1998">
		<stop  offset="0" style="stop-color:#C6A65D"/>
		<stop  offset="1" style="stop-color:#90774F"/>
	</linearGradient>
	<polygon style="fill:url(#SVGID_00000059300795656605480210000010006468348828824220_);" points="456.82,367.95 456.82,484.17 
		366.11,483.73 366.11,367.95 266.75,367.95 266.75,439.81 285.83,458.44 285.83,678.45 366.11,678.45 366.11,553.48 456.82,553.81 
		456.82,678.45 536.66,678.45 536.66,367.95 	"/>
	
		<linearGradient id="SVGID_00000045599976718323151550000004540404082139995276_" gradientUnits="userSpaceOnUse" x1="576.4041" y1="878.767" x2="851.8559" y2="878.767">
		<stop  offset="0" style="stop-color:#C6A65D"/>
		<stop  offset="1" style="stop-color:#90774F"/>
	</linearGradient>
	<path style="fill:url(#SVGID_00000045599976718323151550000004540404082139995276_);" d="M576.4,991.21l43.47-62.54
		c22.62,22.18,58.55,40.81,102.02,40.81c27.94,0,44.8-8.87,44.8-24.4c0-40.81-179.64-6.65-179.64-126.41
		c0-51.9,45.24-98.47,126.41-98.47c17.3,0,33.71,1.78,49.23,4.88l22.62-7.54l66.53,33.27l-54.56,72.3
		c-26.61-21.73-61.21-31.94-92.71-31.94c-23.51,0-34.15,7.54-34.15,21.29c0,38.15,179.64,9.76,179.64,124.64
		c0,62.1-47.02,102.91-132.62,102.91C652.7,1040,608.34,1020.48,576.4,991.21z"/>
</g>
</svg>
