<?xml version="1.0" encoding="utf-8"?>
<!-- Generator: Adobe Illustrator 26.0.0, SVG Export Plug-In . SVG Version: 6.00 Build 0)  -->
<svg version="1.1" id="Camada_1" xmlns="http://www.w3.org/2000/svg" xmlns:xlink="http://www.w3.org/1999/xlink" x="0px" y="0px"
	 viewBox="0 0 1080 1080" style="enable-background:new 0 0 1080 1080;" xml:space="preserve">
<style type="text/css">
	.st0{fill:url(#SVGID_1_);}
	.st1{fill:url(#SVGID_00000153691685991854894770000004320644219609884836_);}
	.st2{fill:url(#SVGID_00000121984174227249774100000004568927094002351525_);}
	.st3{fill:url(#SVGID_00000023241279729931100070000001423345226000156822_);}
	.st4{fill:url(#SVGID_00000169550392675816290300000004863822755196008336_);}
	.st5{fill:url(#SVGID_00000135672574649281183080000013933744000555563156_);}
	.st6{fill:url(#SVGID_00000088816672467050417270000007371619820079571131_);}
	.st7{fill:url(#SVGID_00000064326554559400903240000000782589247571208380_);}
	.st8{fill:url(#SVGID_00000144326840694070054620000007406822312013479319_);}
	.st9{fill:url(#SVGID_00000183936025923635923600000009597714018844241318_);}
	.st10{fill:url(#SVGID_00000005247097774606420170000015264439286343233172_);}
	.st11{fill:url(#SVGID_00000031910311269153595500000018081556235925686926_);}
	.st12{fill:url(#SVGID_00000046308311189108378880000009604008341391157950_);}
	.st13{fill:url(#SVGID_00000170968092445732177450000010402084931856167307_);}
	.st14{fill:url(#SVGID_00000166656599385407296420000003859664306980378808_);}
	.st15{fill:url(#SVGID_00000147218616692669578000000004493445081286208927_);}
	.st16{fill:url(#SVGID_00000134221721543690369070000013905267047096414854_);}
	.st17{fill:url(#SVGID_00000100346926045398272210000004503886839236915625_);}
	.st18{fill:url(#SVGID_00000179619178727860351520000001138184733109098160_);}
	.st19{fill:url(#SVGID_00000118377641171740420520000012607496412609124740_);}
	.st20{fill:url(#SVGID_00000003789768229710095640000000380232340987683505_);}
	.st21{fill:url(#SVGID_00000118357428725633029090000001223190869312402076_);}
	.st22{fill:url(#SVGID_00000021111805938599617190000005836487028761649589_);}
	.st23{fill:url(#SVGID_00000007415827104368507790000001298052309384483971_);}
	.st24{fill:url(#SVGID_00000148661866609365543840000000504357839892352919_);}
	.st25{fill:url(#SVGID_00000162334000565420575670000011355648602414043064_);}
	.st26{fill:url(#SVGID_00000164481567176993993130000015995755326076387736_);}
	.st27{fill:url(#SVGID_00000164474004399356201500000010944593208002521765_);}
	.st28{fill:url(#SVGID_00000057826944411603968540000011971963619748863133_);}
	.st29{fill:url(#SVGID_00000073719575335050160450000006335060399143116192_);}
	.st30{fill:url(#SVGID_00000141450953405576906790000011034718778691696046_);}
	.st31{fill:url(#SVGID_00000144296469342318768150000005552871090650324910_);}
	.st32{fill:url(#SVGID_00000080924601852153413390000011815663336002359436_);}
	.st33{fill:url(#SVGID_00000006681931854758757350000005823522344301462155_);}
	.st34{fill:url(#SVGID_00000131356759771402944320000007137166386241019780_);}
	.st35{fill:url(#SVGID_00000180331261062197777100000002254942835288299142_);}
	.st36{fill:url(#SVGID_00000132798939561795418430000017998615840057570451_);}
	.st37{fill:url(#SVGID_00000178192152792861566930000015587435429394240162_);}
	.st38{fill:url(#SVGID_00000100346658540913037670000013468617645777086083_);}
	.st39{fill:url(#SVGID_00000119831444064024430240000010446624203550020514_);}
	.st40{fill:url(#SVGID_00000007387631621250740120000011780434705406179246_);}
	.st41{fill:url(#SVGID_00000046301431216772570190000017511292542816899223_);}
	.st42{fill:url(#SVGID_00000076585814060484836960000012291192035524746931_);}
	.st43{fill:url(#SVGID_00000087411215303064865630000008478814129547227014_);}
	.st44{fill:url(#SVGID_00000029015039701319340160000013715782466826941859_);}
	.st45{fill:url(#SVGID_00000036235404866578819540000017055262252808700854_);}
	.st46{fill:url(#SVGID_00000017487760271783192970000016568761932930460064_);}
	.st47{fill:url(#SVGID_00000152980532486292406070000009484648607647116963_);}
	.st48{fill:url(#SVGID_00000035523660924151553930000002102844885541686912_);}
	.st49{fill:url(#SVGID_00000144327528371517548930000017739458912494535849_);}
	.st50{fill:url(#SVGID_00000110469573590534109070000007733993521312236433_);}
	.st51{fill:url(#SVGID_00000156570281240639018130000006264180100702404994_);}
	.st52{fill:url(#SVGID_00000115496163437106966550000011756060706788361632_);}
	.st53{fill:url(#SVGID_00000150818972083038794350000008058903182656705952_);}
	.st54{fill:url(#SVGID_00000180337312536941566320000007824248304755392642_);}
	.st55{fill:url(#SVGID_00000056405648359118287750000000333619971187600779_);}
	.st56{fill:url(#SVGID_00000173843572054384089920000018013172155068313781_);}
	.st57{fill:url(#SVGID_00000129909747869620031220000012886360844844652946_);}
	.st58{fill:url(#SVGID_00000061431231285751131620000005062849054975007923_);}
	.st59{fill:url(#SVGID_00000080911390126813356100000004234349057388539790_);}
	.st60{fill:url(#SVGID_00000034796762469032404810000006720272052466001304_);}
	.st61{fill:url(#SVGID_00000127724684294722037980000014188096486193517725_);}
	.st62{fill:url(#SVGID_00000119112966776270537840000016176813596784061858_);}
	.st63{fill:url(#SVGID_00000177467749423682680500000003015442679718713774_);}
	.st64{fill:url(#SVGID_00000062884267436894470320000017333835492958894243_);}
	.st65{fill:url(#SVGID_00000137814148966986955540000000152479488855343549_);}
	.st66{fill:url(#SVGID_00000095318494579836696630000004366759226563255953_);}
	.st67{fill:url(#SVGID_00000048462187619469677490000003536205437834578832_);}
	.st68{fill:url(#SVGID_00000176012217567148643150000010204406223189640578_);}
	.st69{fill:url(#SVGID_00000160869924970168249570000016789717457411311266_);}
	.st70{fill:url(#SVGID_00000083082118121094130480000003993285800587232149_);}
	.st71{fill:url(#SVGID_00000075858973216363993890000012175176281905318536_);}
	.st72{fill:url(#SVGID_00000142151908427097101500000016456914865417490831_);}
	.st73{fill:url(#SVGID_00000021835117409820159220000016709079276737770912_);}
	.st74{fill:url(#SVGID_00000078041499304473507800000009300387836168132755_);}
	.st75{fill:url(#SVGID_00000013152299277251634810000016743250922869375630_);}
	.st76{fill:url(#SVGID_00000017480614142955152270000003338787637314481556_);}
	.st77{fill:url(#SVGID_00000002382423006434090800000012614043933757143181_);}
	.st78{fill:url(#SVGID_00000033327069708277663820000011471321764216942218_);}
	.st79{fill:url(#SVGID_00000034792199341326058230000015606938127129873566_);}
	.st80{fill:url(#SVGID_00000144328086342506945950000017188985396752888498_);}
	.st81{fill:url(#SVGID_00000016050028978510040080000011669975755719351972_);}
	.st82{fill:url(#SVGID_00000088845634620912387000000011472387806255750079_);}
	.st83{fill:url(#SVGID_00000011720364860203957850000003049880128834519958_);}
	.st84{fill:url(#SVGID_00000088134228842447795130000000083333771280785309_);}
	.st85{fill:url(#SVGID_00000173881466911190618210000008410395319320160143_);}
	.st86{fill:url(#SVGID_00000035525308340676885790000016123255390889666988_);}
	.st87{fill:url(#SVGID_00000038376737276723423130000000159416843963360145_);}
	.st88{fill:url(#SVGID_00000102513586756897421360000017804259180681322122_);}
	.st89{fill:url(#SVGID_00000137128213116506173230000002868273286627229852_);}
	.st90{fill:url(#SVGID_00000016075037502978011500000016925375981582270342_);}
	.st91{fill:url(#SVGID_00000073717758751978828570000003851764520927076524_);}
	.st92{fill:url(#SVGID_00000116915027072777213120000003270026733324557195_);}
	.st93{fill:url(#SVGID_00000108307295224345228260000011021615821856663962_);}
	.st94{fill:url(#SVGID_00000156570200152998910890000000749575029252924598_);}
	.st95{fill:url(#SVGID_00000140717960737352062590000002776349436650645932_);}
	.st96{fill:url(#SVGID_00000096770746466333521610000015300641152928295614_);}
	.st97{fill:url(#SVGID_00000006707476266743079070000008047429414632141232_);}
	.st98{fill:url(#SVGID_00000070118513613256020150000009907932397812141241_);}
	.st99{fill:url(#SVGID_00000178172131658809279160000009553650105667695508_);}
	.st100{fill:url(#SVGID_00000140002093005760063010000017450933501768632492_);}
	.st101{fill:url(#SVGID_00000114031716901397213080000007859194442937930686_);}
	.st102{fill:url(#SVGID_00000140001634712894852260000015799551880500141749_);}
	.st103{fill:url(#SVGID_00000014636072566482215100000012613723022887395775_);}
	.st104{fill:url(#SVGID_00000103977412193445652930000012399693377504444594_);}
	.st105{fill:url(#SVGID_00000010280237223379034070000013861471332786504870_);}
	.st106{fill:url(#SVGID_00000013150799956732326340000016293131053688988041_);}
	.st107{fill:url(#SVGID_00000054976516759405868720000009682615036523121282_);}
	.st108{fill:url(#SVGID_00000128486913380080014400000006771102203608027555_);}
	.st109{fill:url(#SVGID_00000078748814446032548110000000299516917045169292_);}
	.st110{fill:url(#SVGID_00000065777758422617116840000006958088121973477041_);}
	.st111{fill:url(#SVGID_00000107567821900097213710000014620406967332108216_);}
	.st112{fill:url(#SVGID_00000088128200634050702580000002655235729765645209_);}
	.st113{fill:url(#SVGID_00000031897699470548217930000015459808849300953994_);}
	.st114{fill:url(#SVGID_00000030482783975625791210000013030482759395474352_);}
	.st115{fill:url(#SVGID_00000003797915512025749510000005749639424879815856_);}
	.st116{fill:url(#SVGID_00000117665306413384060010000012255819504898903208_);}
	.st117{fill:url(#SVGID_00000062884016099812318400000017772603985617288854_);}
	.st118{fill:url(#SVGID_00000140014444637907292350000011381447989210627725_);}
	.st119{fill:url(#SVGID_00000062905374064707964840000001153905758190258832_);}
	.st120{fill:url(#SVGID_00000148620237409156678160000008138413227515630488_);}
	.st121{fill:url(#SVGID_00000111905225409440002570000014100775357903694217_);}
	.st122{fill:url(#SVGID_00000000203762243609252950000008853335237689330090_);}
	.st123{fill:url(#SVGID_00000154413577704043042030000007524795178898933123_);}
	.st124{fill:url(#SVGID_00000119829121911889835790000008022788305804876705_);}
	.st125{fill:url(#SVGID_00000174562066482444775070000005079987396487113889_);}
	.st126{fill:url(#SVGID_00000062912636146684419070000003420452630321023107_);}
	.st127{fill:url(#SVGID_00000143608832615352732240000009344828360810905989_);}
	.st128{fill:url(#SVGID_00000018958684357618560900000000293196050078429616_);}
	.st129{fill:url(#SVGID_00000103246233436465456170000009258989397629881023_);}
	.st130{fill:url(#SVGID_00000104695531006580070570000008787365944660570255_);}
	.st131{fill:url(#SVGID_00000176728757150795242690000017023620608412974993_);}
	.st132{fill:url(#SVGID_00000047053609322509576780000012451895163743073974_);}
	.st133{fill:url(#SVGID_00000093150209500981951280000011940018226369246859_);}
	.st134{fill:url(#SVGID_00000100360140144577813320000013703697059959849116_);}
	.st135{fill:url(#SVGID_00000161617909776286764070000001175295440998018463_);}
	.st136{fill:url(#SVGID_00000092448712029081853220000000768996609649334686_);}
	.st137{fill:url(#SVGID_00000133518749561116821950000006516632169284853661_);}
	.st138{fill:url(#SVGID_00000132071502410688546040000010711916523439016613_);}
	.st139{fill:url(#SVGID_00000040574389933040733360000000303835068217764002_);}
	.st140{fill:url(#SVGID_00000150800627494624968580000014256981207854956705_);}
	.st141{fill:url(#SVGID_00000029732829024616972110000006158588120496389292_);}
	.st142{fill:url(#SVGID_00000009585076492196882130000002371043581125542273_);}
	.st143{fill:url(#SVGID_00000075842325285285825550000012668028040967796634_);}
	.st144{fill:url(#SVGID_00000090979122840569197630000017542503117347727796_);}
	.st145{fill:url(#SVGID_00000142869814491618095780000011355832749636985525_);}
	.st146{fill:url(#SVGID_00000052826732764168767730000015817405848953778872_);}
	.st147{fill:url(#SVGID_00000134245082861970327640000012453464052128408990_);}
	.st148{fill:url(#SVGID_00000147916805840831564050000007916942613481922457_);}
	.st149{fill:url(#SVGID_00000164477748485577644180000002496198129020597390_);}
	.st150{fill:url(#SVGID_00000089573580689026509160000012983014842497350789_);}
	.st151{fill:url(#SVGID_00000127030967976088777100000009696994482900662421_);}
	.st152{fill:url(#SVGID_00000125560956138563891500000015545852331521883043_);}
	.st153{fill:url(#SVGID_00000133518082100580325400000002023924162697180819_);}
	.st154{fill:url(#SVGID_00000101818525967554661300000001351942773524802472_);}
	.st155{fill:url(#SVGID_00000078729913329262964430000016768857718981713849_);}
	.st156{fill:url(#SVGID_00000157991277478869022700000007998587825368350870_);}
	.st157{fill:url(#SVGID_00000172435886019964182190000011819203356147847051_);}
	.st158{fill:url(#SVGID_00000052075507954045631110000009759347219006742195_);}
	.st159{fill:url(#SVGID_00000125566472419453746190000016991655967095685511_);}
	.st160{fill:url(#SVGID_00000008119114472892956770000017560226652563181698_);}
	.st161{fill:url(#SVGID_00000060715401683202399570000005295328758614945214_);}
	.st162{fill:url(#SVGID_00000066511351435773811360000014064465214120375469_);}
	.st163{fill:url(#SVGID_00000086684499528866603950000008936146613521058182_);}
	.st164{fill:url(#SVGID_00000021097108092117558740000011498989446381502118_);}
	.st165{fill:url(#SVGID_00000026872090999683169350000013826537048021550982_);}
	.st166{fill:url(#SVGID_00000183218462614366097020000006215612106839714986_);}
	.st167{fill:url(#SVGID_00000108287665897231755730000016241646217805682843_);}
	.st168{fill:url(#SVGID_00000106127113978260516090000017631378233087041678_);}
	.st169{fill:url(#SVGID_00000072268910986812450100000008134678681597075132_);}
	.st170{fill:url(#SVGID_00000130620872225923431280000017673297428438103696_);}
	.st171{fill:url(#SVGID_00000106120279197138308720000017685607992769989278_);}
	.st172{fill:url(#SVGID_00000169554522653330380150000014348611380893437837_);}
	.st173{fill:url(#SVGID_00000116926026365783995860000012162450514027708836_);}
	.st174{fill:url(#SVGID_00000170976714799140045710000013416683025889399694_);}
	.st175{fill:url(#SVGID_00000105428739692066060140000014867791358087338174_);}
	.st176{fill:url(#SVGID_00000023975493931124714560000001795839886157380794_);}
	.st177{fill:url(#SVGID_00000060021918789387228890000005206015570036061617_);}
	.st178{fill:url(#SVGID_00000127011606413268137280000015610407655073887901_);}
	.st179{fill:url(#SVGID_00000030447998748948740340000003544285764111135911_);}
	.st180{fill:url(#SVGID_00000026122366739774690260000006225836122150093747_);}
	.st181{fill:url(#SVGID_00000178892492744209794990000010440824183721916577_);}
	.st182{fill:url(#SVGID_00000145017793307807612710000014154418720577146529_);}
	.st183{fill:url(#SVGID_00000164514691584842107550000014696102803419951773_);}
	.st184{fill:url(#SVGID_00000139974487413830068860000016068425340658853544_);}
	.st185{fill:url(#SVGID_00000034057812419760627120000007791066161538918785_);}
	.st186{fill:url(#SVGID_00000086670412088080305170000012106330126684457368_);}
	.st187{fill:#F2F2F2;}
</style>
<g>
	<g>
		<path class="st187" d="M183.62,618.69l-42.11-84.96l-42.6,84.96H49.38l65.14-122.85l-5.7-11.64l20.8-38.89h11.89l91.15,173.38
			H183.62z"/>
		<g>
			<path class="st187" d="M865.29,532c0-51.93-42.25-94.17-94.17-94.17c-51.93,0-94.17,42.25-94.17,94.17
				c0,51.93,42.24,94.17,94.17,94.17S865.29,583.93,865.29,532z M842.66,590.7l-1.58-1.3L842.66,590.7
				c-1.92,2.34-3.97,4.6-6.11,6.74l-1.25,1.25l-1.54-1.15l-5.09-5.09c-1.39,1.34-2.6,2.39-4.07,3.62
				c-12.92,10.8-28.58,17.36-45.29,18.99l-0.4-4.07c15.89-1.55,30.78-7.79,43.07-18.06c1.72-1.44,3.05-2.61,4.79-4.34l1.92-1.91
				l6.4,6.4c1.53-1.6,3.01-3.27,4.41-4.98l0,0c11.15-13.58,17.94-29.97,19.64-47.41l4.07,0.4
				C861.44,559.34,854.33,576.49,842.66,590.7z M771.12,609.9c-43.02,0-77.9-34.88-77.9-77.9c0-43.02,34.88-77.9,77.9-77.9
				c43.02,0,77.9,34.88,77.9,77.9C849.02,575.02,814.14,609.9,771.12,609.9z M842.71,473.36c13.51,16.47,20.95,37.3,20.95,58.64
				v2.04h-9.1c-0.46,18.55-7.13,36.55-18.91,50.89l-3.16-2.6c11.61-14.14,18.01-32.01,18-50.34v-2.05h9.05
				c-0.46-19.68-7.52-38.79-20-54L842.71,473.36z M779.31,439.83c21.56,1.89,41.89,11.39,57.24,26.74l1.45,1.45l-6.26,6.26
				c12.58,13.17,20.52,30.56,22.41,49.2l-4.07,0.41c-1.87-18.4-9.92-35.5-22.66-48.17l-1.45-1.45l6.23-6.23
				c-14.49-13.83-33.32-22.38-53.25-24.13L779.31,439.83z M761.96,439.92c3.04-0.3,6.13-0.45,9.16-0.45h1.6l0.45,1.79l0,7.31
				c1.68,0.04,3.37,0.13,5.06,0.28c16.87,1.42,32.71,7.86,45.81,18.62l-2.59,3.16c-12.46-10.23-27.53-16.35-43.56-17.7
				c-2.26-0.19-4.53-0.29-6.76-0.29h-2.04v-9.05c-2.24,0.05-4.49,0.19-6.72,0.41c-20.24,1.99-39.34,11.04-53.78,25.48l-2.89-2.89
				C720.79,451.47,740.77,442,761.96,439.92z M693.9,481.01c1.76-2.65,3.67-5.25,5.69-7.7l1.29-1.57l7.05,5.75
				c1.2-1.4,2.37-2.65,3.76-4.04l0.42-0.45c13.62-13.62,31.64-22.16,50.74-24.04l0.4,4.07c-18.15,1.79-35.27,9.89-48.22,22.83
				l-0.41,0.45c-1.81,1.81-3.21,3.35-4.84,5.34l-1.29,1.57l-7.01-5.72c-1.46,1.87-2.86,3.8-4.16,5.77
				c-7.89,11.92-12.8,25.72-14.2,39.92l-4.07-0.4C680.51,507.92,685.65,493.48,693.9,481.01z M699.22,590.26
				c-6.54-8.07-11.64-17.09-15.16-26.81c-3.64-10.07-5.48-20.64-5.48-31.44v-0.48l0.78-1.56l1.26,0l7.06,0
				c0.38-15.77,5.16-30.97,13.88-44.09l3.41,2.26c-8.65,13.02-13.22,28.19-13.22,43.87v2.04l-9.05,0
				c0.45,19.51,7.41,38.49,19.7,53.64L699.22,590.26z M762.04,624.1c-18.25-1.78-35.41-8.89-49.61-20.56l0,0
				c-2.33-1.92-4.6-3.97-6.74-6.11l-0.52-0.52l-0.17-1.69l5.68-5.68c-12.81-13.46-20.82-30.91-22.62-49.36l4.07-0.4
				c1.77,18.19,9.89,35.35,22.87,48.33l1.45,1.45l-6.4,6.4c1.6,1.53,3.27,3.01,4.98,4.41l-1.3,1.58l1.3-1.58
				c13.58,11.15,29.97,17.95,47.41,19.65L762.04,624.1z M769.08,622.97l0-0.49l0-7.06c-18.55-0.46-36.55-7.13-50.89-18.91l2.6-3.16
				c14.14,11.61,32.02,18.01,50.34,18.01h2.04l0,9.05c19.95-0.46,39.26-7.69,54.58-20.47l2.62,3.14
				c-16.58,13.83-37.62,21.45-59.24,21.45h-1.26L769.08,622.97z"/>
			<path class="st187" d="M825.25,477.87c-14.46-14.46-33.68-22.42-54.13-22.42s-39.67,7.96-54.13,22.42
				c-14.46,14.46-22.42,33.68-22.42,54.13c0,20.45,7.96,39.67,22.42,54.13c14.46,14.46,33.68,22.42,54.13,22.42
				c20.45,0,39.67-7.96,54.13-22.42c14.46-14.46,22.42-33.68,22.42-54.13C847.67,511.55,839.71,492.33,825.25,477.87z
				 M825.21,583.08c-3.16,3.16-6.55,6.02-10.13,8.54l-42.49-85.61l-43.51,87.37c-4.54-2.94-8.81-6.38-12.72-10.3
				c-1.09-1.09-2.14-2.2-3.15-3.34l46.76-91.45l-2.66-5.44l9.72-18.18h5.56l57.8,112.69C828.77,579.35,827.04,581.26,825.21,583.08z
				"/>
		</g>
		<path class="st187" d="M262.27,617.37V484.03h-58.7l18.82-40.05H365.8v40.05h-58.45v82.81l10.15,10.16v40.37H262.27z"/>
		<path class="st187" d="M655.09,581.12l-3.33-3.18h-65.42V445.31h-54.99v38.26l10.41,10.4v122.85h123.98v-25.31L655.09,581.12z"/>
		<polygon class="st187" points="477.38,445.31 477.38,510.2 426.73,509.96 426.73,445.31 371.25,445.31 371.25,485.43 
			381.9,495.84 381.9,618.69 426.73,618.69 426.73,548.91 477.38,549.09 477.38,618.69 521.97,618.69 521.97,445.31 		"/>
		<path class="st187" d="M876.81,593.92L901.08,559c12.63,12.38,32.7,22.79,56.97,22.79c15.6,0,25.02-4.95,25.02-13.62
			c0-22.79-100.31-3.72-100.31-70.59c0-28.98,25.26-54.99,70.59-54.99c9.66,0,18.83,0.99,27.49,2.72l12.63-4.21l37.15,18.58
			l-30.47,40.37c-14.86-12.14-34.18-17.83-51.77-17.83c-13.13,0-19.07,4.21-19.07,11.89c0,21.3,100.31,5.45,100.31,69.6
			c0,34.68-26.25,57.46-74.06,57.46C919.41,621.17,894.64,610.27,876.81,593.92z"/>
	</g>
</g>
</svg>
