<?xml version="1.0" encoding="utf-8"?>
<!-- Generator: Adobe Illustrator 26.0.0, SVG Export Plug-In . SVG Version: 6.00 Build 0)  -->
<svg version="1.1" id="Camada_1" xmlns="http://www.w3.org/2000/svg" xmlns:xlink="http://www.w3.org/1999/xlink" x="0px" y="0px"
	 viewBox="0 0 1080 1080" style="enable-background:new 0 0 1080 1080;" xml:space="preserve">
<style type="text/css">
	.st0{fill:url(#SVGID_1_);}
	.st1{fill:url(#SVGID_00000132808265015082780870000011181246605502418310_);}
	.st2{fill:url(#SVGID_00000043428987510753884380000002961043334978790321_);}
	.st3{fill:url(#SVGID_00000078009454532341322630000002998570893202464139_);}
	.st4{fill:url(#SVGID_00000121962055212068171690000011468219570230725563_);}
	.st5{fill:url(#SVGID_00000064328141757400244850000006885454466032352395_);}
	.st6{fill:url(#SVGID_00000086687106929077942210000004367769202416273564_);}
	.st7{fill:url(#SVGID_00000125591871329681550520000008817385096581465004_);}
	.st8{fill:url(#SVGID_00000157281828941343258200000015398596091932135081_);}
	.st9{fill:url(#SVGID_00000092438413592467352560000004219426052601609625_);}
	.st10{fill:url(#SVGID_00000101095476564848545550000012439227710858321575_);}
	.st11{fill:url(#SVGID_00000047774318695764597590000000498336644991422089_);}
	.st12{fill:url(#SVGID_00000145019201089312940460000010897789186480869770_);}
	.st13{fill:url(#SVGID_00000047763176850397045660000010849291697162323375_);}
	.st14{fill:url(#SVGID_00000057125934571179706990000004301331990521335459_);}
	.st15{fill:url(#SVGID_00000067198605167764766610000008003131311773570707_);}
	.st16{fill:url(#SVGID_00000147206470559281071190000010067598748219983011_);}
	.st17{fill:url(#SVGID_00000147912192221279598640000015563453538080925363_);}
	.st18{fill:url(#SVGID_00000073711420387461966680000013257699009167267488_);}
	.st19{fill:url(#SVGID_00000050640089681868584280000006174277539048671665_);}
	.st20{fill:url(#SVGID_00000057841427222777512620000016341253835014687366_);}
	.st21{fill:url(#SVGID_00000122708416837681950860000005187803861907295151_);}
	.st22{fill:url(#SVGID_00000046317149068900976740000003897229978542008721_);}
	.st23{fill:url(#SVGID_00000062170788469638656770000015774238900044735388_);}
	.st24{fill:url(#SVGID_00000176024118562915359950000004246938813393405580_);}
	.st25{fill:url(#SVGID_00000139984508452936425900000003128085630477502131_);}
	.st26{fill:url(#SVGID_00000087377231409262179840000002039444356430103456_);}
	.st27{fill:url(#SVGID_00000136390174538771155580000012659298973724995234_);}
	.st28{fill:url(#SVGID_00000173870441571555567280000004103522124445829055_);}
	.st29{fill:url(#SVGID_00000093885500248053703110000002822326517143197593_);}
	.st30{fill:url(#SVGID_00000031928152427899986460000017929813203484007068_);}
	.st31{fill:url(#SVGID_00000178175184809160214730000014711422190287849645_);}
	.st32{fill:url(#SVGID_00000097471385631931565360000012394646540814504109_);}
	.st33{fill:url(#SVGID_00000015328541222972092350000011492028418404743094_);}
	.st34{fill:url(#SVGID_00000011751055171558523690000012817690954794237824_);}
	.st35{fill:url(#SVGID_00000114764415231484975620000014295372365885141135_);}
	.st36{fill:url(#SVGID_00000152987057911829524010000001942739341862358147_);}
	.st37{fill:url(#SVGID_00000181068218511916946310000008242974756357747869_);}
	.st38{fill:url(#SVGID_00000174592920708846775560000002817901551535609502_);}
	.st39{fill:url(#SVGID_00000125574405988279698720000015056400328165303992_);}
	.st40{fill:url(#SVGID_00000114050032330201052310000016699961126598184622_);}
	.st41{fill:url(#SVGID_00000060022042880082243120000015948973827773605784_);}
	.st42{fill:url(#SVGID_00000119103218428831324920000005653374328910205585_);}
	.st43{fill:url(#SVGID_00000042720616880349293680000012217766289278110891_);}
	.st44{fill:url(#SVGID_00000066510465135997673690000015603873602113502337_);}
	.st45{fill:url(#SVGID_00000093859965090667805660000002746309330515801490_);}
	.st46{fill:url(#SVGID_00000013880511343683938220000000102794224384778903_);}
	.st47{fill:url(#SVGID_00000018202489839179594110000002803041611134757001_);}
	.st48{fill:url(#SVGID_00000116921066833647753790000012588125485773658267_);}
	.st49{fill:url(#SVGID_00000098931393337712977580000000454413345281728917_);}
	.st50{fill:url(#SVGID_00000018946049743703703570000003931560512650259849_);}
	.st51{fill:url(#SVGID_00000065791472371999930820000000114247533782241713_);}
	.st52{fill:url(#SVGID_00000175321449435502398820000013706003958582839983_);}
	.st53{fill:url(#SVGID_00000066495903370447247590000007608650021670753411_);}
	.st54{fill:url(#SVGID_00000063598618407768081120000000796750504560258203_);}
	.st55{fill:url(#SVGID_00000067216865590361815540000007877595479997341602_);}
	.st56{fill:url(#SVGID_00000127035668802731422260000009453923587470530948_);}
	.st57{fill:url(#SVGID_00000105402937863938273980000007425432184270098848_);}
	.st58{fill:url(#SVGID_00000149349087690575024740000004677759915197578895_);}
	.st59{fill:url(#SVGID_00000139269293850047051460000009829834248425105029_);}
	.st60{fill:url(#SVGID_00000065756105728433911600000009625278179579425927_);}
	.st61{fill:url(#SVGID_00000054986236977359297420000016018904702000349067_);}
	.st62{fill:url(#SVGID_00000026867632628297591400000017815581837491988139_);}
	.st63{fill:url(#SVGID_00000175289122547710531160000004125958080143077529_);}
	.st64{fill:url(#SVGID_00000090272437813098657640000007982196631690466233_);}
	.st65{fill:url(#SVGID_00000062909721344054811160000015617710373233708970_);}
	.st66{fill:url(#SVGID_00000169516482412112397050000014802152025428048773_);}
	.st67{fill:url(#SVGID_00000006694831934881424650000013846845081769936798_);}
	.st68{fill:url(#SVGID_00000031205935065827515910000015730814244416815009_);}
	.st69{fill:url(#SVGID_00000058566935385146817360000013673833061353736588_);}
	.st70{fill:url(#SVGID_00000001649720371443901060000017971949944175593387_);}
	.st71{fill:url(#SVGID_00000065039392113154948010000018172373607721660598_);}
	.st72{fill:url(#SVGID_00000089571004941535600300000000868449410242453894_);}
	.st73{fill:url(#SVGID_00000065042163870116414370000015853977457990014140_);}
	.st74{fill:url(#SVGID_00000026142295206062631790000001055480949775206582_);}
	.st75{fill:url(#SVGID_00000137093915922080883370000010308815462009250962_);}
	.st76{fill:url(#SVGID_00000168103500721786418720000010353702252561421208_);}
	.st77{fill:url(#SVGID_00000106117962939919873080000012489365605434315925_);}
	.st78{fill:url(#SVGID_00000034770065009883754370000009858689148058947496_);}
	.st79{fill:url(#SVGID_00000039826514865457446480000016802856929393361597_);}
	.st80{fill:url(#SVGID_00000088826474292255255130000016644160337914923407_);}
	.st81{fill:url(#SVGID_00000181781975998821862600000016454456110494230406_);}
	.st82{fill:url(#SVGID_00000031903618626726580990000008870997695225120147_);}
	.st83{fill:url(#SVGID_00000016077779012737909060000013939095316300246435_);}
	.st84{fill:url(#SVGID_00000156569252121486035130000000040850089868758712_);}
	.st85{fill:url(#SVGID_00000148634298559816743740000010023834849985408929_);}
	.st86{fill:url(#SVGID_00000013191940033306652010000003601188187463972258_);}
	.st87{fill:url(#SVGID_00000121280993370798203490000007988215723828625594_);}
	.st88{fill:url(#SVGID_00000125561483287723995010000001134035665352661911_);}
	.st89{fill:url(#SVGID_00000145024244542281186420000008570900232872534435_);}
	.st90{fill:url(#SVGID_00000159427701894731735340000014363475478954213255_);}
	.st91{fill:url(#SVGID_00000129908622844705935050000015634899741951015327_);}
	.st92{fill:url(#SVGID_00000021081137324916996200000012679944212173538707_);}
	.st93{fill:url(#SVGID_00000010287306268638354990000012508445575894835878_);}
	.st94{fill:url(#SVGID_00000111186710332628743960000009798726474002824366_);}
	.st95{fill:url(#SVGID_00000047750992623166260730000001508626758314574772_);}
	.st96{fill:url(#SVGID_00000174593510785074761160000013331863023217876118_);}
	.st97{fill:url(#SVGID_00000009561057064072342290000018033663548770871438_);}
	.st98{fill:url(#SVGID_00000103239723554658529730000017368104602059978132_);}
	.st99{fill:url(#SVGID_00000069389262628125104780000005864979996464318091_);}
	.st100{fill:url(#SVGID_00000063611925563575751480000009554143594044056233_);}
	.st101{fill:url(#SVGID_00000075157045439115035730000008101140847674691773_);}
	.st102{fill:url(#SVGID_00000054249398504537473320000015948412364962550967_);}
	.st103{fill:url(#SVGID_00000024686622505602819440000016086480559721097640_);}
	.st104{fill:url(#SVGID_00000108275549560766821330000016819212668980836530_);}
	.st105{fill:url(#SVGID_00000170957392458598012450000011280071886493483690_);}
	.st106{fill:url(#SVGID_00000052792184772613074080000001177694581300435610_);}
	.st107{fill:url(#SVGID_00000014601471164151687780000008881174787546637448_);}
	.st108{fill:url(#SVGID_00000000914803352854497790000009842911005010208919_);}
	.st109{fill:url(#SVGID_00000050645578563974253340000002853313756069775489_);}
	.st110{fill:url(#SVGID_00000001625281763685754250000004187370552433666729_);}
	.st111{fill:url(#SVGID_00000130648439976819788310000016558457598230506377_);}
	.st112{fill:url(#SVGID_00000054227402037852390710000015748000736804885662_);}
	.st113{fill:url(#SVGID_00000067922672281446740620000011806301575552245943_);}
	.st114{fill:url(#SVGID_00000052099777244635972730000015878720269996128185_);}
	.st115{fill:url(#SVGID_00000129908473387193128130000000080596386683739272_);}
	.st116{fill:url(#SVGID_00000003080241339754226520000018271618934479658138_);}
	.st117{fill:url(#SVGID_00000181786143673303926640000011042397916523653562_);}
	.st118{fill:url(#SVGID_00000093155543184660344550000018309676006366644636_);}
	.st119{fill:url(#SVGID_00000175301708159100773560000017355298070129550992_);}
	.st120{fill:url(#SVGID_00000076565868176648487930000016573072390558951357_);}
	.st121{fill:url(#SVGID_00000083797557441306957190000009104518751705307069_);}
	.st122{fill:url(#SVGID_00000129921650523911805490000009217358428960384684_);}
	.st123{fill:url(#SVGID_00000047770109306841050380000007937774301956070824_);}
	.st124{fill:url(#SVGID_00000173139445667814622790000004538043127072870570_);}
	.st125{fill:url(#SVGID_00000088126701927039204540000001373807618468118963_);}
	.st126{fill:url(#SVGID_00000094597281065629752400000014078575821103226027_);}
	.st127{fill:url(#SVGID_00000029739496379239746060000016184749840201482629_);}
	.st128{fill:url(#SVGID_00000100381531737288260800000014468309903829627788_);}
	.st129{fill:url(#SVGID_00000011754009488188484180000006035871292693840261_);}
	.st130{fill:url(#SVGID_00000131358420135563604270000018415251526096232087_);}
	.st131{fill:url(#SVGID_00000152964964075947534010000005349724672329324716_);}
	.st132{fill:url(#SVGID_00000101064957098968309960000016403056195187028908_);}
	.st133{fill:url(#SVGID_00000116225960030238833450000006093591306498873218_);}
	.st134{fill:url(#SVGID_00000104697470713231355690000011752236748902165931_);}
	.st135{fill:url(#SVGID_00000178903341296118517570000006099664323924836747_);}
	.st136{fill:url(#SVGID_00000027605714352420970660000002881646268748324521_);}
	.st137{fill:url(#SVGID_00000161624014152846058940000002984911216174009491_);}
	.st138{fill:url(#SVGID_00000056427574605017381160000001009629703737636796_);}
	.st139{fill:url(#SVGID_00000039095465767167324640000008229367501783897791_);}
	.st140{fill:url(#SVGID_00000082368544790198906800000001346501953287925159_);}
	.st141{fill:url(#SVGID_00000147941899268362084370000003965778160920385697_);}
	.st142{fill:url(#SVGID_00000163067464302839417240000004888485939620796833_);}
	.st143{fill:url(#SVGID_00000132059080941238321940000002519736978784290487_);}
	.st144{fill:url(#SVGID_00000017512947955683828870000018173498474898645897_);}
	.st145{fill:url(#SVGID_00000073002044092516528760000011824096604412660386_);}
	.st146{fill:url(#SVGID_00000074423628580785418780000013710231940012078007_);}
	.st147{fill:url(#SVGID_00000183942284554389754150000003391426859798522271_);}
	.st148{fill:url(#SVGID_00000140726941810477807080000003934275875570083996_);}
	.st149{fill:url(#SVGID_00000161630793922590151160000012350098365647151505_);}
	.st150{fill:url(#SVGID_00000138553476982890345550000004663177590407123098_);}
	.st151{fill:url(#SVGID_00000033334020192196029580000001729191615682996382_);}
	.st152{fill:url(#SVGID_00000066500974228228149150000003932528077630565533_);}
	.st153{fill:url(#SVGID_00000111895830209787127560000012407925538712375998_);}
	.st154{fill:url(#SVGID_00000026883605212365216310000003176773688153071002_);}
	.st155{fill:url(#SVGID_00000091008284492742129270000011497388857337500862_);}
	.st156{fill:url(#SVGID_00000034782422377478375840000016426515496906339992_);}
	.st157{fill:url(#SVGID_00000005262954447846014800000015620186775286771329_);}
	.st158{fill:url(#SVGID_00000081632150893174296650000014254258973870397615_);}
	.st159{fill:url(#SVGID_00000137119938201315318690000012773179407075678383_);}
	.st160{fill:url(#SVGID_00000056426495569809844490000004616296274968449432_);}
	.st161{fill:url(#SVGID_00000050631395630043525460000000539330742065508002_);}
	.st162{fill:url(#SVGID_00000119804623410846518370000017443009472247254183_);}
	.st163{fill:url(#SVGID_00000170981417946407261730000015020076478828355246_);}
	.st164{fill:url(#SVGID_00000142857034521947894380000013605972357514225800_);}
	.st165{fill:url(#SVGID_00000162341635346852064200000016355720541733894070_);}
	.st166{fill:url(#SVGID_00000182491935770514719100000000076727613772360607_);}
	.st167{fill:url(#SVGID_00000121265346284144551690000007365853238288564097_);}
	.st168{fill:url(#SVGID_00000089560562687913328850000008745043924386689165_);}
	.st169{fill:url(#SVGID_00000114040494650219852260000014883143683233717666_);}
	.st170{fill:url(#SVGID_00000145772126827758813890000014758446107230331308_);}
	.st171{fill:url(#SVGID_00000078025433149935036330000013010560845716106626_);}
	.st172{fill:url(#SVGID_00000078032523921164718420000010985089808392758147_);}
	.st173{fill:url(#SVGID_00000033338910208530744380000010016906993488106911_);}
	.st174{fill:url(#SVGID_00000097500174211493469180000004000714431117032109_);}
	.st175{fill:url(#SVGID_00000110461504575196815120000016997271274905024429_);}
	.st176{fill:url(#SVGID_00000177455624112222000980000014009245967240591785_);}
	.st177{fill:url(#SVGID_00000113317846019862256060000008742284502304020408_);}
	.st178{fill:url(#SVGID_00000083796627231451387260000008653322774562871483_);}
	.st179{fill:url(#SVGID_00000008856200737977277340000014048243926289089214_);}
	.st180{fill:url(#SVGID_00000096769604309621613560000006526606510753501614_);}
	.st181{fill:url(#SVGID_00000113330774170910330110000005465862243608802444_);}
	.st182{fill:url(#SVGID_00000060728663536919610520000000841720330159684025_);}
	.st183{fill:url(#SVGID_00000036942033380713187890000013543919604019061394_);}
	.st184{fill:url(#SVGID_00000069384008737904999030000003594126266865483172_);}
	.st185{fill:url(#SVGID_00000040565119904775688460000005006834808655773871_);}
	.st186{fill:url(#SVGID_00000095305224900032994130000002827979070013457304_);}
	.st187{fill:#F2F2F2;}
</style>
<g>
	<g>
		<linearGradient id="SVGID_1_" gradientUnits="userSpaceOnUse" x1="147.9601" y1="439.3351" x2="141.7253" y2="607.6749">
			<stop  offset="0" style="stop-color:#C6A65D"/>
			<stop  offset="1" style="stop-color:#90774F"/>
		</linearGradient>
		<path class="st0" d="M183.62,626.69l-42.11-84.96l-42.6,84.96H49.38l65.14-122.85l-5.7-11.64l20.8-38.89h11.89l91.15,173.38
			H183.62z"/>
		<g>
			
				<linearGradient id="SVGID_00000157298735236178191310000009527072118931041436_" gradientUnits="userSpaceOnUse" x1="773.7646" y1="468.6519" x2="767.5298" y2="636.9916">
				<stop  offset="0" style="stop-color:#C6A65D"/>
				<stop  offset="1" style="stop-color:#90774F"/>
			</linearGradient>
			<path style="fill:url(#SVGID_00000157298735236178191310000009527072118931041436_);" d="M865.29,540
				c0-51.93-42.25-94.17-94.17-94.17c-51.93,0-94.17,42.25-94.17,94.17c0,51.93,42.24,94.17,94.17,94.17S865.29,591.93,865.29,540z
				 M842.66,598.7l-1.58-1.3L842.66,598.7c-1.92,2.34-3.97,4.6-6.11,6.74l-1.25,1.25l-1.54-1.15l-5.09-5.09
				c-1.39,1.34-2.6,2.39-4.07,3.62c-12.92,10.8-28.58,17.36-45.29,18.99l-0.4-4.07c15.89-1.55,30.78-7.79,43.07-18.06
				c1.72-1.44,3.05-2.61,4.79-4.34l1.92-1.91l6.4,6.4c1.53-1.6,3.01-3.27,4.41-4.98l0,0c11.15-13.58,17.94-29.97,19.64-47.41
				l4.07,0.4C861.44,567.34,854.33,584.49,842.66,598.7z M771.12,617.9c-43.02,0-77.9-34.88-77.9-77.9c0-43.02,34.88-77.9,77.9-77.9
				c43.02,0,77.9,34.88,77.9,77.9C849.02,583.02,814.14,617.9,771.12,617.9z M842.71,481.36c13.51,16.47,20.95,37.3,20.95,58.64
				v2.04h-9.1c-0.46,18.55-7.13,36.55-18.91,50.89l-3.16-2.6c11.61-14.14,18.01-32.01,18-50.34v-2.05h9.05
				c-0.46-19.68-7.52-38.79-20-54L842.71,481.36z M779.31,447.83c21.56,1.89,41.89,11.39,57.24,26.74l1.45,1.45l-6.26,6.26
				c12.58,13.17,20.52,30.56,22.41,49.2l-4.07,0.41c-1.87-18.4-9.92-35.5-22.66-48.17l-1.45-1.45l6.23-6.23
				c-14.49-13.83-33.32-22.38-53.25-24.13L779.31,447.83z M761.96,447.92c3.04-0.3,6.13-0.45,9.16-0.45h1.6l0.45,1.79l0,7.31
				c1.68,0.04,3.37,0.13,5.06,0.28c16.87,1.42,32.71,7.86,45.81,18.62l-2.59,3.16c-12.46-10.23-27.53-16.35-43.56-17.7
				c-2.26-0.19-4.53-0.29-6.76-0.29h-2.04v-9.05c-2.24,0.05-4.49,0.19-6.72,0.41c-20.24,1.99-39.34,11.04-53.78,25.48l-2.89-2.89
				C720.79,459.47,740.77,450,761.96,447.92z M693.9,489.01c1.76-2.65,3.67-5.25,5.69-7.7l1.29-1.57l7.05,5.75
				c1.2-1.4,2.37-2.65,3.76-4.04l0.42-0.45c13.62-13.62,31.64-22.16,50.74-24.04l0.4,4.07c-18.15,1.79-35.27,9.89-48.22,22.83
				l-0.41,0.45c-1.81,1.81-3.21,3.35-4.84,5.34l-1.29,1.57l-7.01-5.72c-1.46,1.87-2.86,3.8-4.16,5.77
				c-7.89,11.92-12.8,25.72-14.2,39.92l-4.07-0.4C680.51,515.92,685.65,501.48,693.9,489.01z M699.22,598.26
				c-6.54-8.07-11.64-17.09-15.16-26.81c-3.64-10.07-5.48-20.64-5.48-31.44v-0.48l0.78-1.56l1.26,0l7.06,0
				c0.38-15.77,5.16-30.97,13.88-44.09l3.41,2.26c-8.65,13.02-13.22,28.19-13.22,43.87v2.04l-9.05,0
				c0.45,19.51,7.41,38.49,19.7,53.64L699.22,598.26z M762.04,632.1c-18.25-1.78-35.41-8.89-49.61-20.56l0,0
				c-2.33-1.92-4.6-3.97-6.74-6.11l-0.52-0.52l-0.17-1.69l5.68-5.68c-12.81-13.46-20.82-30.91-22.62-49.36l4.07-0.4
				c1.77,18.19,9.89,35.35,22.87,48.33l1.45,1.45l-6.4,6.4c1.6,1.53,3.27,3.01,4.98,4.41l-1.3,1.58l1.3-1.58
				c13.58,11.15,29.97,17.95,47.41,19.65L762.04,632.1z M769.08,630.97l0-0.49l0-7.06c-18.55-0.46-36.55-7.13-50.89-18.91l2.6-3.16
				c14.14,11.61,32.02,18.01,50.34,18.01h2.04l0,9.05c19.95-0.46,39.26-7.69,54.58-20.47l2.62,3.14
				c-16.58,13.83-37.62,21.45-59.24,21.45h-1.26L769.08,630.97z"/>
			
				<linearGradient id="SVGID_00000140008693687982415450000012687703499541002935_" gradientUnits="userSpaceOnUse" x1="773.7646" y1="468.6519" x2="767.5298" y2="636.9916">
				<stop  offset="0" style="stop-color:#C6A65D"/>
				<stop  offset="1" style="stop-color:#90774F"/>
			</linearGradient>
			<path style="fill:url(#SVGID_00000140008693687982415450000012687703499541002935_);" d="M825.25,485.87
				c-14.46-14.46-33.68-22.42-54.13-22.42s-39.67,7.96-54.13,22.42c-14.46,14.46-22.42,33.68-22.42,54.13
				c0,20.45,7.96,39.67,22.42,54.13c14.46,14.46,33.68,22.42,54.13,22.42c20.45,0,39.67-7.96,54.13-22.42
				c14.46-14.46,22.42-33.68,22.42-54.13C847.67,519.55,839.71,500.33,825.25,485.87z M825.21,591.08
				c-3.16,3.16-6.55,6.02-10.13,8.54l-42.49-85.61l-43.51,87.37c-4.54-2.94-8.81-6.38-12.72-10.3c-1.09-1.09-2.14-2.2-3.15-3.34
				l46.76-91.45l-2.66-5.44l9.72-18.18h5.56l57.8,112.69C828.77,587.35,827.04,589.26,825.21,591.08z"/>
		</g>
		
			<linearGradient id="SVGID_00000140725640702252782550000011276485505487418534_" gradientUnits="userSpaceOnUse" x1="286.4442" y1="444.4641" x2="280.2094" y2="612.804">
			<stop  offset="0" style="stop-color:#C6A65D"/>
			<stop  offset="1" style="stop-color:#90774F"/>
		</linearGradient>
		<path style="fill:url(#SVGID_00000140725640702252782550000011276485505487418534_);" d="M262.27,625.37V492.03h-58.7l18.82-40.05
			H365.8v40.05h-58.45v82.81l10.15,10.16v40.37H262.27z"/>
		
			<linearGradient id="SVGID_00000003091904278936383360000009527093547908554884_" gradientUnits="userSpaceOnUse" x1="601.7557" y1="452.1021" x2="595.5875" y2="618.6435">
			<stop  offset="0" style="stop-color:#C6A65D"/>
			<stop  offset="1" style="stop-color:#90774F"/>
		</linearGradient>
		<path style="fill:url(#SVGID_00000003091904278936383360000009527093547908554884_);" d="M655.09,589.12l-3.33-3.18h-65.42V453.31
			h-54.99v38.26l10.41,10.4v122.85h123.98v-25.31L655.09,589.12z"/>
		
			<linearGradient id="SVGID_00000132071792310092681630000008036712691808608418_" gradientUnits="userSpaceOnUse" x1="449.7429" y1="455.3645" x2="443.5081" y2="623.7043">
			<stop  offset="0" style="stop-color:#C6A65D"/>
			<stop  offset="1" style="stop-color:#90774F"/>
		</linearGradient>
		<polygon style="fill:url(#SVGID_00000132071792310092681630000008036712691808608418_);" points="477.38,453.31 477.38,518.2 
			426.73,517.96 426.73,453.31 371.25,453.31 371.25,493.43 381.9,503.84 381.9,626.69 426.73,626.69 426.73,556.91 477.38,557.09 
			477.38,626.69 521.97,626.69 521.97,453.31 		"/>
		
			<linearGradient id="SVGID_00000049942972321469946740000005324152204351906235_" gradientUnits="userSpaceOnUse" x1="957.6347" y1="468.2524" x2="951.3999" y2="636.5922">
			<stop  offset="0" style="stop-color:#C6A65D"/>
			<stop  offset="1" style="stop-color:#90774F"/>
		</linearGradient>
		<path style="fill:url(#SVGID_00000049942972321469946740000005324152204351906235_);" d="M876.81,601.92L901.08,567
			c12.63,12.38,32.7,22.79,56.97,22.79c15.6,0,25.02-4.95,25.02-13.62c0-22.79-100.31-3.72-100.31-70.59
			c0-28.98,25.26-54.99,70.59-54.99c9.66,0,18.83,0.99,27.49,2.72l12.63-4.21l37.15,18.58l-30.47,40.37
			c-14.86-12.14-34.18-17.83-51.77-17.83c-13.13,0-19.07,4.21-19.07,11.89c0,21.3,100.31,5.45,100.31,69.6
			c0,34.68-26.25,57.46-74.06,57.46C919.41,629.17,894.64,618.27,876.81,601.92z"/>
	</g>
</g>
</svg>
