<?xml version="1.0" encoding="utf-8"?>
<!-- Generator: Adobe Illustrator 26.0.0, SVG Export Plug-In . SVG Version: 6.00 Build 0)  -->
<svg version="1.1" id="Camada_1" xmlns="http://www.w3.org/2000/svg" xmlns:xlink="http://www.w3.org/1999/xlink" x="0px" y="0px"
	 viewBox="0 0 1080 1080" style="enable-background:new 0 0 1080 1080;" xml:space="preserve">
<style type="text/css">
	.st0{fill:url(#SVGID_1_);}
	.st1{fill:url(#SVGID_00000109734543620690378200000001258510409209916568_);}
	.st2{fill:url(#SVGID_00000056388793294363297970000007371851926082133411_);}
	.st3{fill:url(#SVGID_00000142875931209908210800000014905419516033213859_);}
	.st4{fill:url(#SVGID_00000039816902173692149280000004218784043322982302_);}
	.st5{fill:url(#SVGID_00000044168922750581428710000009199537125001169595_);}
	.st6{fill:url(#SVGID_00000013874637438287235170000017152147129435861417_);}
	.st7{fill:url(#SVGID_00000081648704671658603260000014913270469684300479_);}
	.st8{fill:url(#SVGID_00000176035551884143670340000015167976984942055569_);}
	.st9{fill:url(#SVGID_00000123411100608882186170000000321885983104614060_);}
	.st10{fill:url(#SVGID_00000010305958244457726540000010622572632406322573_);}
	.st11{fill:url(#SVGID_00000169542691821497329660000002172413013885036166_);}
	.st12{fill:url(#SVGID_00000029007111662414335270000005451641517146636192_);}
	.st13{fill:url(#SVGID_00000170964253804762906650000004647156982564253338_);}
	.st14{fill:url(#SVGID_00000036212664051504681840000014776249373608440219_);}
	.st15{fill:url(#SVGID_00000082334241876757729300000015504879460417150875_);}
	.st16{fill:url(#SVGID_00000087407721225829146010000016239222753182220676_);}
	.st17{fill:url(#SVGID_00000165928303286345111290000001884956817361128893_);}
	.st18{fill:url(#SVGID_00000016773088426438430220000009555243545146037161_);}
	.st19{fill:url(#SVGID_00000083778209851791774700000007736602591809748106_);}
	.st20{fill:url(#SVGID_00000001646121233135494400000017277137919308232833_);}
	.st21{fill:url(#SVGID_00000103966360986700845350000011264948597814605700_);}
	.st22{fill:url(#SVGID_00000104677192059532186770000003926571924340990393_);}
	.st23{fill:url(#SVGID_00000108991528607717641740000002362710191662403772_);}
	.st24{fill:url(#SVGID_00000085223067781414100350000017375877278128498076_);}
	.st25{fill:url(#SVGID_00000139996058824951771300000011659013531680071615_);}
	.st26{fill:url(#SVGID_00000131360574160639802310000000910410013238041736_);}
	.st27{fill:url(#SVGID_00000002346623214751778290000011407656835732948640_);}
	.st28{fill:url(#SVGID_00000018956233140577099030000003930513024841778575_);}
	.st29{fill:url(#SVGID_00000060734453353074983050000014337732360244210871_);}
	.st30{fill:url(#SVGID_00000168800399643900827420000011652424459656425396_);}
	.st31{fill:url(#SVGID_00000008138424072506772690000013235220301465157258_);}
	.st32{fill:url(#SVGID_00000105416361817982610500000012264084185521362327_);}
	.st33{fill:url(#SVGID_00000177442256601721154620000011607724688024229305_);}
	.st34{fill:url(#SVGID_00000036221851582921182440000012279441142472816054_);}
	.st35{fill:url(#SVGID_00000101081163800713651140000011866680087519904140_);}
	.st36{fill:url(#SVGID_00000132809177044230115380000014631603356271898511_);}
	.st37{fill:url(#SVGID_00000046324015615894319360000014936331091756849283_);}
	.st38{fill:url(#SVGID_00000049216327518598042490000011347820319988700600_);}
	.st39{fill:url(#SVGID_00000110460209722232859100000000479644879657478539_);}
	.st40{fill:url(#SVGID_00000043417648972772655750000006402497670622299815_);}
	.st41{fill:url(#SVGID_00000149377812833355656020000007383216118358310019_);}
	.st42{fill:url(#SVGID_00000168798612743281569740000013083803730374564787_);}
	.st43{fill:url(#SVGID_00000152971579653702647230000002980051638438908856_);}
	.st44{fill:url(#SVGID_00000031194902015734164180000010016031645130708133_);}
	.st45{fill:url(#SVGID_00000014618366619261833140000012814347663162423955_);}
	.st46{fill:url(#SVGID_00000114786911912610321200000016432902690333422491_);}
	.st47{fill:url(#SVGID_00000000217457793784730890000003135178101871636654_);}
	.st48{fill:url(#SVGID_00000072990754061549690230000016388914654504170667_);}
	.st49{fill:url(#SVGID_00000001663236030828637010000001026641876895832752_);}
	.st50{fill:url(#SVGID_00000151532820013197083890000016421173664495203462_);}
	.st51{fill:url(#SVGID_00000077324805772276661590000006506741754936124090_);}
	.st52{fill:url(#SVGID_00000087391540192632828200000016457622298494414490_);}
	.st53{fill:url(#SVGID_00000147185810967214936240000003430345540935544500_);}
	.st54{fill:url(#SVGID_00000099634201409931348410000000322375269491796153_);}
	.st55{fill:url(#SVGID_00000042717204555414047650000016695776782729543861_);}
	.st56{fill:url(#SVGID_00000010304996527009029740000009080244629147890307_);}
	.st57{fill:url(#SVGID_00000039848084864062494620000007757408368390637968_);}
	.st58{fill:url(#SVGID_00000125578266502946385590000006599188182881532066_);}
	.st59{fill:url(#SVGID_00000144320805538869785190000001232756607048901771_);}
	.st60{fill:url(#SVGID_00000108292330026399268600000004743581833921382552_);}
	.st61{fill:url(#SVGID_00000133513108718922079740000002077180461768149123_);}
	.st62{fill:url(#SVGID_00000181784762874144278940000012230677528345526427_);}
	.st63{fill:url(#SVGID_00000148659391677085140320000000652111793420839596_);}
	.st64{fill:url(#SVGID_00000030459343546643027550000001133719414793608367_);}
	.st65{fill:url(#SVGID_00000018220658834929691590000003349142836021746365_);}
	.st66{fill:url(#SVGID_00000155131826670294880370000008725986678076626863_);}
	.st67{fill:url(#SVGID_00000083061602429528780620000004426594147179656339_);}
	.st68{fill:url(#SVGID_00000091727939686639071540000004143622118163405228_);}
	.st69{fill:url(#SVGID_00000075126358255617028900000016198143381361683384_);}
	.st70{fill:url(#SVGID_00000042713300010862361170000017252562442314776237_);}
	.st71{fill:url(#SVGID_00000170966098056620248120000003861172427236021146_);}
	.st72{fill:url(#SVGID_00000158014109376302087270000002058548584037152903_);}
	.st73{fill:url(#SVGID_00000091004592331431360450000013275402284532806294_);}
	.st74{fill:url(#SVGID_00000048469167956870432010000010652796995832471438_);}
	.st75{fill:url(#SVGID_00000045617796767989238810000008254979288363279502_);}
	.st76{fill:url(#SVGID_00000012473236875091863770000005055214736515339429_);}
	.st77{fill:url(#SVGID_00000170992666072312248270000013615892947219342750_);}
	.st78{fill:url(#SVGID_00000039115207318566429830000001475979350895443110_);}
	.st79{fill:url(#SVGID_00000026141502941348837750000011209743350185835403_);}
	.st80{fill:url(#SVGID_00000043421037277666691230000014094161607980093827_);}
	.st81{fill:url(#SVGID_00000158717895956794893380000015415925879378534295_);}
	.st82{fill:url(#SVGID_00000124134034208441184910000003777062549003593138_);}
	.st83{fill:url(#SVGID_00000176014523610799111400000007576440957256129926_);}
	.st84{fill:url(#SVGID_00000065059948277217032990000001782020020753089200_);}
	.st85{fill:url(#SVGID_00000128463323663429649600000008214179858576121984_);}
	.st86{fill:url(#SVGID_00000090288232713769357440000000747021093400843191_);}
	.st87{fill:url(#SVGID_00000170265701879332779590000016502388043585169854_);}
	.st88{fill:url(#SVGID_00000005247126872480513820000014909306196549070494_);}
	.st89{fill:url(#SVGID_00000135671472454189020860000012335734558806165678_);}
	.st90{fill:url(#SVGID_00000012453509626333891800000007794943623024340146_);}
	.st91{fill:url(#SVGID_00000155117074401196470740000017063650354538266272_);}
	.st92{fill:url(#SVGID_00000070799357545033419230000005533242063314839198_);}
	.st93{fill:url(#SVGID_00000164498539076271976850000015051417695308850577_);}
	.st94{fill:url(#SVGID_00000002354793098636047880000003396237479234217090_);}
	.st95{fill:url(#SVGID_00000170963036990620116200000000000442897109888940_);}
	.st96{fill:url(#SVGID_00000173137791598510241750000006693613355620991112_);}
	.st97{fill:url(#SVGID_00000166655283734914518140000005673313257089618078_);}
	.st98{fill:url(#SVGID_00000149349342728489618140000015187289112080950944_);}
	.st99{fill:url(#SVGID_00000182498396937232323770000010961917319891397794_);}
	.st100{fill:url(#SVGID_00000083810869917751395890000010158429136415596983_);}
	.st101{fill:url(#SVGID_00000128471529457111951450000001009499583455076512_);}
	.st102{fill:url(#SVGID_00000042016589015424624500000010359453331014717067_);}
	.st103{fill:url(#SVGID_00000035514302596769099420000010383898624748674962_);}
	.st104{fill:url(#SVGID_00000177475990392241920640000003584881583203474597_);}
	.st105{fill:url(#SVGID_00000008849920799556400910000018237721052431523251_);}
	.st106{fill:url(#SVGID_00000064323698161900284220000013168748004650185662_);}
	.st107{fill:url(#SVGID_00000075848007431616086720000015618766477688395956_);}
	.st108{fill:url(#SVGID_00000062904476985441829960000018147458158828005509_);}
	.st109{fill:url(#SVGID_00000127730111788916578390000000262450727769507242_);}
	.st110{fill:url(#SVGID_00000003794940511678745680000010889111786519041194_);}
	.st111{fill:url(#SVGID_00000142171007891085679230000004464455246107221912_);}
	.st112{fill:url(#SVGID_00000109026379038146262490000004768975444449651894_);}
	.st113{fill:url(#SVGID_00000049908162881832592490000014058135692407784357_);}
	.st114{fill:url(#SVGID_00000152970352761472754780000006954125786625430401_);}
	.st115{fill:url(#SVGID_00000163767965294919066020000005372420230315325886_);}
	.st116{fill:url(#SVGID_00000082326432497021299150000011782415769990426772_);}
	.st117{fill:url(#SVGID_00000172433285634223241750000002668805304579766957_);}
	.st118{fill:url(#SVGID_00000084510360084681806850000001043229265430049165_);}
	.st119{fill:url(#SVGID_00000041973827828665476840000014010135407619928981_);}
	.st120{fill:url(#SVGID_00000028300923833836521400000003366818538678372996_);}
	.st121{fill:url(#SVGID_00000180361473647076379220000005223317826628389033_);}
	.st122{fill:url(#SVGID_00000177485610918327402090000003879655181618055590_);}
	.st123{fill:url(#SVGID_00000011731876031722445930000007050000637550517684_);}
	.st124{fill:url(#SVGID_00000081647568308441852310000000408563495819304582_);}
	.st125{fill:url(#SVGID_00000039852502139680927300000009523412021117619879_);}
	.st126{fill:url(#SVGID_00000047773430722699536710000012917692064759074698_);}
	.st127{fill:url(#SVGID_00000099627723050434116450000008843563626277711284_);}
	.st128{fill:url(#SVGID_00000006676225237657631470000014360423046295821706_);}
	.st129{fill:url(#SVGID_00000156574480259737933920000009695972664381209022_);}
	.st130{fill:url(#SVGID_00000059989342767004827430000004571117997557271204_);}
	.st131{fill:url(#SVGID_00000124849983655960130200000014706806115361068692_);}
	.st132{fill:url(#SVGID_00000077302336187502106660000009593506078453874055_);}
	.st133{fill:url(#SVGID_00000129193957279281817430000011749930319260223674_);}
	.st134{fill:url(#SVGID_00000165195189020970179100000015182262616224528258_);}
	.st135{fill:url(#SVGID_00000147213067589795131650000000791702375352434346_);}
	.st136{fill:url(#SVGID_00000083784794025889952050000002033585431312494472_);}
	.st137{fill:url(#SVGID_00000039846734023973291400000013148694367440271023_);}
	.st138{fill:url(#SVGID_00000115488767336922275520000012099124275003842745_);}
	.st139{fill:url(#SVGID_00000066502318289828903450000009606742738181540540_);}
	.st140{fill:url(#SVGID_00000155829799094982853020000007635065204007834245_);}
	.st141{fill:url(#SVGID_00000134211890722720823780000016567146671365124796_);}
	.st142{fill:url(#SVGID_00000101091855142905704610000005191748585817272990_);}
	.st143{fill:url(#SVGID_00000149365476011836704260000000281440169387298716_);}
	.st144{fill:url(#SVGID_00000089538229176768016060000011101828305475047558_);}
	.st145{fill:url(#SVGID_00000006679145814988925840000004498668857647455163_);}
	.st146{fill:url(#SVGID_00000057858334684450297870000004026298566058702756_);}
	.st147{fill:url(#SVGID_00000032638783292300518850000008857711884871372216_);}
	.st148{fill:url(#SVGID_00000088101118716252289760000011424244669306467729_);}
	.st149{fill:url(#SVGID_00000057139279802900003870000001196070487137775744_);}
	.st150{fill:url(#SVGID_00000016076681441520041040000015134905418971493546_);}
	.st151{fill:url(#SVGID_00000031207734271357219390000000251992319929425537_);}
	.st152{fill:url(#SVGID_00000059990069366707781700000012919206538378554512_);}
	.st153{fill:url(#SVGID_00000027564518681197387520000010481581589755927998_);}
	.st154{fill:url(#SVGID_00000073706810482553565550000002177573666918324900_);}
	.st155{fill:url(#SVGID_00000146473069917962205340000011967447571073819299_);}
	.st156{fill:url(#SVGID_00000118360553115822108480000017752124333719747259_);}
	.st157{fill:url(#SVGID_00000049932553159802188410000007911601163827031472_);}
	.st158{fill:url(#SVGID_00000110461504947307037020000010947994508582983571_);}
	.st159{fill:url(#SVGID_00000053534124837198604480000011648137110301126314_);}
	.st160{fill:url(#SVGID_00000114042785316118487030000009846139646228378294_);}
	.st161{fill:url(#SVGID_00000076603550541788826260000011291244877382614462_);}
	.st162{fill:url(#SVGID_00000000913823499889244250000005657360737664161410_);}
	.st163{fill:url(#SVGID_00000123403494587084795600000016240480603633472646_);}
	.st164{fill:url(#SVGID_00000079475311358501139190000010755629987039472048_);}
	.st165{fill:url(#SVGID_00000029728094174776590220000003449695459042422168_);}
	.st166{fill:url(#SVGID_00000091009677877041629970000003806897619600759732_);}
	.st167{fill:url(#SVGID_00000072969639861437903680000017867896065039064491_);}
	.st168{fill:url(#SVGID_00000029758391924557315970000005938942168321728646_);}
	.st169{fill:url(#SVGID_00000052096856298973571480000011536324950675038867_);}
	.st170{fill:url(#SVGID_00000042698666984886782980000014642437318078641065_);}
	.st171{fill:url(#SVGID_00000041280087999342030560000005353565608995982241_);}
	.st172{fill:url(#SVGID_00000147180966473347415380000006209178360577874067_);}
	.st173{fill:url(#SVGID_00000012450757509418525660000001912496422373290653_);}
	.st174{fill:url(#SVGID_00000147910140743891616010000018039604713438985142_);}
	.st175{fill:url(#SVGID_00000065778181770464838910000015291755823906575762_);}
	.st176{fill:url(#SVGID_00000074435622722753659060000000280696193431333785_);}
	.st177{fill:url(#SVGID_00000172431117705041326080000004934874105330311052_);}
	.st178{fill:url(#SVGID_00000101822418308744194480000003958558566411928451_);}
	.st179{fill:url(#SVGID_00000139255835419791497710000018091071128514566789_);}
	.st180{fill:url(#SVGID_00000026161660080616918450000016584562717947352722_);}
	.st181{fill:url(#SVGID_00000087380778733901036760000016396886703382561933_);}
	.st182{fill:url(#SVGID_00000143613341635543367610000017210775407927070602_);}
	.st183{fill:url(#SVGID_00000014627633463607372800000016828188298492522885_);}
	.st184{fill:url(#SVGID_00000126312869513424883930000000627126462929103295_);}
	.st185{fill:url(#SVGID_00000176735060912190388570000001868721918822777003_);}
	.st186{fill:url(#SVGID_00000053538458446623646850000014624212123636706223_);}
	.st187{fill:#F2F2F2;}
</style>
<g>
	<g>
		<path class="st187" d="M548.62,870.77c0-88.36-71.88-160.24-160.24-160.24c-88.36,0-160.24,71.89-160.24,160.24
			c0,88.36,71.88,160.24,160.24,160.24S548.62,959.12,548.62,870.77z M510.12,970.64l-2.69-2.21L510.12,970.64
			c-3.26,3.97-6.76,7.83-10.39,11.46l-2.13,2.13l-2.61-1.96l-8.66-8.65c-2.37,2.28-4.42,4.07-6.93,6.16
			c-21.98,18.37-48.63,29.54-77.07,32.31l-0.67-6.92c27.04-2.63,52.38-13.26,73.28-30.73c2.92-2.44,5.2-4.44,8.15-7.39l3.27-3.25
			l10.88,10.89c2.61-2.73,5.12-5.57,7.51-8.47l0,0c18.97-23.1,30.53-50.99,33.42-80.67l6.92,0.68
			C542.06,917.29,529.97,946.47,510.12,970.64z M388.38,1003.32c-73.2,0-132.55-59.34-132.55-132.55
			c0-73.2,59.34-132.55,132.55-132.55c73.2,0,132.55,59.34,132.55,132.55C520.93,943.97,461.59,1003.32,388.38,1003.32z
			 M510.19,770.98c22.99,28.03,35.65,63.47,35.65,99.78v3.48h-15.49c-0.78,31.57-12.13,62.2-32.18,86.6l-5.38-4.42
			c19.76-24.05,30.64-54.48,30.64-85.66v-3.48h15.41c-0.78-33.49-12.79-66-34.03-91.89L510.19,770.98z M402.32,713.93
			c36.69,3.22,71.28,19.38,97.4,45.5l2.46,2.46l-10.65,10.65c21.41,22.41,34.91,52,38.13,83.71l-6.92,0.7
			c-3.18-31.3-16.87-60.41-38.56-81.97l-2.48-2.46l10.61-10.61c-24.65-23.54-56.69-38.08-90.6-41.05L402.32,713.93z M372.79,714.08
			c5.18-0.51,10.42-0.77,15.59-0.77h2.72l0.76,3.05l0,12.44c2.86,0.07,5.74,0.23,8.61,0.47c28.7,2.42,55.66,13.37,77.96,31.68
			l-4.41,5.38c-21.2-17.41-46.84-27.82-74.13-30.12c-3.84-0.32-7.71-0.49-11.5-0.49h-3.48v-15.41c-3.81,0.09-7.64,0.32-11.44,0.69
			c-34.45,3.39-66.95,18.79-91.52,43.36l-4.92-4.92C302.74,733.74,336.74,717.62,372.79,714.08z M256.98,784
			c2.99-4.52,6.24-8.93,9.68-13.11l2.2-2.68l11.99,9.79c2.05-2.37,4.03-4.5,6.4-6.88l0.71-0.77c23.17-23.18,53.84-37.7,86.34-40.9
			l0.68,6.92c-30.88,3.04-60.01,16.83-82.04,38.84l-0.71,0.77c-3.07,3.08-5.46,5.71-8.23,9.09l-2.2,2.68l-11.93-9.74
			c-2.49,3.18-4.86,6.47-7.08,9.83c-13.42,20.28-21.77,43.77-24.16,67.93l-6.92-0.68C234.2,829.8,242.94,805.22,256.98,784z
			 M266.04,969.9c-11.13-13.73-19.81-29.08-25.79-45.63c-6.19-17.13-9.32-35.13-9.32-53.5v-0.82l1.33-2.66l2.15,0l12.01,0
			c0.65-26.83,8.78-52.69,23.62-75.02l5.8,3.85c-14.72,22.15-22.5,47.96-22.5,74.65v3.48l-15.41,0
			c0.77,33.2,12.61,65.49,33.52,91.27L266.04,969.9z M372.93,1027.48c-31.06-3.03-60.25-15.12-84.42-34.98l0,0
			c-3.97-3.26-7.83-6.76-11.46-10.39l-0.88-0.88l-0.29-2.88l9.66-9.66c-21.8-22.9-35.43-52.59-38.49-83.99l6.92-0.68
			c3.02,30.95,16.84,60.16,38.91,82.23l2.46,2.46l-10.89,10.89c2.73,2.61,5.57,5.12,8.47,7.51l-2.21,2.69l2.21-2.69
			c23.1,18.98,51,30.54,80.68,33.43L372.93,1027.48z M384.91,1025.57l0-0.83l0-12.01c-31.57-0.78-62.2-12.14-86.6-32.18l4.42-5.38
			c24.05,19.76,54.48,30.64,85.66,30.64h3.48l0,15.41c33.94-0.79,66.8-13.09,92.87-34.84l4.46,5.34
			c-28.21,23.53-64.01,36.49-100.8,36.49h-2.15L384.91,1025.57z"/>
		<path class="st187" d="M480.49,778.66c-24.6-24.6-57.31-38.15-92.11-38.15s-67.5,13.55-92.11,38.15
			c-24.6,24.6-38.15,57.31-38.15,92.11c0,34.79,13.55,67.5,38.15,92.11s57.31,38.15,92.11,38.15c34.79,0,67.5-13.55,92.11-38.15
			c24.6-24.6,38.15-57.31,38.15-92.11C518.64,835.97,505.09,803.26,480.49,778.66z M480.43,957.69
			c-5.38,5.38-11.14,10.24-17.24,14.54l-72.3-145.68l-74.03,148.67c-7.73-5-14.99-10.86-21.65-17.53c-1.85-1.85-3.64-3.74-5.36-5.68
			l79.56-155.6l-4.53-9.26l16.55-30.93h9.46l98.35,191.76C486.48,951.33,483.54,954.58,480.43,957.69z"/>
	</g>
	<path class="st187" d="M508.46,344.87l-75.41-152.14l-76.29,152.14h-88.71l116.66-220l-10.2-20.85l37.26-69.64h21.29l163.23,310.49
		H508.46z"/>
	<path class="st187" d="M649.29,342.49V103.71H544.17L577.88,32H834.7v71.71H730.02V252l18.18,18.19v72.3H649.29z"/>
	<path class="st187" d="M806.15,603.16l-5.97-5.69H683.03V356.61h-98.48v71.87l18.64,18.62V667.1h222.02v-45.32L806.15,603.16z"/>
	<polygon class="st187" points="456.82,359.95 456.82,476.17 366.11,475.73 366.11,359.95 266.75,359.95 266.75,431.81 
		285.83,450.44 285.83,670.45 366.11,670.45 366.11,545.48 456.82,545.81 456.82,670.45 536.66,670.45 536.66,359.95 	"/>
	<path class="st187" d="M576.4,983.21l43.47-62.54c22.62,22.18,58.55,40.81,102.02,40.81c27.94,0,44.8-8.87,44.8-24.4
		c0-40.81-179.64-6.65-179.64-126.41c0-51.9,45.24-98.47,126.41-98.47c17.3,0,33.71,1.78,49.23,4.88l22.62-7.54l66.53,33.27
		l-54.56,72.3c-26.61-21.73-61.21-31.94-92.71-31.94c-23.51,0-34.15,7.54-34.15,21.29c0,38.15,179.64,9.76,179.64,124.64
		c0,62.1-47.02,102.91-132.62,102.91C652.7,1032,608.34,1012.48,576.4,983.21z"/>
</g>
</svg>
