<?xml version="1.0" encoding="utf-8"?>
<!-- Generator: Adobe Illustrator 26.0.0, SVG Export Plug-In . SVG Version: 6.00 Build 0)  -->
<svg version="1.1" id="Camada_1" xmlns="http://www.w3.org/2000/svg" xmlns:xlink="http://www.w3.org/1999/xlink" x="0px" y="0px"
	 viewBox="0 0 1080 1080" style="enable-background:new 0 0 1080 1080;" xml:space="preserve">
<style type="text/css">
	.st0{fill:url(#SVGID_1_);}
	.st1{fill:url(#SVGID_00000001665891367128604390000003409434981475300267_);}
	.st2{fill:url(#SVGID_00000156553646184538688770000000408482870163774106_);}
	.st3{fill:url(#SVGID_00000010270294579015142180000004323704694070604430_);}
	.st4{fill:url(#SVGID_00000050654989088806437980000003169631131650444712_);}
	.st5{fill:url(#SVGID_00000044158757838398804990000012615485324532143524_);}
	.st6{fill:url(#SVGID_00000178168301485515653920000005933425421081785515_);}
	.st7{fill:url(#SVGID_00000103251748736092460240000012075971334536733059_);}
	.st8{fill:url(#SVGID_00000000940107223008589110000011066996472850110354_);}
	.st9{fill:url(#SVGID_00000103248975606516704820000006253469074300213128_);}
	.st10{fill:url(#SVGID_00000098937871081781664150000012690549987008939145_);}
	.st11{fill:url(#SVGID_00000055700468577506906640000011658302411286558390_);}
	.st12{fill:url(#SVGID_00000072247693233647786770000006481193899489560998_);}
	.st13{fill:url(#SVGID_00000054974202828311459430000008099232660375602091_);}
	.st14{fill:url(#SVGID_00000148660659642184014590000004620913925951669924_);}
	.st15{fill:url(#SVGID_00000178179510262715133660000001941348855082768037_);}
	.st16{fill:url(#SVGID_00000110459121223021199350000011308106750379870089_);}
	.st17{fill:url(#SVGID_00000095296600641281667860000012460203212745954744_);}
	.st18{fill:url(#SVGID_00000080904643135398884280000014266126782794361731_);}
	.st19{fill:url(#SVGID_00000125569017460123354840000009328542970744842917_);}
	.st20{fill:url(#SVGID_00000010301866614562528040000003578751688806514577_);}
	.st21{fill:url(#SVGID_00000078745631120887673900000010646377338340835736_);}
	.st22{fill:url(#SVGID_00000012437930471070507600000010625819282794080151_);}
	.st23{fill:url(#SVGID_00000150085156333183721660000005762935650853193406_);}
	.st24{fill:url(#SVGID_00000115498419317391100090000011633977373750238911_);}
	.st25{fill:url(#SVGID_00000137116060945312903050000009664461784031763097_);}
	.st26{fill:url(#SVGID_00000012453438150503927980000003364628579144137374_);}
	.st27{fill:url(#SVGID_00000019646077235277837920000008142002891845366962_);}
	.st28{fill:url(#SVGID_00000135686554283186070790000000117119470290918289_);}
	.st29{fill:url(#SVGID_00000080893330540318948740000007198172166040569253_);}
	.st30{fill:url(#SVGID_00000024714150242854100890000004521265118362081971_);}
	.st31{fill:url(#SVGID_00000152250654876334883710000005396705356198160522_);}
	.st32{fill:url(#SVGID_00000131335937795697358090000011776895190722516637_);}
	.st33{fill:url(#SVGID_00000021819711708284060010000011051640613703690157_);}
	.st34{fill:url(#SVGID_00000049920176781567188770000006606311322606398871_);}
	.st35{fill:url(#SVGID_00000129917265504088171530000018062531559401461692_);}
	.st36{fill:url(#SVGID_00000060005594170241238600000002274469125303311772_);}
	.st37{fill:url(#SVGID_00000070108343142752266710000012325287295370625972_);}
	.st38{fill:url(#SVGID_00000161598147508626997720000002296626005795866294_);}
	.st39{fill:url(#SVGID_00000106850310026886864650000015951450466604825001_);}
	.st40{fill:url(#SVGID_00000010292435541120023570000014987945833392987816_);}
	.st41{fill:url(#SVGID_00000101101542833725175690000009671298591235529368_);}
	.st42{fill:url(#SVGID_00000054244337417863365160000013520948031651635080_);}
	.st43{fill:url(#SVGID_00000003075937405907710890000013471661177414270337_);}
	.st44{fill:url(#SVGID_00000094599015743735620870000008284507084670323840_);}
	.st45{fill:url(#SVGID_00000008147558583557304170000010224745707834767503_);}
	.st46{fill:url(#SVGID_00000062157126272900110180000008151668997803488942_);}
	.st47{fill:url(#SVGID_00000052815980881330009600000017939764253059354281_);}
	.st48{fill:url(#SVGID_00000148631185348651289180000008618230108079689120_);}
	.st49{fill:url(#SVGID_00000095299474394722557600000001425524731393424769_);}
	.st50{fill:url(#SVGID_00000129907096445752478760000016664572406303871881_);}
	.st51{fill:url(#SVGID_00000037684408420997759380000015595804241655668904_);}
	.st52{fill:url(#SVGID_00000103266554051953785190000016659540059815904956_);}
	.st53{fill:url(#SVGID_00000143582387557147209410000003510778169155519895_);}
	.st54{fill:url(#SVGID_00000093143542599341501200000006354040950166008714_);}
	.st55{fill:url(#SVGID_00000080195862818213811320000006601530498644759470_);}
	.st56{fill:url(#SVGID_00000173873564889372689720000014959648767472039553_);}
	.st57{fill:url(#SVGID_00000087391172603236405580000012508213622688849824_);}
	.st58{fill:url(#SVGID_00000181804384774227103810000017235537446906805644_);}
	.st59{fill:url(#SVGID_00000129187277745411113030000012696880282021423271_);}
	.st60{fill:url(#SVGID_00000027593607943686420880000010633176647117773224_);}
	.st61{fill:url(#SVGID_00000054256936499704894120000015418594708202247312_);}
	.st62{fill:url(#SVGID_00000067945672296151735980000008113046254860471472_);}
	.st63{fill:url(#SVGID_00000112619846871642905470000006646753025876344766_);}
	.st64{fill:url(#SVGID_00000021820379423780132510000005812647634146526387_);}
	.st65{fill:url(#SVGID_00000139255622959713409630000017713457660441841537_);}
	.st66{fill:url(#SVGID_00000095338287339857480480000004178246230893122437_);}
	.st67{fill:url(#SVGID_00000168091694443842680910000010942894080720969105_);}
	.st68{fill:url(#SVGID_00000072261876617699913800000000994353189107677614_);}
	.st69{fill:url(#SVGID_00000001640224078742046450000004138126453906399891_);}
	.st70{fill:url(#SVGID_00000065066376666048809970000013690152374166444973_);}
	.st71{fill:url(#SVGID_00000115488318904827196940000008668106171100658612_);}
	.st72{fill:url(#SVGID_00000011726389740256524500000008058269722256565933_);}
	.st73{fill:url(#SVGID_00000019676041465307010040000018377054423115160984_);}
	.st74{fill:url(#SVGID_00000120517854099325198450000005626296211180203689_);}
	.st75{fill:url(#SVGID_00000098940219222219446570000000397545863144644029_);}
	.st76{fill:url(#SVGID_00000076574704205835018220000015431670502648331157_);}
	.st77{fill:url(#SVGID_00000084499797339140664290000009496081417021062540_);}
	.st78{fill:url(#SVGID_00000113332095737813680450000006805497387889523095_);}
	.st79{fill:url(#SVGID_00000068650384847347514840000002480203598844614017_);}
	.st80{fill:url(#SVGID_00000124872478518842022390000003120536710500864154_);}
	.st81{fill:url(#SVGID_00000016036355443727310510000016510661666523695524_);}
	.st82{fill:url(#SVGID_00000153695597629770153760000015273300605524158601_);}
	.st83{fill:url(#SVGID_00000170963228306755582320000017973873118477654166_);}
	.st84{fill:url(#SVGID_00000162320674946642546450000005633760021055365817_);}
	.st85{fill:url(#SVGID_00000095308203103300229420000017799788460761358737_);}
	.st86{fill:url(#SVGID_00000093177076240866233700000011172906212694254485_);}
	.st87{fill:url(#SVGID_00000072997924205703172540000006491051163261726082_);}
	.st88{fill:url(#SVGID_00000014616293220086792720000005787721872406588069_);}
	.st89{fill:url(#SVGID_00000157282316501199305490000010225236670139246210_);}
	.st90{fill:url(#SVGID_00000101100412862443213630000005385713625173120426_);}
	.st91{fill:url(#SVGID_00000096760281109191035080000003966766986873903268_);}
	.st92{fill:url(#SVGID_00000052820746526709194500000016975374731848836253_);}
	.st93{fill:url(#SVGID_00000080902606059607018000000017803847484197037502_);}
	.st94{fill:url(#SVGID_00000130641765575043684630000000116501577337693367_);}
	.st95{fill:url(#SVGID_00000116196494909490868950000003182574904343499670_);}
	.st96{fill:url(#SVGID_00000139986134351926727120000018128147616968640401_);}
	.st97{fill:url(#SVGID_00000037685037012546322970000005720017913470449827_);}
	.st98{fill:url(#SVGID_00000143593647442392679940000004113846724419608979_);}
	.st99{fill:url(#SVGID_00000017516126590311188480000010844143601288953479_);}
	.st100{fill:url(#SVGID_00000180347262579076289910000004506317298519822223_);}
	.st101{fill:url(#SVGID_00000041991100884448364890000006294616907346154908_);}
	.st102{fill:url(#SVGID_00000031193887391048808000000016743377661310271398_);}
	.st103{fill:url(#SVGID_00000016764882147669185390000007874933157933410209_);}
	.st104{fill:url(#SVGID_00000031184691342969935120000015278863938242229424_);}
	.st105{fill:url(#SVGID_00000069377606935895355780000018402472454324968117_);}
	.st106{fill:url(#SVGID_00000058552841710517895300000004875650214670197895_);}
	.st107{fill:url(#SVGID_00000015355484283571902860000009546573049032791204_);}
	.st108{fill:url(#SVGID_00000101799705993540319610000002072687200468465554_);}
	.st109{fill:url(#SVGID_00000162310090693046679630000000629818955708426896_);}
	.st110{fill:url(#SVGID_00000119096197711611740040000008797793265822468244_);}
	.st111{fill:url(#SVGID_00000121979419776464316560000004083880245895985282_);}
	.st112{fill:url(#SVGID_00000028291311015769674710000005136501219380363413_);}
	.st113{fill:url(#SVGID_00000113313569278981689460000001402722099158814398_);}
	.st114{fill:url(#SVGID_00000148656131902245035580000014835063984218995390_);}
	.st115{fill:url(#SVGID_00000121271507137456307680000007816834046608739773_);}
	.st116{fill:url(#SVGID_00000088098111200439848910000016007272297687177374_);}
	.st117{fill:url(#SVGID_00000168100161753668412590000017352310724466053297_);}
	.st118{fill:url(#SVGID_00000124857991650862752150000003955913448644262297_);}
	.st119{fill:url(#SVGID_00000137828372682663839090000015963657953562855593_);}
	.st120{fill:url(#SVGID_00000036213015872924659350000012229693419109651332_);}
	.st121{fill:url(#SVGID_00000163032913366254291330000005975726253414596258_);}
	.st122{fill:url(#SVGID_00000079486595454263595290000017099960783286382471_);}
	.st123{fill:url(#SVGID_00000144312001902435519350000005618246379948437408_);}
	.st124{fill:url(#SVGID_00000069382413022206050550000006361199613624203965_);}
	.st125{fill:url(#SVGID_00000044177271754626592330000002598438779546573443_);}
	.st126{fill:url(#SVGID_00000138573048847095782590000008175090793246695341_);}
	.st127{fill:url(#SVGID_00000065778342649669679230000001736848952168770486_);}
	.st128{fill:url(#SVGID_00000134243667067537415570000015919580978071022258_);}
	.st129{fill:url(#SVGID_00000089560172905094097780000000133575674145958584_);}
	.st130{fill:url(#SVGID_00000041271450010934963990000016026889138800058018_);}
	.st131{fill:url(#SVGID_00000118388403894080609540000007342359066703417780_);}
	.st132{fill:url(#SVGID_00000145768977022826696450000002368102819430975420_);}
	.st133{fill:url(#SVGID_00000110462588078944150180000013620349443428995218_);}
	.st134{fill:url(#SVGID_00000046311102530365647740000015977716182692148114_);}
	.st135{fill:url(#SVGID_00000023268848566155985060000012746964701797707453_);}
	.st136{fill:url(#SVGID_00000021098667356806710030000014952796599526107057_);}
	.st137{fill:url(#SVGID_00000094620554321360565570000015128414853217954444_);}
	.st138{fill:url(#SVGID_00000006672029004499752500000014825143549106018457_);}
	.st139{fill:url(#SVGID_00000149359956876378366780000006277625253348547996_);}
	.st140{fill:url(#SVGID_00000176723474350596441060000003517454093423719049_);}
	.st141{fill:url(#SVGID_00000111879420226673235240000002025782748132644031_);}
	.st142{fill:url(#SVGID_00000127761738927236770790000011639322389856428460_);}
	.st143{fill:url(#SVGID_00000054957427409648678060000010998059274679487392_);}
	.st144{fill:url(#SVGID_00000125589949566844168060000007217681913652498358_);}
	.st145{fill:url(#SVGID_00000097460025547212598560000005793739038928852404_);}
	.st146{fill:url(#SVGID_00000177448854658368419350000000022716788589697957_);}
	.st147{fill:url(#SVGID_00000171701093491145595320000016316069961979007114_);}
	.st148{fill:url(#SVGID_00000077317243488585970480000012560011785339882649_);}
	.st149{fill:url(#SVGID_00000011728109704653492350000011059852731308649109_);}
	.st150{fill:url(#SVGID_00000114794260335621051430000010139738162311284371_);}
	.st151{fill:url(#SVGID_00000047739893019392424140000002251648830732163516_);}
	.st152{fill:url(#SVGID_00000090991374781875477620000013397934564492440721_);}
	.st153{fill:url(#SVGID_00000039117361245791087020000015997157084199838387_);}
	.st154{fill:url(#SVGID_00000023995550907442956370000013446960298573709464_);}
	.st155{fill:url(#SVGID_00000052084708272604101090000012512685460085218740_);}
	.st156{fill:url(#SVGID_00000010282310002658400290000017034113245230138545_);}
	.st157{fill:url(#SVGID_00000158744856527483149270000017992823980762203827_);}
	.st158{fill:url(#SVGID_00000183941622443249174960000001594714755457051778_);}
	.st159{fill:url(#SVGID_00000147942515878092698720000014103911819163433121_);}
	.st160{fill:url(#SVGID_00000025402138115126331940000004748575748292909723_);}
	.st161{fill:url(#SVGID_00000067221222542397759400000012985926941622523804_);}
	.st162{fill:url(#SVGID_00000086658738582914885370000006542164569750803845_);}
	.st163{fill:url(#SVGID_00000029731575309319513280000000371513375318982532_);}
	.st164{fill:url(#SVGID_00000152953136224147345900000008361654075404675203_);}
	.st165{fill:url(#SVGID_00000078742551252476205220000004449177787545494166_);}
	.st166{fill:url(#SVGID_00000034778030195675366240000006570751156812488324_);}
	.st167{fill:url(#SVGID_00000034082534175918273380000002599176418132577963_);}
	.st168{fill:url(#SVGID_00000066484260823319023680000004783935809175556523_);}
	.st169{fill:url(#SVGID_00000179617710628426158140000001559116579364575108_);}
	.st170{fill:url(#SVGID_00000104672207665763468750000012982346024308597682_);}
	.st171{fill:url(#SVGID_00000065073199491742615550000008296313570768618637_);}
	.st172{fill:url(#SVGID_00000064340942204862647190000012669758541243046589_);}
	.st173{fill:url(#SVGID_00000029768383325301613740000007714506424590873483_);}
	.st174{fill:url(#SVGID_00000155114842078302360490000005572776298644507831_);}
	.st175{fill:url(#SVGID_00000152954869095830566420000002102939705870880644_);}
	.st176{fill:url(#SVGID_00000092453066262270018900000005441814931237305994_);}
	.st177{fill:url(#SVGID_00000070811863739588850860000008946158871716358287_);}
	.st178{fill:url(#SVGID_00000124879400521195582130000009864514561092598186_);}
	.st179{fill:url(#SVGID_00000116218153727155108410000017015034441856267672_);}
	.st180{fill:url(#SVGID_00000091015867280251569870000005280570919144887187_);}
	.st181{fill:url(#SVGID_00000129171375104865318640000017950779947739539884_);}
	.st182{fill:url(#SVGID_00000175316581065766530250000014799551603031835047_);}
	.st183{fill:url(#SVGID_00000180355933000391664020000009872998842532793988_);}
	.st184{fill:url(#SVGID_00000065064681903320993210000012766682521705591456_);}
	.st185{fill:url(#SVGID_00000137844693713715193090000009917064035744947134_);}
	.st186{fill:url(#SVGID_00000181061263167385321380000015950294267339310525_);}
	.st187{fill:#F2F2F2;}
</style>
<g>
	<path d="M509.59,41.01c1.65-0.1,3.29-0.28,4.95-0.36C512.88,40.73,511.24,40.91,509.59,41.01z"/>
	<path d="M565.47,40.64c1.63,0.08,3.24,0.26,4.87,0.36C568.71,40.9,567.1,40.73,565.47,40.64z"/>
	<path d="M590.8,42.56c1.29,0.13,2.55,0.33,3.84,0.47C593.35,42.89,592.08,42.69,590.8,42.56z"/>
	<path d="M186.45,186.45c5.74-5.74,11.6-11.3,17.55-16.72C198.01,175.16,192.16,180.73,186.45,186.45z"/>
	<path d="M220.41,155.51c0.54-0.45,1.06-0.93,1.59-1.38C221.47,154.58,220.96,155.06,220.41,155.51z"/>
	<path d="M485.33,43.03c1.3-0.14,2.58-0.35,3.88-0.48C487.9,42.69,486.62,42.89,485.33,43.03z"/>
	<path d="M462.4,46.02c0.55-0.09,1.09-0.2,1.64-0.28C463.49,45.82,462.95,45.94,462.4,46.02z"/>
	<path d="M1039.36,565.43c-0.09,1.86-0.29,3.69-0.41,5.55C1039.06,569.12,1039.26,567.29,1039.36,565.43z"/>
	<path d="M615.97,45.74c0.52,0.08,1.04,0.19,1.56,0.27C617.01,45.93,616.5,45.82,615.97,45.74z"/>
	<path d="M169.72,204c5.42-5.95,10.97-11.81,16.7-17.54C180.72,192.17,175.15,198.02,169.72,204z"/>
	<path d="M1037.45,590.76c-0.14,1.43-0.37,2.84-0.52,4.27C1037.08,593.6,1037.3,592.19,1037.45,590.76z"/>
	<path d="M1034.26,615.94c-0.09,0.63-0.23,1.25-0.32,1.88C1034.04,617.19,1034.17,616.57,1034.26,615.94z"/>
	<path d="M1036.92,484.98c0.15,1.43,0.38,2.84,0.52,4.27C1037.3,487.81,1037.08,486.41,1036.92,484.98z"/>
	<path d="M857.99,154.13c0.59,0.49,1.16,1.02,1.75,1.51C859.14,155.15,858.58,154.62,857.99,154.13z"/>
	<path d="M924.25,220.13c0.53,0.64,1.1,1.25,1.63,1.89C925.35,221.38,924.78,220.77,924.25,220.13z"/>
	<path d="M1038.95,509.02c0.11,1.85,0.31,3.69,0.41,5.54C1039.26,512.71,1039.06,510.88,1038.95,509.02z"/>
	<path d="M154.12,222.02c0.54-0.64,1.11-1.26,1.65-1.91C155.23,220.76,154.66,221.37,154.12,222.02z"/>
	<path d="M185.44,892.5c-5.37-5.4-10.61-10.89-15.7-16.49C174.84,881.63,180.09,887.11,185.44,892.5z"/>
	<path d="M155.44,859.51c-0.43-0.51-0.88-1-1.31-1.51C154.56,858.51,155.01,858.99,155.44,859.51z"/>
	<path d="M222,925.86c-0.46-0.38-0.9-0.79-1.36-1.18C221.1,925.07,221.53,925.48,222,925.86z"/>
	<path d="M514.54,1039.36c-1.67-0.08-3.32-0.26-4.99-0.36C511.22,1039.09,512.87,1039.28,514.54,1039.36z"/>
	<path d="M489.21,1037.45c-1.31-0.13-2.6-0.34-3.91-0.48C486.61,1037.11,487.9,1037.31,489.21,1037.45z"/>
	<path d="M464.03,1034.26c-0.54-0.08-1.07-0.19-1.6-0.28C462.96,1034.07,463.49,1034.18,464.03,1034.26z"/>
	<path d="M203.99,910.27c-5.55-5.05-11-10.26-16.36-15.58C192.97,899.99,198.41,905.2,203.99,910.27z"/>
	<path d="M42.55,489.25c0.14-1.45,0.37-2.88,0.53-4.32C42.92,486.37,42.7,487.8,42.55,489.25z"/>
	<path d="M46.06,617.84c-0.1-0.64-0.23-1.26-0.33-1.9C45.83,616.57,45.96,617.2,46.06,617.84z"/>
	<path d="M40.64,514.57c0.09-1.87,0.3-3.73,0.41-5.6C40.94,510.85,40.74,512.7,40.64,514.57z"/>
	<path d="M45.73,464.07c0.1-0.65,0.24-1.29,0.34-1.94C45.97,462.78,45.83,463.42,45.73,464.07z"/>
	<path d="M43.08,595.06c-0.16-1.44-0.38-2.86-0.53-4.3C42.7,592.2,42.92,593.62,43.08,595.06z"/>
	<path d="M41.06,571.06c-0.11-1.88-0.32-3.75-0.41-5.64C40.74,567.32,40.94,569.18,41.06,571.06z"/>
	<path d="M1033.94,462.18c0.1,0.63,0.23,1.25,0.32,1.88C1034.17,463.43,1034.04,462.81,1033.94,462.18z"/>
	<path d="M617.55,1033.99c-0.53,0.08-1.05,0.19-1.58,0.27C616.5,1034.18,617.02,1034.07,617.55,1033.99z"/>
	<path d="M910.26,876.02c-4.85,5.33-9.86,10.55-14.96,15.71C900.38,886.59,905.4,881.37,910.26,876.02z"/>
	<path d="M859.17,924.85c-0.39,0.33-0.77,0.68-1.16,1.01C858.4,925.53,858.77,925.18,859.17,924.85z"/>
	<path d="M594.68,1036.97c-1.3,0.14-2.58,0.34-3.88,0.48C592.09,1037.31,593.38,1037.11,594.68,1036.97z"/>
	<path d="M891.64,895.38c-5.13,5.07-10.32,10.06-15.62,14.88C881.34,905.42,886.53,900.44,891.64,895.38z"/>
	<path d="M910.28,204c-10.87-11.97-22.31-23.41-34.28-34.28c5.96,5.42,11.82,10.99,17.55,16.72
		C899.29,192.18,904.85,198.04,910.28,204z"/>
	<path d="M1029.38,540c0-269.84-219.54-489.38-489.38-489.38C270.16,50.62,50.62,270.16,50.62,540
		c0,269.84,219.53,489.37,489.38,489.37S1029.38,809.85,1029.38,540z M911.77,845.03l-8.21-6.74L911.77,845.03
		c-9.97,12.14-20.65,23.91-31.74,35.01l-6.51,6.52l-7.98-5.98l-26.43-26.43c-7.24,6.98-13.51,12.42-21.17,18.83
		c-67.13,56.1-148.52,90.22-235.37,98.69l-2.06-21.15c82.58-8.04,159.97-40.5,223.8-93.84c8.93-7.46,15.87-13.55,24.89-22.57
		l9.99-9.92l33.24,33.24c7.96-8.33,15.64-17,22.93-25.87l0,0c57.94-70.55,93.24-155.74,102.08-246.36l21.15,2.06
		C1009.33,682.07,972.4,771.21,911.77,845.03z M540,944.81c-223.57,0-404.8-181.24-404.8-404.8c0-223.57,181.23-404.8,404.8-404.8
		c223.57,0,404.8,181.24,404.8,404.8C944.8,763.57,763.57,944.81,540,944.81z M912,235.26c70.21,85.61,108.87,193.83,108.87,304.74
		v10.62h-47.3c-2.38,96.42-37.06,189.96-98.27,264.48l-16.42-13.49c60.34-73.46,93.57-166.37,93.56-261.61v-10.63h47.05
		c-2.38-102.28-39.07-201.56-103.93-280.64L912,235.26z M582.55,61.02c112.06,9.83,217.7,59.18,297.48,138.95l7.51,7.51
		l-32.53,32.54c65.38,68.45,106.62,158.8,116.46,255.65l-21.14,2.15c-9.71-95.6-51.53-184.51-117.75-250.34l-7.56-7.51l32.39-32.39
		C782.11,135.69,684.27,91.28,580.7,82.19L582.55,61.02z M492.37,61.47c15.81-1.56,31.83-2.34,47.63-2.34h8.3l2.33,9.32l0,37.99
		c8.73,0.22,17.54,0.7,26.29,1.44c87.66,7.39,169.98,40.85,238.08,96.75l-13.48,16.42c-64.76-53.16-143.04-84.97-226.38-92
		c-11.72-0.99-23.54-1.49-35.13-1.49h-10.62V80.5c-11.63,0.27-23.34,0.98-34.92,2.12C389.25,92.96,289.99,140,214.95,215.05
		l-15.03-15.02C278.43,121.5,382.29,72.3,492.37,61.47z M138.7,275.01c9.12-13.79,19.07-27.26,29.56-40.03l6.72-8.18l36.63,29.89
		c6.25-7.25,12.31-13.75,19.55-21l2.16-2.35C304.1,162.55,397.74,118.19,497,108.42l2.08,21.15
		c-94.3,9.29-183.28,51.41-250.56,118.62l-2.15,2.34c-9.38,9.39-16.67,17.43-25.15,27.75l-6.72,8.18l-36.44-29.73
		c-7.6,9.7-14.86,19.76-21.63,30.01c-40.98,61.93-66.49,133.67-73.8,207.46l-21.15-2.09C69.12,414.88,95.83,339.81,138.7,275.01z
		 M166.36,842.74c-34.01-41.92-60.5-88.8-78.76-139.35C68.71,651.09,59.13,596.12,59.13,540v-2.51l4.06-8.12l6.57,0l36.67,0
		c1.98-81.93,26.82-160.93,72.14-229.12l17.7,11.76c-44.95,67.64-68.71,146.47-68.71,227.98v10.62l-47.05,0
		c2.36,101.4,38.5,200,102.36,278.73L166.36,842.74z M492.8,1018.59c-94.85-9.24-184-46.18-257.82-106.82l0,0
		c-12.12-9.96-23.9-20.64-35-31.74l-2.68-2.68l-0.88-8.78l29.49-29.5c-66.57-69.93-108.2-160.6-117.54-256.5l21.15-2.06
		c9.21,94.53,51.42,183.72,118.84,251.14l7.51,7.51l-33.27,33.27c8.34,7.96,17,15.65,25.87,22.92l-6.74,8.21l6.74-8.21
		c70.55,57.96,155.76,93.26,246.4,102.09L492.8,1018.59z M529.38,1012.76l-0.01-2.52l0.01-36.67
		c-96.42-2.38-189.96-37.06-264.48-98.27l13.49-16.42c73.46,60.34,166.37,93.58,261.62,93.58h10.62l-0.01,47.05
		c103.65-2.41,204-39.97,283.61-106.39l13.61,16.32C761.7,981.3,652.37,1020.88,540,1020.88h-6.57L529.38,1012.76z"/>
	<path d="M925.86,858.01c-0.34,0.41-0.7,0.8-1.04,1.21C925.16,858.8,925.52,858.41,925.86,858.01z"/>
	<path d="M565.46,1039.36c1.67-0.08,3.31-0.26,4.97-0.36C568.77,1039.09,567.13,1039.28,565.46,1039.36z"/>
	<path d="M821.29,258.71C746.15,183.57,646.26,142.2,540,142.2s-206.16,41.38-281.29,116.51C183.57,333.85,142.19,433.74,142.19,540
		c0,106.26,41.38,206.16,116.52,281.29S433.74,937.81,540,937.81c106.26,0,206.16-41.38,281.29-116.51
		C896.43,746.16,937.81,646.26,937.81,540C937.81,433.74,896.43,333.85,821.29,258.71z M821.1,805.47
		c-16.44,16.44-34.04,31.26-52.65,44.4l-220.8-444.9L321.56,859c-23.6-15.27-45.77-33.18-66.12-53.53
		c-5.66-5.65-11.1-11.44-16.37-17.35l242.99-475.21l-13.84-28.29l50.53-94.46h28.89l300.37,585.63
		C839.58,786.05,830.6,795.97,821.1,805.47z"/>
	<path d="M46.07,462.13c14.13-90.32,52.4-172.64,108.05-240.11C96.81,291.33,59.8,373.81,46.07,462.13z"/>
	<path d="M43.08,484.92c0.77-6.99,1.6-13.95,2.65-20.85C44.69,470.98,43.84,477.95,43.08,484.92z"/>
	<path d="M204,169.73c5.36-4.87,10.85-9.59,16.41-14.22C214.87,160.14,209.37,164.84,204,169.73z"/>
	<path d="M514.54,1039.36c8.45,0.42,16.94,0.64,25.46,0.64c8.52,0,17.01-0.22,25.46-0.64c-8.44,0.42-16.92,0.64-25.46,0.64
		S522.97,1039.78,514.54,1039.36z"/>
	<path d="M565.47,40.64C557.01,40.22,548.52,40,540,40c-8.52,0-17.01,0.22-25.46,0.65C522.97,40.22,531.46,40,540,40
		S557.03,40.22,565.47,40.64z"/>
	<path d="M41.05,508.97c0.4-6.6,0.84-13.2,1.5-19.73C41.9,495.79,41.45,502.38,41.05,508.97z"/>
	<path d="M155.77,220.11c4.55-5.46,9.18-10.85,13.95-16.11C164.93,209.28,160.31,214.67,155.77,220.11z"/>
	<path d="M185.44,892.5c0.34,0.35,0.66,0.71,1.01,1.06c0.39,0.39,0.8,0.74,1.19,1.13C186.9,893.96,186.17,893.23,185.44,892.5z"/>
	<path d="M186.45,186.45c-0.01,0.01-0.01,0.01-0.02,0.02C186.43,186.46,186.44,186.45,186.45,186.45L186.45,186.45z"/>
	<path d="M462.43,1033.99c-90.45-14.09-172.89-52.4-240.43-108.13C291.39,983.26,373.98,1020.29,462.43,1033.99z"/>
	<path d="M169.73,876.01c-4.89-5.39-9.64-10.91-14.29-16.5C160.09,865.08,164.82,870.61,169.73,876.01z"/>
	<path d="M220.63,924.69c-5.65-4.69-11.21-9.49-16.64-14.42C209.44,915.22,215.01,920,220.63,924.69z"/>
	<path d="M485.3,1036.97c-7.13-0.78-14.24-1.63-21.27-2.7C471.08,1035.33,478.18,1036.2,485.3,1036.97z"/>
	<path d="M509.55,1038.99c-6.81-0.41-13.61-0.87-20.34-1.55C495.95,1038.12,502.75,1038.59,509.55,1038.99z"/>
	<path d="M40,540c0,8.51,0.22,16.98,0.64,25.42C40.22,557.01,40,548.53,40,540C40,540,40,540,40,540z"/>
	<path d="M40,539.95c0-8.51,0.22-16.98,0.64-25.38C40.22,523,40,531.46,40,539.95z"/>
	<path d="M42.55,590.76c-0.66-6.52-1.09-13.1-1.5-19.69C41.46,577.65,41.9,584.23,42.55,590.76z"/>
	<path d="M45.73,615.94c-1.05-6.9-1.89-13.88-2.65-20.88C43.84,602.05,44.69,609.02,45.73,615.94z"/>
	<path d="M154.13,858C98.46,790.52,60.19,708.18,46.06,617.84C59.79,706.18,96.8,788.68,154.13,858z"/>
	<path d="M1036.92,595.03c-0.77,7.01-1.61,13.99-2.66,20.91C1035.31,609.01,1036.16,602.03,1036.92,595.03z"/>
	<path d="M876.02,910.26c-5.5,4.99-11.13,9.85-16.85,14.59C864.87,920.11,870.5,915.28,876.02,910.26z"/>
	<path d="M910.28,204c4.78,5.27,9.42,10.66,13.97,16.13C919.7,214.68,915.08,209.28,910.28,204z"/>
	<path d="M1038.95,570.98c-0.41,6.62-0.84,13.23-1.5,19.78C1038.1,584.2,1038.55,577.59,1038.95,570.98z"/>
	<path d="M924.82,859.21c-4.74,5.7-9.57,11.32-14.56,16.81C915.26,870.52,920.09,864.89,924.82,859.21z"/>
	<path d="M859.74,155.64c5.51,4.59,10.95,9.27,16.26,14.08C870.68,164.89,865.23,160.23,859.74,155.64z"/>
	<path d="M1037.45,489.24c0.66,6.55,1.1,13.16,1.5,19.78C1038.55,502.41,1038.1,495.8,1037.45,489.24z"/>
	<path d="M617.54,46.01C708,60.1,790.44,98.4,857.99,154.13C788.59,96.74,705.99,59.7,617.54,46.01z"/>
	<path d="M1034.26,464.06c1.05,6.92,1.89,13.9,2.66,20.91C1036.16,477.97,1035.31,471,1034.26,464.06z"/>
	<path d="M222.01,154.13C289.54,98.41,371.96,60.11,462.4,46.02C373.97,59.72,291.39,96.75,222.01,154.13z"/>
	<path d="M925.87,222.02c55.67,67.48,93.94,149.82,108.07,240.16C1020.21,373.84,983.21,291.34,925.87,222.02z"/>
	<path d="M590.79,1037.45c-6.74,0.68-13.55,1.14-20.36,1.55C577.24,1038.59,584.04,1038.12,590.79,1037.45z"/>
	<path d="M615.97,1034.26c-7.04,1.07-14.16,1.93-21.29,2.71C601.8,1036.2,608.91,1035.33,615.97,1034.26z"/>
	<path d="M858.01,925.86c-67.55,55.73-150,94.04-240.46,108.13C706,1020.29,788.61,983.26,858.01,925.86z"/>
	<path d="M489.21,42.56c6.74-0.68,13.56-1.14,20.38-1.55C502.77,41.41,495.97,41.88,489.21,42.56z"/>
	<path d="M464.03,45.74c7.04-1.07,14.16-1.93,21.29-2.71C478.2,43.8,471.09,44.67,464.03,45.74z"/>
	<path d="M891.64,895.38c0.63-0.62,1.29-1.2,1.91-1.82c0.6-0.6,1.15-1.23,1.74-1.83C894.08,892.95,892.86,894.17,891.64,895.38z"/>
	<path d="M1040,540c0,8.53-0.22,17-0.64,25.43C1039.78,556.99,1040,548.51,1040,540z"/>
	<path d="M594.63,43.03c7.15,0.78,14.28,1.64,21.34,2.71C608.9,44.67,601.78,43.8,594.63,43.03z"/>
	<path d="M570.34,41c6.85,0.41,13.69,0.87,20.46,1.56C584.01,41.88,577.18,41.41,570.34,41z"/>
	<path d="M1033.94,617.82c-14.12,90.36-52.4,172.7-108.08,240.19C983.2,788.68,1020.21,706.17,1033.94,617.82z"/>
	<path d="M1039.36,514.57c0.42,8.42,0.64,16.9,0.64,25.43C1040,531.49,1039.78,523.01,1039.36,514.57z"/>
</g>
</svg>
